<?xml version="1.0" standalone="no"?>
<!DOCTYPE svg PUBLIC "-//W3C//DTD SVG 20010904//EN"
 "http://www.w3.org/TR/2001/REC-SVG-20010904/DTD/svg10.dtd">
<svg version="1.0" xmlns="http://www.w3.org/2000/svg"
 width="848.000000pt" height="826.000000pt" viewBox="0 0 848.000000 826.000000"
 preserveAspectRatio="xMidYMid meet">

<g transform="translate(0.000000,826.000000) scale(0.100000,-0.100000)"
fill="#000000" stroke="none">
<path d="M4475 7881 c-55 -25 -119 -100 -136 -158 -7 -27 -21 -61 -31 -78 -23
-38 -23 -89 1 -140 23 -50 44 -68 81 -67 32 1 90 28 90 42 0 26 -63 177 -80
192 -27 22 -25 38 10 86 40 56 94 82 168 82 77 0 117 -26 155 -99 32 -65 36
-117 9 -126 -21 -6 -152 -148 -152 -164 0 -12 58 -56 85 -65 28 -8 78 25 114
75 30 40 30 43 25 138 -7 139 -20 178 -73 231 -70 70 -179 91 -266 51z m195
-16 c35 -19 74 -57 100 -100 26 -41 40 -157 21 -169 -7 -5 -11 7 -11 37 0 87
-49 176 -119 216 -13 7 -50 13 -82 12 -103 -1 -179 -54 -214 -149 -7 -20 -14
-29 -14 -19 -1 28 28 90 57 120 66 69 185 93 262 52z m-300 -225 c0 -14 -57
-76 -64 -69 -3 3 6 22 21 42 28 36 43 46 43 27z m40 6 c0 -3 -4 -8 -10 -11 -5
-3 -10 -1 -10 4 0 6 5 11 10 11 6 0 10 -2 10 -4z m5 -35 c-3 -6 -11 -11 -17
-11 -6 0 -6 6 2 15 14 17 26 13 15 -4z m-35 -7 c0 -10 -55 -84 -62 -84 -16 0
-7 23 20 55 25 31 42 43 42 29z m382 -46 c-7 -7 -12 -8 -12 -2 0 14 12 26 19
19 2 -3 -1 -11 -7 -17z m-372 5 c0 -5 -14 -24 -30 -43 -34 -41 -41 -22 -7 20
21 28 37 38 37 23z m42 -25 c-7 -7 -12 -8 -12 -2 0 14 12 26 19 19 2 -3 -1
-11 -7 -17z m316 -34 c-73 -63 -113 -91 -102 -72 15 25 137 127 146 122 4 -3
-16 -26 -44 -50z m-368 -9 c-12 -20 -25 -34 -27 -31 -3 3 5 21 17 41 12 20 25
34 27 31 3 -3 -5 -21 -17 -41z m430 26 c0 -12 -125 -121 -139 -121 -20 0 -11
15 22 37 18 13 48 38 67 58 34 35 50 43 50 26z m-355 -11 c-3 -5 -11 -10 -16
-10 -6 0 -7 5 -4 10 3 6 11 10 16 10 6 0 7 -4 4 -10z m-47 -32 c-8 -12 -20
-24 -27 -26 -9 -3 -7 5 4 22 10 14 22 26 27 26 6 0 4 -10 -4 -22z m252 12 c-8
-5 -19 -10 -25 -10 -5 0 -3 5 5 10 8 5 20 10 25 10 6 0 3 -5 -5 -10z m-20 -34
c0 -2 -7 -6 -15 -10 -8 -3 -15 -1 -15 4 0 6 7 10 15 10 8 0 15 -2 15 -4z"/>
<path d="M3613 7844 c-7 -20 5 -126 17 -138 13 -13 23 57 16 109 -7 45 -22 58
-33 29z"/>
<path d="M3546 7834 c-8 -20 4 -113 14 -119 13 -8 21 42 14 85 -7 45 -19 58
-28 34z"/>
<path d="M3776 7798 c-24 -59 -29 -98 -13 -98 15 0 57 85 57 114 0 28 -31 17
-44 -16z"/>
<path d="M3420 7804 c0 -17 54 -124 63 -124 12 0 3 59 -15 97 -12 25 -48 45
-48 27z"/>
<path d="M3863 7792 c-13 -8 -53 -114 -53 -140 0 -25 29 6 56 60 33 66 32 102
-3 80z"/>
<path d="M3350 7758 c0 -22 51 -98 65 -98 20 0 19 5 -12 61 -24 45 -53 65 -53
37z"/>
<path d="M5270 7644 c0 -63 -26 -113 -66 -130 -43 -18 -131 -18 -183 1 -22 8
-41 10 -41 6 0 -5 11 -33 25 -63 15 -32 25 -71 25 -99 0 -46 -1 -47 -46 -69
-26 -11 -69 -23 -98 -26 -28 -3 -66 -7 -84 -10 l-33 -5 49 -44 c26 -24 61 -61
76 -83 l27 -40 -30 -60 c-26 -52 -36 -62 -76 -77 -67 -26 -75 -41 -28 -54 21
-6 44 -11 50 -11 7 0 31 -16 53 -36 65 -58 53 -120 -33 -184 l-41 -30 65 -2
c35 0 71 -1 79 0 33 2 97 -21 122 -46 15 -14 31 -41 34 -59 9 -46 -12 -145
-47 -221 l-29 -64 -37 6 c-105 16 -156 18 -219 7 -100 -18 -147 -42 -218 -113
-55 -55 -65 -73 -89 -145 -73 -221 11 -451 200 -548 55 -28 64 -30 179 -30
118 0 121 1 195 37 93 46 169 121 212 208 30 61 32 71 31 170 -1 128 -21 187
-91 272 -44 53 -100 102 -127 111 -6 2 6 37 28 83 57 117 119 155 203 123 41
-15 71 -47 104 -109 48 -93 69 -111 69 -61 0 16 15 51 33 77 59 90 145 92 228
8 45 -46 79 -57 79 -26 0 10 -11 51 -25 91 -22 66 -23 76 -11 105 30 71 90 90
206 65 27 -6 54 -9 59 -7 5 2 -10 29 -35 61 -53 71 -70 124 -54 172 18 53 49
72 135 80 83 7 87 16 19 46 -65 29 -94 70 -94 133 0 66 28 111 89 145 41 22
43 25 26 38 -11 8 -45 13 -85 13 -73 0 -101 13 -125 60 -21 41 -19 113 6 161
11 23 19 43 17 45 -2 2 -37 -10 -77 -26 -81 -33 -98 -35 -135 -18 -39 17 -58
55 -66 130 -4 38 -11 72 -14 75 -4 4 -34 -23 -69 -60 l-62 -66 -75 25 c-57 19
-86 36 -120 70 -25 24 -49 44 -53 44 -4 0 -7 -21 -7 -46z m104 -89 c42 -30 58
-35 105 -35 38 0 73 8 108 24 l52 25 11 -33 c12 -37 40 -66 87 -90 35 -18 108
-22 118 -6 15 24 25 6 25 -46 0 -78 23 -119 87 -161 29 -18 53 -39 53 -46 0
-7 -9 -27 -20 -45 -26 -42 -25 -76 2 -158 l22 -67 -29 -21 c-74 -53 -78 -59
-76 -116 0 -37 9 -72 28 -110 16 -30 30 -58 31 -63 2 -4 -18 -5 -45 -1 -64 8
-125 -9 -162 -46 -40 -41 -46 -76 -23 -143 16 -43 17 -54 6 -50 -8 3 -14 9
-14 14 0 18 -66 42 -116 43 -41 0 -60 -5 -91 -27 -22 -15 -46 -39 -53 -52 -7
-14 -16 -25 -20 -25 -3 0 -16 18 -28 39 -27 47 -83 98 -118 107 -26 7 -91 1
-131 -12 -21 -6 -23 -3 -23 36 0 32 -7 51 -30 80 -31 39 -136 100 -173 100
-14 0 -17 4 -12 18 21 51 25 84 16 120 -11 38 -50 84 -83 95 -23 8 -23 24 0
31 28 9 58 46 71 88 11 32 10 43 -7 80 -11 24 -32 59 -46 78 l-26 34 59 16
c62 17 111 50 132 88 13 22 8 64 -16 141 -8 22 -6 23 26 15 19 -5 60 -9 92 -8
69 0 103 22 132 82 11 23 22 42 25 42 3 0 27 -16 54 -35z m-350 -1357 c91 -30
163 -94 208 -185 28 -58 33 -79 36 -163 4 -82 1 -104 -17 -145 -36 -81 -123
-188 -178 -217 -113 -62 -286 -77 -378 -34 -69 32 -128 93 -169 175 -34 66
-35 74 -37 188 -2 129 8 169 62 249 60 89 142 139 252 154 80 11 136 5 221
-22z"/>
<path d="M5162 7235 c8 -9 285 -11 305 -3 10 3 -56 7 -146 7 -90 1 -162 -1
-159 -4z"/>
<path d="M5593 7233 l-23 -4 0 -240 0 -239 136 0 136 0 -3 234 c-2 129 -8 238
-12 243 -9 9 -198 14 -234 6z m70 -31 c-3 -12 -12 -22 -20 -22 -14 0 -11 10
10 38 13 17 17 11 10 -16z m72 10 c-3 -7 -5 -18 -5 -23 0 -5 -7 -9 -16 -9 -11
0 -14 6 -10 23 l6 22 -11 -22 c-12 -23 -29 -31 -29 -14 0 5 7 16 15 25 19 18
58 17 50 -2z m40 1 c-5 -15 -4 -16 6 -5 19 18 31 15 20 -7 -6 -11 -21 -18 -36
-18 -28 0 -29 1 -15 28 13 24 35 25 25 2z m-165 -5 c0 6 7 12 15 12 13 0 12
-6 -5 -37 -12 -23 -16 -41 -10 -47 6 -6 5 -16 -1 -28 -6 -11 -8 -22 -5 -26 3
-3 6 0 6 6 0 7 7 12 15 12 13 0 12 -6 -5 -40 -11 -22 -22 -40 -23 -40 -2 0 -4
46 -5 102 0 67 2 97 8 88 7 -10 10 -11 10 -2z m207 -149 c0 -156 8 -130 -74
-266 -7 -13 -21 -23 -30 -23 -14 0 -13 3 5 20 12 12 22 29 22 38 0 10 4 22 9
28 10 11 61 102 61 110 0 3 -4 3 -9 -1 -19 -11 -22 15 -6 46 9 17 14 33 11 37
-3 3 -6 0 -6 -6 0 -7 -8 -12 -19 -12 -17 0 -17 3 6 47 14 28 19 49 13 51 -5 2
-10 10 -10 18 0 15 18 54 24 54 2 0 3 -64 3 -141z m-44 87 c9 -22 -2 -26 -75
-26 -61 0 -68 2 -68 20 0 18 7 20 69 20 50 0 70 -4 74 -14z m-103 -53 c0 -5
-9 -21 -20 -38 -12 -16 -27 -45 -36 -64 -8 -19 -17 -31 -21 -27 -8 8 58 136
70 136 4 0 7 -3 7 -7z m25 -25 c-8 -18 -10 -25 -3 -15 7 10 18 26 25 35 19 28
26 6 8 -27 -12 -24 -22 -31 -45 -31 l-30 0 17 35 c9 19 23 35 30 35 11 0 11
-6 -2 -32z m85 27 c0 -18 -33 -65 -45 -65 -12 0 -12 5 2 35 9 19 23 35 30 35
7 0 13 -2 13 -5z m-130 -100 c0 -8 -7 -15 -16 -15 -14 0 -14 3 -4 15 7 8 14
15 16 15 2 0 4 -7 4 -15z m40 6 c0 -12 -20 -25 -27 -18 -7 7 6 27 18 27 5 0 9
-4 9 -9z m40 0 c0 -12 -20 -25 -27 -18 -7 7 6 27 18 27 5 0 9 -4 9 -9z m44 -6
c-6 -16 -34 -21 -34 -7 0 13 11 22 26 22 8 0 11 -6 8 -15z m-144 -42 c0 -5 -9
-19 -20 -33 -21 -26 -27 -12 -10 21 10 19 30 26 30 12z m28 -5 c-2 -6 -10 -14
-16 -16 -7 -2 -10 2 -6 12 7 18 28 22 22 4z m42 3 c0 -12 -20 -25 -27 -18 -7
7 6 27 18 27 5 0 9 -4 9 -9z m45 -12 c-4 -5 -13 -9 -22 -9 -13 0 -13 3 -3 15
13 15 35 11 25 -6z m45 12 c0 -13 -29 -35 -37 -28 -7 8 15 37 28 37 5 0 9 -4
9 -9z m-160 -48 c0 -5 -9 -21 -20 -38 -22 -33 -27 -21 -8 20 10 23 28 34 28
18z m10 -66 c-17 -31 -36 -59 -41 -62 -18 -12 -8 31 16 67 14 20 25 41 25 47
0 11 24 21 28 12 1 -4 -12 -32 -28 -64z m70 43 c-6 -11 -16 -23 -24 -27 -7 -4
-16 -22 -19 -40 -5 -26 -3 -31 8 -26 8 3 15 1 15 -5 0 -5 -16 -10 -35 -10
l-35 0 21 37 c12 20 31 51 41 69 21 34 46 36 28 2z m38 -5 c-11 -25 -19 -30
-31 -19 -8 9 15 44 30 44 10 0 10 -6 1 -25z m82 9 c0 -24 -53 -114 -67 -114
-18 0 -17 4 20 71 32 59 47 73 47 43z m-115 -55 c10 -15 -1 -23 -20 -15 -9 3
-13 10 -10 16 8 13 22 13 30 -1z m115 -18 c0 -21 -13 -41 -26 -41 -11 0 -11 5
-2 25 11 24 28 34 28 16z"/>
<path d="M5083 7218 c-11 -18 -4 -361 8 -373 5 -5 38 -11 74 -13 56 -4 65 -7
65 -23 0 -15 -7 -19 -34 -19 -34 0 -55 -15 -41 -28 4 -4 10 -1 12 6 3 6 9 12
14 12 6 0 7 -4 4 -10 -3 -5 -2 -10 4 -10 5 0 12 6 14 13 3 7 6 5 6 -5 1 -16
14 -18 130 -18 119 0 129 1 134 19 6 26 0 31 -40 31 -23 0 -33 5 -33 15 0 12
13 15 58 15 91 0 92 1 99 178 4 112 3 152 -5 152 -9 0 -12 -40 -12 -135 l0
-135 -225 0 -225 0 0 160 c0 141 2 160 18 169 16 10 16 10 0 11 -9 0 -20 -6
-25 -12z m399 -360 c-7 -7 -12 -8 -12 -2 0 14 12 26 19 19 2 -3 -1 -11 -7 -17z
m56 10 c-2 -5 -8 -9 -13 -9 -5 0 -11 4 -13 9 -1 5 4 9 13 9 9 0 14 -4 13 -9z
m-388 -10 c0 -4 -4 -10 -10 -13 -5 -3 -10 -1 -10 5 0 6 -4 8 -10 5 -5 -3 -10
-2 -10 4 0 5 9 9 20 8 11 -1 20 -5 20 -9z m80 2 c0 -5 -13 -8 -30 -6 -16 2
-31 -2 -34 -8 -2 -6 -5 -4 -5 5 -1 11 9 16 34 17 19 1 35 -3 35 -8z m200 -2
c0 -6 -7 -8 -15 -4 -8 3 -15 2 -15 -2 0 -4 -18 -7 -40 -8 -22 0 -40 4 -40 9 0
5 -7 4 -15 -3 -12 -10 -15 -10 -15 0 0 10 -3 10 -15 0 -11 -9 -15 -9 -15 -1 0
7 -4 9 -10 6 -5 -3 -10 -2 -10 2 0 5 43 9 95 10 56 0 95 -4 95 -9z m30 2 c0
-5 -4 -10 -10 -10 -5 0 -10 5 -10 10 0 6 5 10 10 10 6 0 10 -4 10 -10z m-184
-39 c11 9 14 9 14 -1 0 -10 3 -10 15 0 12 10 15 10 15 -4 0 -12 -8 -15 -32
-13 -17 1 -33 8 -34 15 -1 7 0 8 3 2 3 -8 9 -7 19 1z m84 0 c0 -12 -20 -25
-27 -18 -7 7 6 27 18 27 5 0 9 -4 9 -9z m20 -6 c0 -8 -4 -15 -10 -15 -5 0 -7
7 -4 15 4 8 8 15 10 15 2 0 4 -7 4 -15z m-85 -45 c-3 -5 -11 -10 -16 -10 -6 0
-7 5 -4 10 3 6 11 10 16 10 6 0 7 -4 4 -10z m35 0 c0 -5 -4 -10 -10 -10 -5 0
-10 5 -10 10 0 6 5 10 10 10 6 0 10 -4 10 -10z m60 0 c0 -5 -4 -10 -10 -10 -5
0 -10 5 -10 10 0 6 5 10 10 10 6 0 10 -4 10 -10z m50 -2 c0 -3 -9 -6 -20 -5
-11 1 -20 5 -20 9 0 3 9 6 20 5 11 -1 20 -5 20 -9z"/>
<path d="M5515 7221 c11 -4 23 -19 27 -32 6 -21 7 -21 5 6 -2 24 -7 30 -27 32
-22 2 -22 2 -5 -6z"/>
<path d="M4773 6026 c-62 -20 -133 -65 -133 -83 0 -9 7 -25 16 -34 16 -18 18
-18 45 1 56 40 113 60 175 60 52 0 74 -6 133 -37 69 -35 72 -36 91 -18 20 18
20 18 -7 47 -45 47 -105 70 -196 74 -53 3 -97 -1 -124 -10z m227 -22 c48 -20
100 -57 100 -70 0 -16 -28 -26 -35 -13 -12 18 -101 57 -147 64 -61 9 -145 -9
-201 -45 -33 -21 -48 -25 -56 -17 -18 18 -13 25 32 51 93 55 218 67 307 30z"/>
<path d="M4808 5940 c-51 -9 -108 -43 -108 -64 0 -7 8 -21 19 -30 18 -16 21
-16 62 6 59 30 129 30 192 -2 48 -24 49 -24 63 -5 22 30 17 40 -34 68 -54 29
-126 39 -194 27z m155 -24 c52 -19 80 -45 66 -62 -8 -10 -19 -7 -52 12 -55 31
-130 32 -199 2 -42 -18 -51 -19 -59 -7 -10 16 8 33 56 55 39 17 139 17 188 0z"/>
<path d="M4804 5836 c-18 -8 -34 -18 -37 -23 -9 -15 33 -55 50 -49 40 16 66
17 93 6 26 -11 33 -10 50 5 27 25 25 38 -9 58 -35 20 -104 22 -147 3z m144
-20 c25 -25 3 -40 -40 -28 -25 7 -46 6 -71 -3 -30 -10 -39 -10 -48 1 -15 18
-4 32 34 43 42 13 106 6 125 -13z"/>
<path d="M4825 5726 c-34 -51 17 -112 72 -87 63 29 46 111 -22 111 -25 0 -39
-6 -50 -24z m85 0 c18 -22 8 -59 -19 -73 -48 -23 -88 30 -50 68 23 23 52 25
69 5z"/>
<path d="M3959 7633 c-56 -61 -33 -71 27 -12 24 24 44 47 44 51 0 21 -32 3
-71 -39z"/>
<path d="M3215 7651 c-7 -12 104 -93 116 -85 17 10 9 23 -37 59 -48 36 -68 42
-79 26z"/>
<path d="M4008 7585 c-25 -18 -49 -39 -53 -45 -25 -40 57 -5 105 45 29 30 31
35 14 35 -10 0 -40 -16 -66 -35z"/>
<path d="M3180 7591 c0 -23 38 -49 83 -58 l32 -6 -25 28 c-22 24 -70 55 -85
55 -3 0 -5 -8 -5 -19z"/>
<path d="M3557 7556 c-128 -46 -207 -160 -207 -300 0 -73 -3 -71 95 -81 33 -4
80 -16 105 -27 61 -27 125 -27 181 0 34 16 64 22 117 22 60 0 73 3 82 19 13
25 13 81 0 81 -5 0 -10 -4 -10 -9 0 -20 -42 -81 -52 -75 -5 4 -3 13 6 23 9 10
16 25 16 33 0 9 6 31 14 49 11 27 15 30 19 13 2 -10 5 -2 6 19 1 53 -20 98
-74 156 -76 81 -198 112 -298 77z m63 -11 c0 -8 -9 -19 -20 -25 -15 -8 -20 -8
-20 3 0 14 19 37 32 37 4 0 8 -7 8 -15z m40 1 c0 -8 -7 -16 -15 -20 -15 -5
-21 14 -8 27 11 12 23 8 23 -7z m40 -7 c0 -5 -7 -9 -15 -9 -15 0 -20 12 -9 23
8 8 24 -1 24 -14z m-130 -3 c0 -16 -26 -46 -40 -46 -5 0 -7 8 -5 18 3 9 -1 5
-8 -11 -7 -15 -23 -34 -35 -43 -20 -14 -21 -14 -17 3 11 39 -49 -96 -71 -161
-23 -67 -33 -116 -13 -68 8 22 10 22 25 7 18 -17 12 -45 -9 -45 -21 0 -37 22
-37 51 0 28 47 165 75 220 9 17 22 28 29 26 7 -3 18 4 24 14 10 15 47 38 80
48 1 1 2 -5 2 -13z m165 4 c3 -5 15 -10 26 -10 19 0 26 -15 10 -24 -12 -8 -61
17 -61 32 0 14 16 16 25 2z m75 -46 c0 -8 -7 -14 -15 -14 -17 0 -18 2 -9 24 7
18 24 12 24 -10z m-49 -18 l41 -27 -60 -60 c-41 -40 -65 -57 -76 -53 -29 11
-63 -5 -76 -37 -11 -27 -11 -33 7 -57 40 -54 115 -29 117 40 1 27 12 47 53 91
40 44 53 54 62 43 19 -23 38 -80 45 -133 l7 -53 -71 0 c-57 0 -77 -4 -101 -22
-38 -28 -90 -28 -127 -1 -19 14 -54 24 -98 30 l-69 8 3 40 c15 170 210 278
343 191z m79 -6 c0 -11 -4 -20 -9 -20 -14 0 -23 18 -16 30 10 17 25 11 25 -10z
m30 -29 c0 -23 -16 -36 -25 -21 -9 14 1 40 15 40 5 0 10 -9 10 -19z m24 -30
c8 -12 -3 -41 -15 -41 -5 0 -9 11 -9 25 0 25 14 34 24 16z m12 -88 l-15 -28
-1 36 c0 41 10 57 22 34 6 -9 3 -25 -6 -42z m-282 -39 c-13 -29 -18 -34 -21
-21 -5 18 24 73 33 64 3 -3 -3 -22 -12 -43z m53 28 c10 -6 10 -16 1 -45 -6
-20 -16 -37 -21 -37 -5 0 -6 8 -2 18 15 37 14 55 -1 20 -16 -37 -43 -56 -29
-20 4 9 12 29 17 45 11 29 16 31 35 19z m23 -47 c0 -8 -4 -15 -10 -15 -5 0 -7
7 -4 15 4 8 8 15 10 15 2 0 4 -7 4 -15z m216 -83 c-12 -11 -18 7 -10 30 l8 23
4 -23 c2 -13 1 -26 -2 -30z m-448 26 c-3 -7 -14 -14 -26 -16 -16 -3 -20 1 -16
12 7 19 48 22 42 4z m42 -2 c0 -18 -16 -29 -30 -21 -13 8 -1 35 16 35 8 0 14
-6 14 -14z m250 -16 c-7 -12 -18 -19 -26 -16 -7 3 -18 -3 -24 -14 -6 -11 -17
-20 -26 -20 -24 0 2 39 31 46 13 3 30 12 36 20 17 20 23 10 9 -16z m50 15 c0
-8 -7 -15 -15 -15 -26 0 -18 20 13 29 1 1 2 -6 2 -14z m40 0 c0 -8 -7 -15 -16
-15 -14 0 -14 3 -4 15 7 8 14 15 16 15 2 0 4 -7 4 -15z m-296 -10 c-4 -8 -12
-15 -20 -15 -8 0 -14 7 -14 15 0 8 9 15 20 15 13 0 18 -5 14 -15z m29 -11 c9
-9 -4 -35 -14 -28 -5 3 -9 12 -9 20 0 14 12 19 23 8z m37 -29 c0 -8 -7 -15
-15 -15 -16 0 -20 12 -8 23 11 12 23 8 23 -8z m50 11 c0 -16 -14 -36 -26 -36
-14 0 -19 22 -7 33 7 8 33 10 33 3z"/>
<path d="M3640 7439 c0 -31 4 -48 10 -44 6 3 10 26 10 51 0 24 -4 44 -10 44
-5 0 -10 -23 -10 -51z"/>
<path d="M3500 7423 c0 -16 60 -77 68 -69 3 4 -11 23 -31 44 -20 20 -37 31
-37 25z"/>
<path d="M3430 7270 c0 -6 19 -9 46 -6 64 6 68 16 6 16 -29 0 -52 -5 -52 -10z"/>
<path d="M3789 7270 c19 -5 44 -4 55 0 15 6 5 9 -34 8 -50 0 -52 -1 -21 -8z"/>
<path d="M4053 7435 c-60 -27 -72 -51 -21 -40 49 11 118 43 118 55 0 17 -42
11 -97 -15z"/>
<path d="M3137 7422 c-29 -6 -13 -26 25 -33 41 -6 70 2 60 17 -8 12 -57 22
-85 16z"/>
<path d="M4043 7370 c-13 -5 -23 -15 -23 -21 0 -8 17 -10 58 -6 66 7 92 15 92
28 0 12 -98 11 -127 -1z"/>
<path d="M3138 7353 c-16 -3 -28 -11 -28 -19 0 -10 14 -14 54 -14 49 0 79 12
59 23 -16 9 -59 13 -85 10z"/>
<path d="M4353 7301 c-51 -20 -93 -41 -93 -47 0 -11 108 -93 158 -118 30 -16
32 -16 32 2 0 10 -17 31 -37 45 -21 15 -33 27 -27 27 6 0 78 -13 159 -30 160
-32 185 -35 185 -20 0 13 -80 35 -229 64 -68 14 -125 27 -128 30 -3 2 10 11
28 19 19 8 45 26 58 41 22 24 23 26 5 25 -10 -1 -61 -18 -111 -38z"/>
<path d="M2744 7310 c-68 -10 -140 -43 -155 -71 -27 -50 10 -280 62 -380 38
-76 125 -99 233 -61 80 28 91 51 91 190 0 141 -24 250 -64 293 -30 32 -85 42
-167 29z m142 -29 c25 -15 34 -31 49 -87 10 -38 20 -74 22 -81 4 -11 -10 -14
-118 -29 -41 -5 -47 -4 -52 15 -3 11 1 25 8 31 22 18 8 101 -21 125 -38 33
-31 45 29 45 33 0 63 -7 83 -19z m-151 -1 c4 -6 1 -17 -5 -26 -18 -21 -7 -101
19 -128 37 -39 28 -51 -55 -70 -59 -14 -78 -15 -84 -6 -13 22 -21 159 -10 179
5 11 34 29 62 40 63 24 65 24 73 11z m46 -85 c4 -22 3 -41 -2 -43 -10 -4 -20
-3 -16 1 1 2 -4 11 -12 20 -7 10 -11 17 -7 17 3 0 1 12 -4 26 -9 23 -8 25 12
22 18 -2 24 -12 29 -43z m165 -127 c-4 6 -3 12 2 12 10 0 24 -41 17 -48 -2 -3
-16 3 -31 12 -14 10 -28 15 -31 12 -3 -3 11 -15 31 -27 20 -11 36 -27 36 -35
0 -9 -20 -2 -60 23 -63 40 -76 58 -36 51 14 -3 30 -1 38 3 7 4 19 3 27 -4 12
-9 13 -9 7 1z m-45 -55 c38 -27 69 -54 69 -60 0 -19 -5 -17 -90 43 -44 31 -80
53 -80 51 0 -3 38 -33 85 -67 47 -34 83 -66 79 -71 -6 -11 -6 -11 -104 56 -86
59 -100 68 -100 61 0 -2 43 -35 95 -72 52 -38 95 -74 95 -81 0 -7 -2 -13 -5
-13 -3 0 -50 34 -106 75 -92 69 -139 100 -139 93 0 -2 52 -41 115 -88 63 -47
115 -90 115 -97 0 -27 -29 -16 -85 32 -33 28 -91 73 -130 99 -83 57 -64 39 74
-67 56 -43 101 -82 101 -87 0 -5 -20 -12 -45 -16 -44 -6 -47 -5 -113 51 l-67
57 59 -57 c32 -31 56 -58 54 -61 -6 -5 -69 16 -85 29 -7 5 -13 14 -13 20 0 5
8 4 18 -4 10 -8 6 -3 -10 11 -30 28 -55 81 -63 134 l-6 34 55 12 c31 6 60 9
66 5 5 -3 10 -2 10 4 0 8 19 14 68 20 8 0 45 -20 83 -46z"/>
<path d="M2640 6977 c0 -8 201 -169 206 -165 2 3 -37 38 -88 79 -95 77 -118
93 -118 86z"/>
<path d="M4041 7221 c-21 -13 21 -33 77 -34 45 -2 70 17 35 26 -43 13 -99 17
-112 8z"/>
<path d="M3178 7190 c-69 -37 -64 -63 6 -31 26 11 46 27 46 35 0 20 -7 20 -52
-4z"/>
<path d="M4009 7156 c19 -23 85 -56 110 -56 61 0 -4 51 -84 66 -37 7 -39 6
-26 -10z"/>
<path d="M3193 7119 c-29 -19 -45 -49 -25 -49 15 1 86 45 90 58 6 19 -29 14
-65 -9z"/>
<path d="M1930 7106 c-30 -12 -55 -26 -55 -32 0 -5 -26 -34 -56 -66 -31 -31
-68 -80 -83 -109 -22 -46 -26 -66 -26 -143 0 -182 64 -311 182 -370 62 -31
159 -34 303 -11 117 19 223 19 281 -1 25 -8 48 -13 51 -11 3 3 -8 27 -23 53
-26 44 -28 57 -35 213 -5 91 -11 182 -14 201 -14 76 -85 172 -172 231 -50 35
-175 69 -247 69 -29 -1 -75 -11 -106 -24z m302 -48 c72 -33 120 -77 165 -151
l38 -62 6 -180 c4 -131 9 -190 21 -216 l15 -35 -87 4 c-57 3 -115 -1 -167 -12
-44 -9 -126 -16 -183 -16 l-103 0 -51 39 c-89 69 -146 194 -146 321 0 101 86
240 181 291 100 53 217 60 311 17z"/>
<path d="M1936 6962 c-3 -5 -6 -37 -7 -72 -2 -58 -4 -63 -30 -72 -31 -11 -44
-52 -33 -107 5 -25 13 -33 35 -38 29 -5 29 -6 29 -79 l0 -73 34 -7 c41 -7 292
-2 300 7 4 3 9 75 13 161 l6 154 -59 67 -59 66 -112 1 c-61 0 -114 -4 -117 -8z
m194 -66 l5 -61 63 -3 63 -3 -3 -147 -3 -147 -105 -5 c-58 -3 -127 -3 -155 0
l-50 5 0 65 -1 65 96 5 95 5 0 70 0 70 -97 3 -98 3 0 63 c0 34 3 66 7 70 4 4
46 6 93 5 l85 -2 5 -61z m120 -46 c0 -3 -22 -5 -50 -5 l-50 0 0 55 0 54 50
-49 c28 -27 50 -52 50 -55z m-330 -57 c-1 -5 -10 -24 -20 -43 l-19 -35 2 37
c1 20 5 34 10 31 4 -2 7 1 7 6 0 6 5 11 10 11 6 0 10 -3 10 -7z m30 2 c0 -4
-41 -94 -47 -104 -2 -2 -5 -2 -8 1 -7 7 36 108 46 108 5 0 9 -2 9 -5z m167 -6
c16 -16 -25 -99 -49 -99 -22 0 -22 -3 -3 50 8 24 13 45 11 47 -2 2 -12 -19
-22 -46 -15 -42 -22 -50 -41 -49 -13 2 -23 3 -23 4 0 1 7 21 15 44 8 24 13 45
11 47 -2 2 -12 -19 -22 -47 -10 -27 -24 -50 -31 -50 -17 0 -17 4 8 51 11 23
18 43 16 46 -3 2 -17 -21 -31 -53 -33 -72 -46 -64 -15 10 l23 56 71 0 c39 0
76 -5 82 -11z m13 -66 c0 -14 -19 -38 -25 -32 -8 8 5 39 16 39 5 0 9 -3 9 -7z"/>
<path d="M2027 6755 c-9 -20 -17 -41 -16 -48 0 -7 9 8 20 32 23 53 20 66 -4
16z"/>
<path d="M2087 6748 c-9 -23 -15 -43 -13 -45 2 -2 11 15 20 38 9 23 15 43 13
45 -2 2 -11 -15 -20 -38z"/>
<path d="M6587 7060 c-48 -10 -89 -19 -91 -21 -1 -2 2 -24 7 -48 6 -30 15 -45
28 -48 24 -7 25 -20 2 -27 -66 -19 -94 -18 -115 3 -16 18 -26 21 -51 15 -43
-9 -47 -12 -47 -35 0 -11 -7 -22 -16 -26 -8 -3 -13 -12 -10 -20 3 -8 2 -12 -3
-8 -21 12 -21 -60 -1 -171 23 -131 48 -184 85 -184 30 0 454 86 489 100 14 5
26 17 26 27 0 35 -62 319 -73 331 -7 9 -28 13 -64 10 -36 -2 -53 1 -53 9 0 6
6 13 12 15 29 10 -2 103 -31 97 -3 -1 -46 -9 -94 -19z m121 -37 c3 -30 2 -31
-50 -43 -29 -6 -72 -14 -94 -17 -41 -5 -41 -5 -46 28 -6 39 3 48 52 50 19 0
46 5 60 9 14 5 36 8 50 7 20 -2 26 -8 28 -34z m-36 -75 c-7 -7 -12 -8 -12 -2
0 14 12 26 19 19 2 -3 -1 -11 -7 -17z m-27 2 c-3 -5 -11 -10 -16 -10 -6 0 -7
5 -4 10 3 6 11 10 16 10 6 0 7 -4 4 -10z m-40 -10 c-3 -5 -16 -10 -28 -9 -21
0 -21 1 -2 9 28 12 37 12 30 0z m195 0 c19 -10 19 -12 3 -45 -18 -37 -39 -48
-29 -15 16 52 16 64 -1 33 -14 -29 -33 -44 -33 -28 0 10 30 65 36 65 3 0 14
-5 24 -10z m-62 -25 c-6 -14 -15 -22 -20 -17 -12 12 1 42 18 42 11 0 11 -5 2
-25z m-328 -11 c0 -9 -11 -14 -30 -14 -16 0 -33 0 -37 0 -5 0 -8 6 -8 12 0 12
53 28 68 21 4 -2 7 -11 7 -19z m290 18 c0 -13 -12 -22 -22 -16 -10 6 -1 24 13
24 5 0 9 -4 9 -8z m-80 -12 c0 -5 -5 -10 -11 -10 -5 0 -7 5 -4 10 3 6 8 10 11
10 2 0 4 -4 4 -10z m-40 -21 c0 -6 -6 -9 -13 -6 -16 6 -34 -26 -78 -141 -24
-62 -35 -79 -41 -68 -6 10 -2 29 12 55 11 22 20 44 20 49 0 5 11 35 25 66 21
47 29 56 50 56 14 0 25 -5 25 -11z m-72 -8 c-21 -53 -65 -141 -70 -141 -13 0
-9 26 12 76 11 26 18 49 16 52 -3 2 -13 -14 -22 -37 -17 -43 -34 -54 -34 -21
0 36 22 69 49 73 47 7 53 7 49 -2z m233 -18 c88 -52 78 -202 -15 -244 -53 -24
-80 -24 -132 1 -109 53 -93 216 26 263 23 9 91 -3 121 -20z m82 -6 c-3 -5 0
-19 7 -32 7 -13 9 -32 5 -42 -7 -17 -8 -17 -15 2 -4 11 -5 26 -2 34 3 8 1 12
-5 8 -17 -10 -24 21 -11 43 9 13 15 16 19 8 4 -7 5 -16 2 -21z m-443 6 c0 -5
-4 -14 -9 -22 -7 -11 -13 -12 -23 -3 -11 9 -18 9 -27 -1 -11 -10 -13 -9 -9 3
3 8 13 14 22 14 9 -1 16 2 16 7 0 5 7 9 15 9 8 0 15 -3 15 -7z m30 -5 c0 -19
-18 -43 -25 -36 -9 9 4 48 16 48 5 0 9 -6 9 -12z m-19 -69 c21 -23 43 -138 34
-178 -7 -33 -65 -77 -89 -68 -8 3 -16 31 -20 74 -4 38 -13 95 -20 127 -13 56
-13 58 8 66 28 11 67 2 87 -21z m431 -136 c-17 -41 -36 -69 -46 -71 -14 -3
-12 7 13 57 17 33 31 65 31 70 0 5 5 22 12 38 l12 28 4 -27 c2 -14 -10 -57
-26 -95z m-352 -56 c-23 -48 -45 -87 -50 -87 -13 0 -13 3 9 52 11 24 30 69 43
101 18 48 24 55 31 40 6 -13 -4 -44 -33 -106z m400 83 c0 -30 -32 -90 -48 -90
-7 0 -12 3 -10 8 2 4 12 30 23 59 19 50 35 61 35 23z m-364 -103 c-14 -33 -31
-57 -40 -57 -11 0 -8 16 17 77 26 63 32 73 40 56 6 -14 1 -36 -17 -76z m370
26 c-11 -11 -19 6 -11 24 8 17 8 17 12 0 3 -10 2 -21 -1 -24z m-331 -33 c-20
-45 -52 -59 -35 -15 6 14 15 37 20 52 8 19 14 23 22 15 8 -8 7 -22 -7 -52z
m205 20 c-11 -20 -30 -28 -30 -12 0 11 22 32 32 32 5 0 4 -9 -2 -20z m-150 5
c0 -16 -26 -55 -37 -55 -16 0 -17 14 -3 41 9 16 40 28 40 14z m28 -22 c-2 -10
-11 -19 -21 -21 -16 -3 -17 -1 -7 17 13 25 33 28 28 4z m79 5 c-2 -7 -12 -13
-23 -13 -10 -1 -25 -4 -32 -8 -8 -5 -12 -2 -12 9 0 11 6 15 20 11 11 -3 23 -1
26 4 8 14 26 11 21 -3z m-307 -45 c-1 -19 -19 -35 -30 -28 -10 6 -9 11 5 22
22 15 25 16 25 6z"/>
<path d="M6580 6830 c-89 -95 -5 -239 116 -200 70 23 101 97 69 164 -21 44
-59 66 -115 66 -34 0 -48 -6 -70 -30z m125 0 c11 -18 -60 -41 -91 -30 -22 9
-24 13 -14 25 14 17 95 21 105 5z m40 -40 c22 -42 19 -74 -11 -109 -67 -80
-188 -26 -169 76 l6 31 52 -5 c43 -4 56 -2 77 16 14 11 26 20 27 21 1 0 9 -13
18 -30z"/>
<path d="M3960 7038 c0 -14 79 -98 93 -98 17 0 4 29 -25 56 -56 51 -68 59 -68
42z"/>
<path d="M3286 6981 c-52 -53 -38 -77 15 -25 36 35 50 64 31 64 -4 0 -25 -18
-46 -39z"/>
<path d="M3905 7000 c-4 -6 16 -34 44 -63 55 -56 71 -46 24 15 -34 44 -60 62
-68 48z"/>
<path d="M3350 6938 c-29 -40 -41 -86 -19 -73 17 11 69 87 69 102 0 24 -20 13
-50 -29z"/>
<path d="M3790 6910 c0 -17 8 -45 17 -63 l18 -32 3 26 c4 36 -11 92 -26 97 -8
2 -12 -8 -12 -28z"/>
<path d="M3522 6918 c-12 -16 -44 -120 -38 -126 14 -14 66 79 66 118 0 23 -13
26 -28 8z"/>
<path d="M3727 6913 c-7 -11 8 -107 19 -125 14 -22 26 12 20 55 -7 49 -29 87
-39 70z"/>
<path d="M3583 6899 c-16 -20 -28 -129 -15 -129 20 0 33 40 30 92 -2 40 -5 48
-15 37z"/>
<path d="M4145 6754 c-55 -14 -110 -32 -123 -40 -22 -14 -24 -21 -18 -62 8
-60 50 -234 82 -339 l25 -81 39 41 c38 41 40 41 40 16 0 -28 -51 -84 -65 -72
-4 5 -6 2 -3 -6 10 -33 34 -34 158 -7 143 32 170 41 170 58 0 9 -3 9 -12 0 -7
-7 -20 -12 -31 -12 -17 0 -17 2 5 29 13 15 27 26 32 23 5 -3 6 12 2 34 -14 77
-96 405 -106 424 -15 27 -68 25 -195 -6z m183 -2 c2 -7 -4 -15 -13 -18 -20 -8
-27 -1 -19 20 7 18 25 17 32 -2z m-84 -14 c-10 -33 -44 -53 -44 -26 0 14 30
48 42 48 5 0 6 -10 2 -22z m39 3 c-3 -11 -12 -22 -20 -25 -11 -5 -13 -2 -9 10
3 8 6 20 6 25 0 5 6 9 14 9 9 0 12 -7 9 -19z m-89 -13 c-7 -23 -21 -38 -37
-38 -11 0 3 43 17 52 20 14 27 8 20 -14z m-53 -22 c-6 -14 -17 -26 -26 -26
-27 0 -15 42 15 52 21 7 22 4 11 -26z m200 -19 c-8 -8 -11 -3 -11 19 1 25 2
27 11 11 8 -14 8 -22 0 -30z m-248 13 c-6 -22 -21 -35 -29 -27 -7 7 15 47 25
47 5 0 7 -9 4 -20z m-48 -20 c-12 -23 -13 -34 -4 -49 7 -11 9 -26 4 -37 -6
-15 -10 -8 -17 29 -9 48 2 87 23 87 5 0 3 -13 -6 -30z m289 -75 c14 -57 26
-111 26 -118 0 -10 -34 -23 -105 -41 -57 -14 -113 -26 -123 -26 -16 0 -23 18
-46 112 -14 61 -24 113 -22 115 3 4 224 62 237 63 4 0 18 -47 33 -105z m26 44
c0 -11 -4 -17 -10 -14 -5 3 -10 13 -10 21 0 8 5 14 10 14 6 0 10 -9 10 -21z
m10 -56 c-1 -24 -2 -26 -11 -10 -5 9 -7 22 -4 27 10 17 15 11 15 -17z m-310
-96 c-10 -10 -11 -6 -8 15 3 15 0 29 -5 31 -7 2 -7 11 -2 23 7 16 9 13 18 -19
7 -29 6 -42 -3 -50z m330 31 c0 -5 -4 -8 -10 -8 -5 0 -10 10 -10 23 0 18 2 19
10 7 5 -8 10 -18 10 -22z m10 -58 c0 -13 -1 -13 -10 0 -5 8 -10 22 -10 30 0
13 1 13 10 0 5 -8 10 -22 10 -30z m-294 -70 c16 0 19 -16 4 -25 -5 -3 -10 -11
-10 -18 0 -6 15 3 33 20 22 21 46 32 77 37 42 6 44 5 25 -9 -11 -9 -25 -13
-31 -11 -7 3 -31 -15 -53 -40 -47 -50 -51 -52 -51 -25 0 11 -5 23 -10 26 -6 4
-8 15 -5 26 4 11 2 19 -5 19 -7 0 -10 8 -7 20 3 11 1 20 -4 20 -11 0 -12 34
-1 44 4 4 11 -13 16 -38 5 -29 13 -46 22 -46z m274 52 c0 -14 -49 -56 -57 -49
-3 4 4 18 17 32 24 25 40 32 40 17z m30 -19 c0 -10 -12 -31 -26 -47 -20 -22
-28 -26 -34 -16 -5 9 1 25 17 47 28 37 43 42 43 16z m-92 -5 c-3 -7 -15 -15
-28 -16 -21 -3 -22 -2 -11 12 16 19 44 21 39 4z m85 -146 c-20 -24 -42 -46
-50 -49 -17 -7 -31 5 -17 15 12 9 68 81 78 102 4 8 -7 0 -24 -18 -17 -19 -34
-32 -37 -29 -6 7 15 47 40 75 l21 22 12 -37 c13 -36 12 -39 -23 -81z m-79 86
c9 -12 16 -31 16 -41 0 -26 -45 -67 -74 -67 -27 0 -66 42 -66 71 0 54 93 81
124 37z m-135 -16 c-5 -16 -25 -44 -44 -62 -29 -29 -35 -31 -35 -15 0 15 74
105 87 105 1 0 -3 -13 -8 -28z m31 -100 c0 -14 -51 -62 -66 -62 -10 0 -5 12
17 40 28 34 49 44 49 22z m20 -37 c-12 -15 -40 -21 -40 -8 0 3 8 15 17 25 21
23 43 7 23 -17z m78 23 c-5 -15 -58 -30 -58 -17 0 5 10 14 23 19 31 12 39 12
35 -2z"/>
<path d="M4240 6337 c0 -13 6 -32 14 -43 15 -19 15 -19 30 1 22 29 19 44 -10
55 -34 13 -34 13 -34 -13z m40 -18 c0 -5 -4 -9 -10 -9 -5 0 -10 7 -10 16 0 8
5 12 10 9 6 -3 10 -10 10 -16z"/>
<path d="M2971 6525 c-150 -51 -252 -107 -309 -169 -64 -71 -136 -201 -174
-316 -31 -92 -32 -101 -32 -265 0 -157 2 -177 28 -260 15 -49 41 -117 59 -150
61 -115 254 -282 385 -334 80 -32 211 -51 347 -51 102 0 138 4 211 26 154 44
215 83 294 189 52 71 129 208 160 288 l27 67 37 -25 c96 -65 195 -160 261
-250 64 -88 139 -214 132 -221 -2 -2 -43 12 -92 31 -92 37 -115 41 -115 25 0
-11 119 -69 207 -100 35 -13 60 -27 57 -32 -3 -5 -48 -30 -100 -54 -106 -51
-213 -143 -321 -279 -35 -44 -72 -89 -82 -100 -30 -33 -48 -76 -85 -196 -46
-153 -60 -248 -60 -409 0 -125 3 -142 32 -231 18 -53 44 -114 58 -135 15 -22
46 -74 70 -117 l43 -78 -47 -30 c-59 -38 -278 -145 -313 -154 -24 -6 -31 -1
-60 42 -130 193 -267 281 -492 317 -153 25 -227 13 -368 -60 -76 -40 -134 -78
-176 -118 -71 -65 -138 -166 -138 -205 0 -15 -5 -25 -12 -24 -11 2 -20 -29
-38 -129 l-7 -38 -202 0 -202 0 -16 83 c-23 126 -58 194 -138 272 -75 72 -140
106 -239 126 -83 16 -260 1 -246 -21 3 -5 -3 -6 -12 -4 -19 5 -118 -55 -118
-71 0 -6 -21 -31 -47 -57 -84 -83 -123 -196 -116 -335 11 -208 177 -387 408
-439 65 -15 77 -15 135 -1 161 40 343 221 369 370 l7 37 200 0 c151 0 201 -3
203 -12 2 -7 12 -60 21 -118 36 -219 75 -308 164 -371 31 -22 88 -65 126 -95
97 -76 161 -95 343 -101 204 -8 260 6 377 95 137 104 248 233 287 334 36 97
33 324 -6 435 l-13 38 194 100 195 100 21 -30 c128 -176 315 -308 502 -355
108 -28 334 -42 467 -30 225 19 511 144 673 292 56 51 140 158 170 218 10 19
40 100 66 180 l48 145 67 -4 c53 -2 65 0 62 10 -3 8 -28 18 -60 22 l-55 9 -6
131 c-10 259 -105 533 -245 708 -204 257 -546 431 -842 431 -58 0 -136 -7
-175 -15 -38 -9 -83 -13 -100 -10 -23 3 -27 2 -15 -6 9 -6 10 -11 3 -11 -6 0
-20 -3 -30 -6 -15 -5 -16 -4 -3 6 13 10 12 11 -3 6 -10 -3 -21 -6 -23 -6 -3 0
-2 -4 1 -10 3 -5 0 -7 -9 -4 -8 3 -29 -2 -46 -11 l-32 -17 4 34 c3 18 13 77
23 130 16 86 16 123 0 106 -3 -3 -14 -40 -25 -84 -30 -116 -28 -114 -58 -59
-71 129 -257 342 -372 426 l-57 43 -6 165 c-5 177 -20 249 -75 356 -71 142
-202 278 -343 358 -126 71 -190 88 -349 93 -134 5 -136 5 -239 -31z m373 -32
c32 -8 86 -27 120 -43 33 -15 82 -37 108 -48 62 -27 145 -89 196 -147 76 -87
145 -256 172 -420 30 -188 -77 -487 -237 -665 -53 -59 -93 -82 -218 -123 -83
-27 -101 -29 -236 -29 -194 1 -303 32 -445 130 -174 118 -303 355 -319 587
-16 234 102 516 265 631 116 83 209 126 300 139 96 15 207 10 294 -12z m1664
-1484 c116 -13 196 -40 362 -121 116 -56 132 -68 221 -157 183 -183 308 -425
349 -674 39 -239 -50 -511 -247 -754 -64 -80 -244 -207 -308 -219 -12 -2 -65
-22 -117 -43 -129 -54 -204 -72 -328 -78 -215 -11 -360 21 -575 129 -137 69
-257 213 -383 458 -106 208 -115 243 -116 440 -1 143 2 178 23 260 51 200 142
357 279 478 42 37 86 76 97 87 31 29 258 140 338 165 114 37 252 46 405 29z
m-1918 -1502 c8 -3 51 -13 95 -22 138 -29 177 -51 265 -149 86 -95 125 -150
116 -165 -3 -5 12 -44 35 -88 40 -78 40 -79 42 -198 2 -111 0 -125 -27 -190
-36 -89 -103 -191 -158 -241 -24 -22 -95 -69 -158 -106 -111 -63 -118 -66
-200 -72 -121 -9 -269 8 -328 38 -95 48 -240 175 -273 238 -25 49 -74 198 -90
273 -9 46 -10 84 -2 153 9 80 17 106 66 205 87 179 145 231 317 286 135 43
244 56 300 38z m-1523 -81 c28 -8 62 -21 74 -30 13 -8 32 -13 44 -10 14 3 32
-6 60 -31 l40 -37 -47 33 c-67 45 -68 32 -3 -19 69 -53 118 -127 151 -227 22
-68 25 -89 19 -149 -11 -107 -45 -165 -155 -263 -101 -91 -171 -123 -266 -123
-68 0 -170 32 -222 70 -23 16 -46 30 -51 30 -5 0 -22 15 -37 33 -144 164 -163
360 -49 531 104 156 283 234 442 192z m-322 -36 c-3 -5 -14 -10 -23 -10 -15 0
-15 2 -2 10 20 13 33 13 25 0z"/>
<path d="M2954 6226 c-14 -22 -18 -81 -26 -419 -7 -236 -7 -413 -2 -443 l9
-49 55 -7 c30 -3 152 -6 271 -7 190 -1 218 1 230 16 11 13 15 101 17 457 2
285 -1 446 -7 456 -9 13 -53 15 -270 18 l-260 3 -17 -25z m66 -14 c0 -5 -9
-17 -20 -27 -11 -10 -20 -16 -20 -12 0 3 -3 14 -6 24 -5 15 -4 15 5 3 8 -12
11 -12 17 3 6 17 24 24 24 9z m40 3 c0 -15 -33 -54 -41 -49 -5 3 -1 16 8 29
17 23 33 32 33 20z m40 -2 c0 -5 -9 -19 -20 -33 -24 -32 -38 -19 -13 14 18 25
33 33 33 19z m40 0 c-1 -10 -39 -60 -40 -51 0 14 23 58 32 58 4 0 8 -3 8 -7z
m40 -2 c0 -11 -39 -59 -40 -49 0 14 23 58 32 58 4 0 8 -4 8 -9z m50 2 c-1 -14
-39 -58 -45 -52 -9 10 17 59 32 59 7 0 13 -3 13 -7z m40 -2 c0 -5 -9 -19 -20
-32 -21 -26 -27 -10 -8 21 13 21 28 27 28 11z m33 -21 c-15 -26 -33 -40 -33
-25 0 17 26 55 37 55 11 0 11 -6 -4 -30z m57 25 c0 -12 -33 -55 -41 -55 -5 0
-3 14 6 30 13 26 35 41 35 25z m40 -7 c-1 -16 -28 -53 -35 -47 -6 7 18 59 28
59 4 0 7 -6 7 -12z m35 -18 c-9 -16 -20 -30 -25 -30 -14 0 -13 7 6 35 23 35
38 31 19 -5z m45 12 c0 -5 -7 -17 -15 -28 -15 -19 -20 -8 -9 20 6 17 24 22 24
8z m6 -160 c-2 -48 -4 -198 -5 -334 l-1 -248 -266 0 -265 0 6 328 c4 180 8
332 10 337 1 6 96 9 263 7 l261 -3 -3 -87z m-486 -617 c0 -14 -42 -86 -47 -81
-8 8 27 86 39 86 4 0 8 -2 8 -5z m24 -42 c-34 -59 -33 -58 -39 -51 -10 9 38
98 52 98 10 0 5 -15 -13 -47z m41 -3 c-14 -27 -29 -50 -35 -50 -14 0 33 99 48
100 8 0 4 -17 -13 -50z m60 0 c-14 -27 -32 -50 -40 -50 -19 0 -19 1 7 55 14
29 29 45 40 45 17 0 16 -4 -7 -50z m72 44 c-3 -3 -12 -4 -19 -1 -8 3 -5 6 6 6
11 1 17 -2 13 -5z m56 -1 c-7 -2 -19 -2 -25 0 -7 3 -2 5 12 5 14 0 19 -2 13
-5z m51 -8 c-4 -8 -10 -15 -15 -15 -5 0 -9 7 -9 15 0 8 7 15 15 15 9 0 12 -6
9 -15z m111 -21 c-6 -19 -19 -43 -29 -52 -15 -15 -18 -15 -27 -2 -8 11 -12 12
-16 3 -10 -27 -21 -11 -13 20 7 26 7 29 -3 14 -28 -43 -36 -52 -42 -45 -4 3 5
27 20 52 26 44 28 46 75 46 l48 0 -13 -36z m65 2 c0 -40 -8 -66 -21 -66 -6 0
-5 8 1 19 22 43 2 43 -22 1 -16 -28 -38 -41 -38 -21 0 5 12 29 26 55 31 56 54
61 54 12z m-320 -52 c0 -8 -9 -14 -20 -14 -17 0 -19 3 -8 19 13 21 28 19 28
-5z m50 -4 c0 -5 -7 -10 -16 -10 -8 0 -12 5 -9 10 3 6 10 10 16 10 5 0 9 -4 9
-10z m47 -6 c-3 -3 -12 -4 -19 -1 -8 3 -5 6 6 6 11 1 17 -2 13 -5z"/>
<path d="M4239 4523 c-22 -3 -28 -11 -33 -41 -3 -20 -6 -211 -6 -424 l0 -388
-69 0 -69 0 -3 -44 c-2 -24 -2 -67 -1 -95 l4 -51 171 -2 c95 -1 181 0 192 2
11 2 304 4 651 4 541 1 633 3 649 16 15 13 17 25 11 89 -3 41 -10 79 -15 84
-5 5 -43 7 -85 5 l-76 -3 -6 44 c-8 51 2 684 11 721 5 18 0 33 -13 50 -18 23
-27 24 -178 31 -164 8 -1089 9 -1135 2z m21 -53 c0 -5 -4 -10 -10 -10 -5 0
-10 5 -10 10 0 6 5 10 10 10 6 0 10 -4 10 -10z m68 -9 c-7 -11 -20 -22 -30
-24 -11 -3 -18 -15 -18 -29 0 -12 -7 -31 -14 -40 -36 -48 -35 11 2 68 19 31
34 44 50 44 19 0 21 -2 10 -19z m92 11 c0 -17 -25 -32 -52 -32 -26 0 -28 2
-18 20 10 20 70 30 70 12z m65 -12 c-18 -20 -55 -28 -55 -12 0 16 24 32 49 32
23 0 24 -1 6 -20z m85 12 c0 -14 -23 -32 -42 -32 -20 0 -21 1 -12 24 6 16 54
23 54 8z m63 -12 c-15 -17 -43 -28 -43 -16 0 20 16 36 36 36 23 0 23 -1 7 -20z
m87 0 c-7 -13 -21 -20 -40 -20 -28 0 -29 2 -18 20 8 12 24 20 41 20 25 0 27
-2 17 -20z m68 0 c-7 -11 -21 -20 -31 -20 -15 0 -16 3 -7 20 6 11 20 20 30 20
18 0 19 -3 8 -20z m67 0 c-16 -17 -45 -28 -45 -16 0 20 17 36 38 36 24 0 25 0
7 -20z m58 -2 c-24 -23 -40 -20 -30 7 4 8 17 15 29 15 l22 0 -21 -22z m67 2
c-9 -17 -40 -29 -40 -16 0 18 15 36 31 36 17 0 18 -3 9 -20z m80 11 c0 -15
-29 -33 -45 -27 -22 8 -6 36 21 36 13 0 24 -4 24 -9z m65 -11 c-21 -23 -45
-26 -45 -7 0 20 10 27 38 27 24 0 25 -1 7 -20z m85 12 c0 -14 -23 -32 -42 -32
-20 0 -21 1 -12 24 6 16 54 23 54 8z m78 -9 c-2 -11 -14 -19 -31 -21 -29 -4
-30 -2 -21 22 9 23 56 21 52 -1z m82 13 c0 -20 -16 -36 -36 -36 -26 0 -30 10
-12 28 11 11 48 17 48 8z m73 -2 c11 -12 -18 -44 -40 -44 -27 0 -29 7 -6 32
16 18 35 23 46 12z m57 -12 c0 -4 -11 -23 -25 -42 -20 -27 -26 -30 -31 -16 -8
20 21 66 41 66 8 0 15 -4 15 -8z m20 -50 c0 -18 -14 -47 -37 -77 -33 -42 -38
-45 -41 -27 -2 13 11 40 32 68 20 26 36 51 36 55 0 5 2 9 5 9 3 0 5 -13 5 -28z
m-186 -19 l69 -6 -6 -236 c-4 -130 -7 -265 -7 -301 l0 -65 -523 -3 c-429 -3
-525 -1 -533 10 -6 8 -8 130 -6 311 l4 297 466 0 c257 0 498 -3 536 -7z
m-1071 -140 l-18 -27 -3 26 c-2 15 5 42 15 60 l18 33 3 -32 c2 -19 -4 -43 -15
-60z m1215 -19 c-28 -39 -33 -43 -36 -26 -2 12 11 43 30 69 29 42 33 45 36 26
2 -14 -10 -42 -30 -69z m-1215 -91 l-18 -27 -3 27 c-2 16 5 40 15 55 l18 27 3
-27 c2 -15 -5 -39 -15 -55z m1210 -30 c-23 -30 -29 -33 -32 -18 -2 10 10 43
25 72 l29 53 3 -35 c2 -26 -4 -44 -25 -72z m-1210 -71 l-18 -27 -3 27 c-2 15
5 39 15 55 l18 27 3 -27 c2 -16 -5 -40 -15 -55z m1208 -30 c-28 -43 -31 -45
-31 -20 0 14 12 45 28 68 24 37 27 40 30 21 2 -13 -10 -43 -27 -69z m-1208
-89 l-18 -27 -3 37 c-2 24 3 45 15 61 l18 24 3 -33 c2 -20 -4 -45 -15 -62z
m1210 -8 c-52 -63 -59 -36 -10 40 31 49 32 49 35 22 2 -19 -5 -38 -25 -62z m0
-90 c-52 -65 -59 -37 -10 39 31 49 32 50 35 24 2 -18 -6 -39 -25 -63z m-1210
-12 l-18 -27 -3 31 c-2 19 4 44 15 60 l18 27 3 -31 c2 -19 -4 -44 -15 -60z
m1237 -20 c-1 -18 -15 -44 -40 -72 l-39 -45 -120 -2 c-67 -2 -121 -1 -121 2 0
2 15 20 33 38 27 27 39 32 65 28 26 -3 30 -7 21 -18 -7 -8 -7 -14 -1 -14 5 0
15 7 22 15 13 15 42 20 53 8 4 -3 2 -12 -5 -20 -6 -7 -7 -17 -3 -21 4 -4 35
23 69 60 33 37 62 67 64 68 1 0 2 -12 2 -27z m-1200 -46 c0 -16 -51 -79 -58
-72 -12 11 0 80 16 98 16 17 17 17 29 1 7 -10 13 -22 13 -27z m902 -2 c3 -3
-10 -21 -28 -40 -32 -35 -33 -35 -119 -35 l-86 0 28 35 c24 29 34 35 68 35 30
0 36 -3 27 -12 -16 -16 -15 -28 3 -28 8 0 19 9 25 19 11 21 69 39 82 26z
m-822 -10 c0 -19 -47 -65 -67 -65 -28 0 -28 4 -2 41 13 18 29 29 45 29 13 0
24 -2 24 -5z m100 0 c0 -3 -10 -19 -22 -35 -15 -21 -30 -30 -50 -30 -33 0 -34
3 -7 41 14 21 29 29 50 29 16 0 29 -2 29 -5z m100 -7 c-1 -7 -9 -23 -20 -36
-15 -18 -27 -23 -54 -20 l-36 3 26 33 c18 23 34 32 55 32 17 0 29 -5 29 -12z
m110 3 c0 -4 -12 -18 -25 -33 -16 -19 -34 -28 -55 -28 -36 0 -36 2 -10 38 16
21 29 28 55 28 19 0 35 -2 35 -5z m100 1 c0 -5 -11 -21 -23 -36 -19 -22 -31
-27 -57 -24 l-33 3 27 33 c20 22 36 32 57 32 16 0 29 -4 29 -8z m100 0 c0 -5
-13 -21 -29 -36 -20 -19 -37 -27 -55 -24 l-27 3 30 33 c28 29 81 46 81 24z
m94 -4 c-21 -38 -50 -58 -81 -58 l-34 0 28 35 c22 27 35 35 61 35 24 0 31 -4
26 -12z m522 -34 c-5 -14 -46 -20 -46 -7 0 4 10 18 23 31 18 20 23 21 25 7 2
-9 1 -23 -2 -31z m-276 -75 c-36 -4 -74 -5 -85 -1 -13 5 1 9 40 12 86 7 125
-3 45 -11z m145 11 c4 -6 -7 -10 -25 -10 -18 0 -29 4 -25 10 3 6 15 10 25 10
10 0 22 -4 25 -10z m75 1 c0 -15 -19 -23 -38 -16 -14 5 -14 7 -2 15 19 12 40
13 40 1z m110 -2 c0 -8 4 -8 14 1 8 6 25 10 36 8 l22 -3 -22 -25 c-15 -17 -17
-26 -9 -29 7 -2 24 10 38 28 27 33 51 41 51 17 0 -7 -7 -19 -15 -26 -8 -7 -15
-22 -15 -34 1 -20 2 -20 14 -3 7 9 16 17 20 17 11 0 6 -49 -6 -56 -7 -5 -53
-7 -103 -6 -49 1 -109 2 -132 2 -39 0 -43 2 -43 25 0 25 2 26 65 24 36 -1 68
1 71 4 12 12 -5 35 -23 31 -23 -5 -48 10 -39 25 9 14 76 14 76 0z m-1440 -3
c0 -2 -7 -9 -15 -16 -12 -10 -15 -10 -15 4 0 9 7 16 15 16 8 0 15 -2 15 -4z
m52 -51 c-26 -38 -44 -54 -59 -55 -32 0 -29 24 8 71 23 29 38 39 59 39 l29 0
-37 -55z m111 25 c-37 -63 -57 -82 -84 -78 l-26 3 39 53 c29 39 45 52 64 52
l25 0 -18 -30z m115 23 c-1 -5 -18 -29 -37 -55 -27 -38 -41 -48 -63 -48 -15 0
-28 5 -28 10 0 6 3 10 8 10 4 0 21 21 37 45 24 36 36 45 58 45 16 0 27 -3 25
-7z m102 -1 c0 -5 -16 -30 -36 -55 -29 -37 -43 -47 -65 -47 -16 0 -29 2 -29 5
0 3 16 27 36 55 29 40 42 50 65 50 16 0 29 -4 29 -8z m69 -34 c-38 -50 -58
-68 -76 -68 -20 0 -16 14 22 64 26 33 43 46 61 46 l26 0 -33 -42z m131 35 c-1
-5 -20 -28 -44 -51 -30 -31 -50 -43 -65 -40 -22 3 -21 5 15 51 28 36 43 47 65
47 16 0 29 -3 29 -7z m90 4 c0 -2 -19 -25 -42 -50 -28 -31 -50 -47 -66 -47
-23 0 -22 2 18 50 29 35 49 50 66 50 13 0 24 -2 24 -3z m100 -4 c0 -4 -19 -27
-42 -50 -30 -31 -50 -43 -71 -43 l-29 0 42 50 c33 39 48 50 71 50 16 0 29 -3
29 -7z m105 -2 c-6 -5 -19 -11 -30 -13 -13 -2 -20 -11 -20 -26 -1 -33 -27 -54
-64 -50 l-31 3 41 48 c34 40 46 47 77 47 22 0 32 -4 27 -9z m105 -1 c-20 -13
-70 -13 -70 0 0 6 19 10 43 10 31 0 38 -3 27 -10z m188 -50 c41 1 42 0 30 -20
-16 -25 -39 -32 -98 -26 -25 2 -50 4 -57 5 -7 1 -10 8 -7 16 9 21 -6 19 -32
-6 -18 -17 -30 -20 -59 -15 -23 5 -33 11 -29 19 5 9 3 8 -7 0 -7 -7 -26 -13
-41 -13 -25 0 -27 2 -18 20 11 21 63 27 200 22 41 -1 94 -2 118 -2z m92 -25
c-13 -14 -32 -25 -42 -25 -18 0 -18 1 -1 25 10 14 28 25 42 25 l24 0 -23 -25z"/>
<path d="M2921 3293 c-6 -21 -11 -44 -11 -51 0 -7 -12 -17 -27 -23 -23 -9 -35
-7 -70 12 l-43 23 -50 -49 c-55 -54 -59 -68 -31 -123 25 -49 15 -66 -49 -87
l-50 -17 0 -73 c0 -81 7 -93 64 -102 29 -5 37 -11 47 -40 10 -30 9 -37 -10
-57 -33 -35 -27 -72 18 -117 42 -42 80 -50 115 -24 11 8 31 15 45 15 21 0 29
-8 45 -45 10 -25 27 -50 37 -56 11 -5 50 -9 86 -7 l67 3 14 48 c13 45 15 47
49 47 19 0 51 -8 71 -17 l35 -17 49 54 c52 58 56 75 32 122 -22 43 -7 72 48
89 l43 14 0 65 c0 92 -6 105 -57 122 -53 18 -60 48 -27 108 l23 40 -55 50
c-59 54 -79 59 -124 31 -44 -27 -81 -11 -95 40 -13 49 -33 59 -114 59 l-65 0
-10 -37z m134 -35 c21 -24 109 -117 197 -208 134 -139 158 -169 158 -195 l-1
-30 -22 26 c-12 14 -51 61 -87 104 -114 137 -122 146 -151 161 -16 8 -38 25
-51 38 -13 13 -50 51 -83 85 l-59 61 31 0 c24 0 39 -10 68 -42z m15 22 c6 -11
7 -20 2 -20 -5 0 -17 9 -27 20 -16 18 -16 20 -2 20 9 0 21 -9 27 -20z m16
-137 c-1 -2 -17 0 -34 3 -37 8 -110 89 -104 118 3 15 17 6 73 -50 37 -37 67
-69 65 -71z m-219 7 c25 -28 28 -40 12 -40 -10 0 -109 95 -109 104 0 10 76
-40 97 -64z m87 -9 c-49 -16 -49 -16 -71 9 -18 21 -19 26 -6 33 10 6 22 2 39
-14 13 -12 24 -18 24 -12 0 6 -7 14 -16 17 -15 6 -15 8 2 27 l19 21 29 -33 29
-33 -49 -15z m351 39 c21 -22 36 -43 32 -47 -8 -7 -87 65 -87 79 0 17 17 7 55
-32z m-27 -19 c40 -47 51 -71 34 -71 -4 0 -28 20 -52 45 -24 25 -49 45 -54 45
-6 0 16 -26 48 -59 37 -38 57 -65 54 -77 -2 -15 -19 -3 -78 59 -62 62 -72 77
-54 77 12 0 27 7 34 15 18 22 23 20 68 -34z m-466 -12 c27 -29 45 -56 41 -65
-7 -19 -12 -18 -35 11 -27 35 -44 31 -19 -4 23 -33 25 -40 11 -61 -7 -12 -17
-6 -49 29 -23 25 -41 48 -41 53 0 4 -4 8 -10 8 -15 0 -12 26 5 40 13 11 18 10
31 -8 8 -12 20 -22 26 -22 6 0 1 11 -11 24 -20 22 -22 46 -3 46 3 0 28 -23 54
-51z m332 -73 c111 -84 123 -230 27 -326 -125 -123 -333 -58 -361 113 -15 96
21 178 100 222 39 21 55 24 122 21 65 -2 82 -7 112 -30z m-361 -105 c-7 -26
-10 -26 -34 2 -19 23 -23 44 -13 72 10 24 55 -46 47 -74z m-33 -27 c11 -20 20
-46 18 -57 -2 -16 -10 -9 -35 32 -38 60 -38 61 -19 61 8 0 24 -16 36 -36z
m658 -10 l3 -29 -25 30 c-31 37 -32 47 -3 36 14 -5 23 -18 25 -37z m-658 -71
c36 -60 84 -138 107 -175 24 -36 43 -69 43 -73 0 -3 -9 -5 -21 -3 -15 2 -37
31 -74 96 -30 51 -77 126 -104 167 -55 81 -60 95 -33 95 11 0 39 -36 82 -107z
m-81 34 c22 -35 41 -66 41 -70 0 -13 -36 6 -58 32 -24 26 -24 26 -17 2 4 -14
3 -21 -2 -18 -9 5 -17 117 -9 117 2 0 22 -28 45 -63z m701 -72 c0 -3 -8 -5
-17 -5 -22 1 -83 88 -83 120 0 18 10 10 50 -43 28 -36 50 -69 50 -72z m-70 20
c16 -27 20 -41 13 -61 l-8 -25 -23 30 c-16 22 -20 38 -16 60 4 17 8 31 9 31 2
0 13 -16 25 -35z m-1 -110 c43 -67 47 -80 32 -90 -16 -9 -93 114 -86 136 4 11
8 19 10 19 2 0 22 -29 44 -65z m-515 -27 c47 -84 54 -103 36 -103 -14 0 -66
85 -73 120 -3 17 -9 38 -12 48 -16 41 7 11 49 -65z m493 -38 c26 -41 29 -51
17 -61 -9 -7 -14 -8 -14 -1 0 6 -18 33 -41 62 -34 43 -38 54 -27 67 11 14 13
14 23 -2 5 -9 24 -39 42 -65z m-44 -21 c21 -34 36 -63 34 -66 -11 -11 -66 29
-86 63 -17 28 -19 39 -10 50 6 8 14 14 18 14 3 -1 23 -28 44 -61z m-465 -2
c36 -59 38 -67 18 -67 -12 0 -66 90 -66 111 0 22 18 5 48 -44z m220 -61 c23
-40 42 -76 42 -79 0 -4 -10 -7 -22 -7 -18 0 -34 18 -73 87 -64 110 -63 106
-23 88 23 -12 45 -38 76 -89z m182 43 c8 -13 4 -18 -16 -22 -20 -3 -28 1 -39
24 -14 25 -13 29 3 38 17 10 30 1 52 -40z m-445 11 c9 -16 11 -30 6 -30 -11 0
-31 32 -31 49 0 19 9 12 25 -19z m334 -54 c30 -57 34 -86 12 -86 -4 0 -21 21
-38 48 -16 26 -37 59 -47 75 l-18 27 28 0 c25 0 33 -8 63 -64z m41 44 c11 -20
5 -60 -8 -60 -4 0 -17 18 -30 40 l-23 40 25 0 c15 0 30 -8 36 -20z"/>
<path d="M2966 2981 c-30 -20 -55 -55 -56 -79 0 -8 7 -29 16 -47 29 -62 111
-71 166 -18 38 36 40 102 3 138 -30 31 -87 33 -129 6z m106 -28 c10 -9 18 -30
18 -49 0 -62 -86 -98 -130 -54 -29 29 -25 64 11 94 35 30 74 33 101 9z"/>
<path d="M1437 3233 c-73 -5 -93 -29 -83 -100 5 -39 2 -51 -19 -79 -28 -36
-31 -54 -13 -72 8 -8 8 -15 -1 -26 -8 -9 -11 -42 -9 -92 3 -77 3 -78 33 -86
53 -14 283 -14 297 0 23 23 20 424 -4 447 -7 7 -138 13 -201 8z m130 -27 c-2
-6 -34 -10 -75 -9 -87 2 -98 -7 -96 -73 1 -33 -4 -56 -15 -69 -15 -18 -15 -19
1 -7 9 8 25 12 35 10 13 -3 5 -11 -30 -32 -26 -16 -51 -25 -55 -21 -4 3 1 11
11 16 9 6 15 14 12 18 -2 5 1 14 9 20 8 7 12 29 10 63 -1 30 3 59 9 67 10 12
9 13 -3 6 -10 -5 -12 -5 -5 3 12 13 41 17 128 18 42 0 66 -4 64 -10z m68 -5
c-9 -8 -55 -9 -55 -1 0 13 11 17 36 12 14 -2 22 -7 19 -11z m-194 -28 c1 -5 2
-27 4 -50 2 -37 -1 -43 -18 -43 -13 0 -17 5 -13 16 3 9 6 31 6 50 0 19 5 34
10 34 6 0 10 -3 11 -7z m39 -3 c0 -5 -4 -10 -10 -10 -5 0 -10 5 -10 10 0 6 5
10 10 10 6 0 10 -4 10 -10z m42 -41 c3 -51 -3 -66 -22 -54 -11 7 -14 88 -3 98
15 16 21 4 25 -44z m38 47 c0 -3 -4 -8 -10 -11 -5 -3 -10 -1 -10 4 0 6 5 11
10 11 6 0 10 -2 10 -4z m42 -13 c7 -36 -4 -93 -18 -93 -10 0 -14 14 -14 48 0
27 3 52 7 55 11 12 21 8 25 -10z m34 -10 c-10 -10 -19 5 -10 18 6 11 8 11 12
0 2 -7 1 -15 -2 -18z m-84 -33 c-2 -16 -6 -30 -8 -30 -2 0 -4 14 -4 30 0 17 4
30 8 30 5 0 7 -13 4 -30z m-72 16 c0 -3 -4 -8 -10 -11 -5 -3 -10 -1 -10 4 0 6
5 11 10 11 6 0 10 -2 10 -4z m159 -44 l1 -49 -145 -112 c-80 -62 -145 -115
-145 -118 0 -6 41 24 170 126 52 41 101 79 108 84 9 7 12 -6 11 -59 l0 -69
-71 -57 c-66 -54 -98 -70 -98 -49 0 5 36 39 80 75 44 37 80 69 80 73 0 3 -8
-1 -17 -9 -99 -85 -176 -139 -194 -136 -17 2 2 22 95 97 64 51 116 95 116 98
0 7 -13 -3 -136 -102 -65 -52 -124 -95 -131 -95 -8 0 -21 7 -30 16 -19 19 -27
11 124 128 62 48 115 92 119 97 4 6 -50 -32 -119 -85 -69 -53 -128 -96 -131
-96 -3 0 -6 6 -6 14 0 8 38 42 85 76 47 34 85 64 85 67 0 5 -67 -41 -137 -95
-30 -22 -33 -23 -33 -6 0 17 137 122 194 149 12 5 25 14 29 20 5 6 7 1 4 -12
-4 -19 -2 -21 13 -13 13 7 21 7 25 -1 12 -18 42 19 39 48 -2 24 2 43 10 43 2
0 4 -22 5 -48z m-159 3 c0 -8 -4 -15 -10 -15 -5 0 -10 7 -10 15 0 8 5 15 10
15 6 0 10 -7 10 -15z m5 -35 c3 -5 -25 -30 -62 -55 -57 -38 -69 -42 -72 -28
-2 9 1 19 6 20 6 2 34 19 64 38 63 40 56 37 64 25z m155 -224 c0 -36 -4 -46
-21 -51 -31 -10 -37 4 -10 26 13 11 22 22 19 24 -2 3 -17 -9 -33 -25 -17 -18
-39 -30 -54 -30 -24 0 -22 4 29 50 30 27 58 49 63 50 4 0 7 -20 7 -44z"/>
<path d="M1509 3023 c-13 -16 -12 -17 4 -4 9 7 17 15 17 17 0 8 -8 3 -21 -13z"/>
<path d="M5892 6418 c2 -46 7 -73 16 -76 8 -2 12 9 12 39 l0 44 90 -90 c104
-104 121 -93 25 16 -35 41 -65 77 -65 81 0 3 19 4 42 1 56 -8 43 10 -28 36
-92 35 -95 33 -92 -51z"/>
<path d="M6481 6356 c-17 -20 3 -56 30 -56 24 0 36 27 22 49 -14 22 -37 25
-52 7z"/>
<path d="M6610 6352 c-21 -17 -21 -19 -5 -35 23 -24 54 -21 64 6 17 43 -20 61
-59 29z"/>
<path d="M6753 6363 c-19 -7 -16 -62 3 -70 22 -8 49 10 49 32 0 20 -34 45 -52
38z"/>
<path d="M6352 6315 c-9 -19 -8 -27 4 -40 22 -22 43 -19 53 8 19 49 -35 80
-57 32z"/>
<path d="M6867 6322 c-23 -5 -19 -50 6 -66 23 -15 52 4 52 34 0 24 -27 39 -58
32z"/>
<path d="M6975 6266 c-30 -46 21 -85 60 -46 23 23 14 48 -23 61 -17 7 -25 3
-37 -15z"/>
<path d="M6230 6266 c-18 -22 5 -48 39 -44 20 2 26 9 26 28 0 19 -6 26 -26 28
-14 2 -31 -4 -39 -12z"/>
<path d="M1427 6224 c-63 -49 -93 -91 -128 -177 -17 -44 -21 -62 -12 -75 11
-19 439 -241 463 -242 20 0 75 82 100 148 13 34 20 77 20 121 0 81 13 68 -182
171 -213 111 -194 107 -261 54z m98 5 c3 -4 -7 -11 -22 -17 -15 -5 -46 -17
-68 -26 l-40 -17 30 26 c17 14 36 25 43 25 7 0 11 4 8 8 -6 9 39 10 49 1z m66
-30 l40 -20 -71 -36 c-57 -27 -77 -33 -94 -25 -19 8 -14 13 47 40 68 31 96 55
32 27 -19 -8 -51 -22 -71 -30 -21 -10 -44 -13 -57 -9 -19 6 -11 12 48 40 39
18 74 33 78 33 4 1 26 -8 48 -20z m71 -44 c2 -18 -109 -77 -132 -70 -11 3 -20
10 -20 14 0 10 122 70 138 68 7 -1 14 -6 14 -12z m48 -15 c17 -11 21 -7 -58
-55 -50 -29 -66 -35 -75 -25 -8 8 -8 14 -2 16 6 3 33 20 60 39 57 39 55 38 75
25z m-262 -36 c37 -20 90 -49 117 -64 28 -15 101 -53 163 -84 61 -31 112 -61
112 -66 0 -8 -50 -96 -78 -139 -10 -14 -9 -14 -322 152 -52 28 -105 56 -117
62 -28 12 -28 21 -2 82 11 26 25 58 30 71 11 29 20 28 97 -14z m312 6 c0 -13
-104 -80 -123 -80 -33 0 -24 16 30 51 57 38 93 48 93 29z m40 -20 c8 -5 12
-11 10 -13 -74 -57 -115 -78 -133 -70 -18 8 -14 13 39 50 67 47 64 46 84 33z
m50 -30 c0 -18 -108 -83 -126 -76 -20 8 -22 5 41 49 49 35 85 46 85 27z m4
-47 c-7 -27 -68 -63 -85 -51 -11 8 -11 11 -1 15 7 3 25 16 40 29 32 28 52 31
46 7z m-6 -62 c-1 -30 -3 -30 -47 -3 -5 3 31 31 41 32 4 0 6 -13 6 -29z"/>
<path d="M1372 6048 c5 -14 248 -139 262 -135 12 4 -27 28 -126 79 -121 63
-141 71 -136 56z"/>
<path d="M1722 5899 c-18 -7 -23 -15 -20 -36 3 -25 7 -28 38 -28 31 0 35 3 38
27 4 33 -22 50 -56 37z m38 -33 c0 -2 -7 -7 -16 -10 -8 -3 -12 -2 -9 4 6 10
25 14 25 6z"/>
<path d="M6125 6190 c-18 -20 -18 -21 2 -41 16 -17 25 -19 41 -10 26 14 35 40
21 57 -16 20 -43 17 -64 -6z"/>
<path d="M7092 6188 c-7 -7 -12 -23 -12 -36 0 -20 4 -23 28 -20 22 2 28 8 30
36 3 26 0 32 -15 32 -11 0 -24 -5 -31 -12z"/>
<path d="M5643 6148 c-28 -30 -51 -80 -46 -95 9 -24 30 -13 57 27 46 69 103
42 65 -32 -24 -47 -24 -55 1 -68 17 -9 23 -6 40 22 11 18 20 38 20 43 0 6 -9
-5 -20 -22 -11 -18 -27 -33 -35 -33 -20 0 -19 13 5 52 24 40 25 56 4 79 -23
25 -66 7 -90 -37 -10 -18 -21 -34 -25 -34 -30 0 8 82 49 104 16 9 21 15 11 16
-8 0 -25 -10 -36 -22z"/>
<path d="M5762 6145 c9 -11 18 -36 21 -55 l4 -35 1 36 c2 26 -4 41 -20 55 -23
19 -23 19 -6 -1z"/>
<path d="M6041 6106 c-22 -26 19 -73 53 -60 24 9 27 33 6 54 -23 23 -43 25
-59 6z"/>
<path d="M7188 6102 c-22 -4 -30 -29 -18 -53 20 -36 70 -17 70 27 0 22 -21 33
-52 26z"/>
<path d="M6647 6078 c-4 -12 -7 -35 -7 -50 l0 -28 -100 0 -100 0 0 34 c0 19
-4 38 -10 41 -6 4 -10 -9 -10 -33 l0 -39 -50 -7 c-58 -8 -80 -32 -80 -88 l0
-38 -45 0 c-48 0 -64 -19 -17 -22 15 0 34 -1 42 -2 12 -1 16 -21 18 -103 l3
-103 -46 0 c-57 0 -59 -18 -2 -22 l42 -3 3 -97 3 -98 -53 0 c-38 0 -49 -3 -38
-10 8 -5 32 -10 53 -10 l37 0 0 -55 c0 -60 13 -75 67 -75 40 0 48 -9 60 -60
10 -41 11 -42 12 -13 2 62 4 63 111 63 l97 0 8 -52 c8 -57 12 -55 17 7 l4 40
97 3 97 3 0 -35 c0 -66 13 -75 24 -16 l11 55 43 6 c54 7 65 18 72 77 l5 47 55
5 55 6 -55 9 -55 10 0 95 0 95 30 3 c17 1 41 6 55 9 20 6 13 8 -30 13 l-55 5
-3 59 c-2 33 -1 79 3 103 6 42 7 43 46 43 49 0 52 18 3 22 -35 3 -38 6 -49 52
-14 54 -23 62 -76 71 -35 6 -37 9 -44 52 -8 52 -25 42 -25 -14 l0 -33 -100 0
-100 0 0 38 c0 48 -15 73 -23 40z m323 -125 c10 -9 18 -191 19 -409 1 -195 -1
-223 -16 -235 -12 -11 -78 -15 -302 -17 -157 -2 -300 -1 -318 3 l-33 6 0 329
0 329 48 3 c71 5 596 -3 602 -9z"/>
<path d="M6390 5910 c-9 -6 -13 -75 -14 -279 l-1 -272 150 -6 c83 -4 206 -7
275 -7 l125 -1 2 277 c1 153 -2 280 -6 283 -14 8 -518 13 -531 5z m50 -49
c-16 -32 -30 -34 -30 -7 0 19 5 26 20 26 17 0 19 -3 10 -19z m80 14 c0 -5 -79
-105 -101 -129 -5 -6 -9 0 -9 15 1 33 65 119 90 119 11 0 20 -2 20 -5z m90 -1
c0 -4 -26 -38 -57 -76 -32 -38 -76 -94 -99 -124 -23 -29 -43 -51 -46 -49 -3 3
-2 22 2 43 4 24 31 68 74 125 58 74 72 87 97 87 16 0 29 -3 29 -6z m40 -61
c-110 -147 -220 -302 -226 -317 -12 -31 -24 -16 -24 29 0 40 7 53 63 122 34
43 85 113 112 155 47 73 52 77 87 77 l38 1 -50 -67z m106 20 c-82 -107 -289
-400 -299 -420 -13 -28 -57 -32 -57 -5 0 9 36 67 81 127 44 61 101 142 127
180 105 158 111 165 149 165 l35 0 -36 -47z m114 42 c0 -3 -18 -30 -40 -59
-41 -54 -47 -66 -31 -66 5 0 26 27 47 60 22 33 42 60 47 60 4 0 7 -18 7 -40 0
-32 -10 -54 -51 -111 -57 -80 -68 -102 -48 -94 8 4 31 33 52 67 21 33 40 58
43 55 3 -2 2 -53 -2 -112 -7 -104 -8 -108 -46 -158 -21 -28 -38 -55 -38 -59 0
-19 17 -4 47 40 l33 47 1 -32 c1 -18 2 -46 3 -63 l1 -30 -82 0 -83 0 10 25 c5
14 6 25 1 25 -5 0 -16 -11 -25 -25 -15 -23 -56 -35 -56 -17 0 5 21 41 46 80
25 40 44 77 42 84 -2 6 -31 -30 -63 -80 -44 -69 -64 -92 -80 -92 -12 0 -24 3
-28 6 -3 3 23 49 59 102 87 133 117 183 110 189 -9 9 -28 -16 -116 -154 -84
-130 -86 -132 -122 -133 l-37 0 96 143 c53 78 130 188 170 245 65 89 78 102
104 102 16 0 29 -2 29 -5z"/>
<path d="M6844 5583 c-24 -33 -36 -63 -26 -63 11 0 54 70 50 81 -2 6 -13 -2
-24 -18z"/>
<path d="M5552 6008 c-21 -27 -42 -78 -42 -102 0 -30 49 -92 50 -63 0 10 -4
16 -9 12 -28 -17 -31 80 -4 126 10 17 23 27 31 24 7 -2 10 0 7 5 -8 14 -21 13
-33 -2z"/>
<path d="M7251 6003 c-30 -20 -24 -55 11 -67 19 -7 31 -6 42 4 43 35 -8 95
-53 63z"/>
<path d="M5967 5994 c-12 -12 -8 -52 6 -57 6 -2 22 0 35 4 33 12 27 53 -8 57
-14 2 -29 0 -33 -4z"/>
<path d="M5580 5981 c0 -7 -4 -10 -9 -7 -5 3 -11 -8 -15 -25 -11 -57 -7 -77
17 -85 12 -4 25 -12 29 -18 5 -7 8 -4 8 7 0 9 5 17 10 17 6 0 10 -10 10 -21 0
-17 -5 -20 -25 -17 -14 3 -28 1 -31 -3 -3 -5 8 -9 25 -9 22 0 38 10 65 42 34
39 47 66 27 54 -5 -3 -12 1 -15 10 -4 12 -2 15 9 10 8 -3 15 -1 15 3 0 5 -6
11 -14 14 -8 3 -26 -12 -45 -40 -33 -46 -55 -52 -75 -21 -8 14 -6 26 8 53 11
19 16 38 13 42 -4 3 -7 1 -7 -6z m82 -108 c-18 -28 -22 -29 -22 -2 0 11 5 17
10 14 6 -4 10 6 11 22 0 24 2 25 8 8 5 -13 3 -28 -7 -42z"/>
<path d="M5914 5865 c-9 -23 3 -45 24 -45 11 0 25 7 32 15 16 19 -3 45 -32 45
-10 0 -21 -7 -24 -15z"/>
<path d="M7295 5866 c-16 -12 -17 -18 -8 -38 8 -19 19 -25 40 -24 24 1 28 5
31 34 2 17 -1 32 -7 32 -5 0 -15 2 -23 5 -7 3 -22 -1 -33 -9z"/>
<path d="M7344 5762 c-31 -21 -18 -72 19 -72 45 0 65 50 28 70 -23 12 -32 12
-47 2z m53 -34 c-3 -8 -6 -5 -6 6 -1 11 2 17 5 13 3 -3 4 -12 1 -19z"/>
<path d="M5873 5748 c-15 -19 2 -58 25 -58 28 0 48 28 35 48 -13 22 -47 27
-60 10z"/>
<path d="M1549 5644 c-97 -85 -95 -84 -176 -30 -38 25 -74 46 -80 46 -7 0 -26
-26 -43 -57 -52 -98 -56 -101 -125 -93 -33 4 -73 10 -90 14 -51 10 -59 -3 -65
-106 l-5 -93 -100 -13 c-55 -7 -104 -18 -110 -23 -13 -13 18 -99 56 -160 16
-25 29 -48 29 -51 0 -3 -34 -33 -75 -67 -41 -34 -75 -68 -75 -75 0 -6 25 -36
56 -66 30 -30 65 -67 75 -83 l20 -27 -36 -60 c-52 -86 -48 -98 55 -134 47 -16
88 -34 91 -39 3 -5 2 -28 -3 -52 -5 -24 -8 -65 -6 -91 l3 -49 81 4 81 3 11
-58 c13 -76 28 -113 47 -120 8 -3 12 -11 8 -18 -8 -12 -10 -14 75 52 56 44 85
52 99 28 18 -31 175 -166 193 -166 23 0 144 156 133 173 -12 19 120 -58 150
-87 16 -17 36 -45 43 -62 28 -66 153 -142 268 -163 72 -13 210 -14 329 -1 l87
9 88 -39 c126 -56 201 -74 312 -74 120 0 215 26 365 98 128 62 222 128 265
187 39 54 92 219 92 284 0 94 -64 299 -128 414 -13 24 -24 45 -24 46 0 2 45
-13 100 -32 94 -34 120 -37 106 -15 -5 9 -191 94 -233 106 -28 9 -42 -17 -72
-134 -12 -47 -25 -94 -28 -105 -5 -18 -4 -18 11 -6 21 18 43 60 66 125 l17 51
37 -80 c75 -160 90 -218 90 -345 0 -99 -4 -127 -27 -197 -32 -94 -57 -129
-136 -182 -195 -133 -416 -193 -597 -162 -83 14 -234 59 -234 69 0 4 34 27 75
51 165 99 235 199 235 339 0 58 -4 75 -29 114 -44 69 -57 75 -148 67 -46 -4
-101 -16 -131 -29 -67 -29 -153 -120 -176 -186 -30 -90 -13 -231 38 -297 l27
-36 -38 -10 c-53 -15 -223 -13 -314 3 -126 23 -211 80 -277 187 l-22 36 29 84
c16 46 32 92 36 102 7 16 16 18 81 12 53 -5 78 -4 89 5 19 16 19 69 0 140 -23
85 -22 86 54 124 38 19 71 42 75 52 3 9 -7 53 -22 99 -32 93 -32 96 26 179 23
32 39 63 36 69 -3 7 -32 29 -65 51 -33 21 -63 45 -66 53 -3 8 0 53 7 99 17
106 14 110 -90 119 -71 6 -81 10 -85 29 -2 11 -11 56 -20 99 l-17 79 -36 -7
c-20 -4 -64 -18 -99 -32 -35 -14 -65 -24 -67 -22 -1 2 -22 40 -45 84 -62 117
-56 115 -132 49z m-198 -49 c7 5 10 4 6 -2 -7 -10 93 -63 121 -63 9 0 45 23
80 51 34 29 64 50 66 48 2 -2 16 -39 31 -82 15 -43 32 -80 36 -83 11 -7 11 -1
-1 30 -5 14 -6 26 -1 26 5 0 11 -7 15 -15 7 -20 41 -19 117 5 34 11 67 19 73
17 15 -5 46 -185 32 -190 -31 -12 16 -22 100 -22 52 0 94 -3 94 -7 0 -4 -7
-41 -16 -82 -14 -62 -15 -80 -4 -105 7 -17 18 -31 24 -31 7 0 34 -15 60 -33
l47 -34 -55 -61 -55 -62 15 -49 c8 -27 21 -68 29 -91 8 -23 15 -44 15 -46 0
-2 -29 -20 -66 -40 -95 -53 -100 -64 -74 -162 11 -44 20 -83 20 -87 0 -4 -29
-4 -65 0 -55 6 -68 4 -87 -12 -13 -10 -24 -23 -25 -28 -13 -48 -60 -165 -67
-165 -20 0 -102 45 -114 62 -7 10 -18 18 -23 18 -16 0 -66 -59 -106 -122 -20
-32 -39 -58 -42 -58 -4 0 -40 30 -81 66 -41 36 -91 74 -112 84 l-36 17 -57
-44 c-31 -25 -59 -42 -62 -40 -2 3 -11 34 -19 68 -25 114 -24 113 -107 106
l-72 -5 3 94 4 94 -54 24 c-29 13 -68 27 -85 31 -18 3 -33 11 -33 17 0 5 14
30 32 54 30 42 31 47 19 82 -8 23 -36 59 -74 95 l-62 58 60 52 c33 28 78 69
100 89 l40 37 -51 53 c-45 47 -84 99 -84 112 0 2 45 7 100 11 115 8 105 -3
115 130 3 44 8 81 11 84 2 2 39 -1 81 -7 97 -14 111 -6 155 83 l32 65 22 -21
c13 -12 28 -18 35 -14z m134 -45 c-3 -5 -12 -10 -18 -10 -7 0 -6 4 3 10 19 12
23 12 15 0z m-575 -449 c0 -6 -4 -13 -10 -16 -5 -3 -10 1 -10 9 0 9 5 16 10
16 6 0 10 -4 10 -9z m1909 -639 c134 -68 103 -267 -60 -387 -57 -42 -156 -95
-178 -95 -20 0 -70 52 -90 95 -27 57 -27 133 -1 216 24 78 37 97 89 133 81 56
176 71 240 38z"/>
<path d="M1560 5208 c-22 -11 -17 -12 50 -18 50 -4 91 -14 124 -30 57 -29 132
-108 141 -150 7 -32 25 -41 25 -13 0 34 -43 104 -84 138 -80 65 -200 99 -256
73z"/>
<path d="M1576 5110 c-18 -6 -18 -7 -2 -13 10 -4 30 -7 44 -7 59 -1 124 -46
169 -116 11 -18 12 -18 12 3 1 29 -52 89 -98 112 -43 22 -99 31 -125 21z"/>
<path d="M1306 5056 c-51 -19 -104 -72 -118 -117 -8 -29 -19 -40 -49 -52 -42
-16 -75 -61 -85 -114 -10 -51 22 -103 82 -133 49 -25 51 -25 319 -25 308 1
334 5 360 69 35 84 8 166 -66 203 -26 12 -54 34 -63 48 -20 31 -64 54 -108 57
-18 1 -58 16 -88 34 -66 39 -130 50 -184 30z m132 -33 c21 -9 49 -27 64 -41
20 -18 34 -23 55 -19 38 7 86 -15 114 -52 12 -16 39 -37 60 -45 21 -9 46 -27
55 -41 20 -31 23 -117 4 -140 -34 -40 -59 -44 -316 -46 -137 -1 -266 2 -287 6
-54 11 -107 65 -107 110 0 65 43 115 99 115 15 0 21 9 26 40 17 101 135 158
233 113z"/>
<path d="M5860 5620 c-16 -31 4 -62 38 -58 19 2 28 10 30 26 7 47 -47 72 -68
32z"/>
<path d="M7351 5606 c-21 -26 -9 -51 24 -51 27 0 30 3 30 30 0 23 -5 31 -21
33 -11 2 -26 -4 -33 -12z"/>
<path d="M5336 5509 c-43 -34 -67 -93 -78 -195 -12 -104 -1 -193 28 -225 34
-38 102 -54 226 -54 109 0 119 2 140 23 23 23 23 23 3 35 -12 7 -65 12 -130
12 -120 0 -160 13 -191 61 -23 34 -15 172 14 237 26 59 60 70 173 57 127 -15
149 -36 149 -143 0 -69 -11 -107 -32 -107 -8 0 -9 30 -5 100 6 110 5 111 -65
110 -18 0 -52 3 -76 6 -78 11 -125 -45 -126 -153 -1 -56 2 -66 27 -90 24 -25
35 -28 95 -28 37 -1 72 -4 77 -7 10 -6 76 -12 107 -9 46 3 86 153 68 252 -8
42 -17 61 -45 85 -48 43 -95 54 -222 54 -97 0 -114 -3 -137 -21z m310 -15 c61
-30 84 -73 84 -159 0 -78 -20 -152 -47 -172 -27 -20 -84 -16 -110 8 -16 16
-26 19 -35 12 -48 -37 -130 -15 -153 42 -43 101 47 225 132 183 16 -8 45 -13
66 -10 l36 4 -2 -103 c-2 -100 -1 -104 20 -107 36 -5 53 33 53 116 0 77 -16
124 -49 141 -33 18 -114 32 -184 33 -61 0 -71 -3 -96 -26 -37 -36 -65 -143
-59 -232 4 -61 7 -70 37 -95 18 -15 53 -32 76 -38 56 -14 160 -14 187 0 16 8
24 8 35 -4 14 -13 13 -17 -8 -29 -32 -17 -183 -14 -252 6 -100 29 -123 79
-106 231 12 119 35 177 81 205 30 19 44 21 144 17 82 -3 122 -9 150 -23z"/>
<path d="M5447 5349 c-22 -35 -30 -85 -17 -109 13 -25 55 -43 81 -35 40 13 63
102 36 138 -6 10 -28 20 -49 23 -31 5 -38 3 -51 -17z m74 -9 c25 -14 25 -70 0
-101 -19 -23 -21 -23 -48 -8 -23 13 -28 22 -27 52 2 59 30 80 75 57z"/>
<path d="M5881 5504 c-26 -18 -25 -51 2 -68 23 -15 51 3 55 37 4 35 -26 52
-57 31z"/>
<path d="M7336 5494 c-10 -27 -7 -43 13 -54 27 -14 51 -2 51 24 0 41 -51 65
-64 30z"/>
<path d="M5913 5373 c-18 -7 -16 -48 2 -63 8 -6 22 -10 32 -8 25 5 30 48 7 65
-19 14 -22 14 -41 6z"/>
<path d="M7297 5363 c-4 -3 -7 -17 -7 -30 0 -19 5 -23 29 -23 37 0 59 24 41
45 -13 15 -51 20 -63 8z"/>
<path d="M5968 5259 c-22 -12 -23 -42 -3 -59 35 -29 85 26 53 58 -14 14 -27
15 -50 1z"/>
<path d="M7243 5249 c-20 -20 -3 -49 28 -49 32 0 43 12 34 40 -7 22 -44 27
-62 9z"/>
<path d="M6043 5163 c-7 -2 -13 -18 -13 -34 0 -22 6 -30 24 -35 32 -8 46 2 46
31 0 20 -27 48 -42 44 -2 0 -9 -3 -15 -6z"/>
<path d="M7176 5154 c-19 -18 -19 -20 -6 -45 21 -38 76 -10 62 31 -11 31 -34
37 -56 14z"/>
<path d="M2522 5077 c-17 -21 -122 -290 -121 -312 0 -16 22 35 65 155 5 13 7
12 15 -2 6 -11 6 -24 -1 -35 -5 -10 -19 -41 -29 -70 -23 -58 -23 -59 52 -92
26 -12 47 -27 47 -34 0 -8 3 -8 9 2 6 9 11 10 15 2 4 -6 16 -11 27 -11 12 0
19 -7 19 -20 0 -21 -10 -26 -25 -12 -6 5 -31 17 -57 26 -31 11 -48 24 -48 34
0 12 -3 14 -8 5 -6 -10 -17 -9 -45 6 -20 10 -34 15 -31 10 8 -13 65 -41 168
-83 95 -38 111 -42 101 -26 -3 6 -15 10 -26 10 -13 0 -19 7 -19 22 0 17 3 19
12 10 7 -7 19 -12 28 -12 16 0 50 51 50 76 0 8 5 14 10 14 6 0 10 9 10 21 0
13 4 18 12 13 8 -5 9 -2 5 10 -4 10 -7 21 -7 26 0 4 -10 11 -22 15 -13 4 -25
8 -28 10 -3 1 -14 5 -25 10 -11 4 -50 21 -87 36 -36 16 -73 29 -82 29 -25 0
-28 36 -6 84 11 25 20 49 20 55 0 18 21 23 49 11 27 -11 28 -13 18 -45 -5 -19
-14 -32 -18 -30 -4 3 -5 -4 -2 -15 3 -11 0 -20 -6 -20 -5 0 -8 -7 -4 -16 7
-18 143 -84 173 -84 18 0 47 46 56 88 5 25 15 27 30 8 8 -11 14 -15 14 -10 0
31 -51 59 -232 127 -50 19 -69 23 -76 14z m142 -52 c39 -17 43 -27 21 -65 -27
-47 -15 -80 29 -80 8 0 23 24 36 53 12 28 24 47 27 40 2 -6 -6 -33 -19 -60
-17 -36 -28 -47 -42 -45 -25 5 -124 50 -130 60 -6 11 25 112 35 112 3 0 23 -7
43 -15z m86 -45 c0 -7 -30 -82 -35 -88 -1 -1 -9 0 -17 3 -14 6 -14 11 0 54 12
39 19 47 33 44 11 -3 19 -9 19 -13z m-132 -131 c53 -23 101 -44 105 -48 10
-10 -31 -121 -47 -127 -7 -3 -59 16 -117 41 -79 34 -104 49 -102 62 3 30 43
113 54 113 6 0 54 -18 107 -41z"/>
<path d="M2530 4862 c0 -10 161 -74 168 -67 3 2 -12 12 -32 20 -96 40 -136 54
-136 47z"/>
<path d="M2540 4798 c85 -38 140 -58 140 -50 0 8 -154 72 -172 71 -7 0 7 -9
32 -21z"/>
<path d="M2485 4772 c-3 -3 32 -21 77 -39 77 -31 108 -40 96 -28 -12 12 -167
72 -173 67z"/>
<path d="M6135 5066 c-26 -19 -16 -60 16 -64 29 -3 41 14 32 46 -7 26 -27 34
-48 18z"/>
<path d="M7077 5051 c-6 -23 9 -51 28 -51 22 0 47 41 33 57 -16 20 -55 16 -61
-6z"/>
<path d="M2546 5017 c3 -10 9 -15 12 -12 3 3 0 11 -7 18 -10 9 -11 8 -5 -6z"/>
<path d="M6967 4994 c-14 -14 -7 -43 14 -58 31 -21 51 -10 47 28 -2 25 -8 32
-28 34 -14 2 -29 0 -33 -4z"/>
<path d="M6230 4975 c-10 -12 -9 -20 4 -41 22 -32 59 -30 64 4 7 44 -41 70
-68 37z"/>
<path d="M6030 4950 c0 -28 3 -31 28 -28 21 2 27 8 27 28 0 20 -6 26 -27 28
-25 3 -28 0 -28 -28z"/>
<path d="M6362 4928 c-18 -18 -15 -46 7 -58 28 -15 71 21 55 47 -14 22 -45 28
-62 11z"/>
<path d="M6850 4925 c-19 -23 -4 -45 30 -45 18 0 33 6 36 15 8 19 -13 45 -36
45 -10 0 -23 -7 -30 -15z"/>
<path d="M2815 4908 c7 -19 -28 -102 -39 -91 -4 4 -4 0 -1 -10 7 -17 -14 -77
-27 -77 -5 0 -8 -12 -8 -26 0 -16 -4 -23 -12 -18 -6 4 -8 3 -4 -4 7 -12 -13
-62 -26 -62 -4 0 -8 -4 -8 -10 0 -5 6 -7 14 -4 14 5 60 106 106 232 18 49 20
66 11 75 -10 9 -11 8 -6 -5z"/>
<path d="M6746 4891 c-33 -36 -13 -68 32 -48 27 12 29 43 3 56 -14 8 -22 6
-35 -8z"/>
<path d="M5934 4886 c-3 -8 -4 -23 -2 -33 5 -25 61 -25 66 0 7 37 -51 67 -64
33z"/>
<path d="M6470 4885 c-17 -20 -5 -33 39 -41 31 -7 32 -6 29 22 -2 23 -9 30
-29 32 -14 2 -31 -4 -39 -13z"/>
<path d="M6616 4884 c-26 -25 -16 -49 22 -52 32 -3 33 -2 30 30 -3 38 -27 48
-52 22z"/>
<path d="M5851 4802 c-21 -39 31 -71 60 -36 11 14 10 19 -10 35 -29 24 -38 24
-50 1z"/>
<path d="M7110 4803 c-33 -12 -51 -40 -95 -144 -54 -128 -56 -170 -12 -203 43
-32 94 -27 126 12 14 18 38 46 52 64 l26 32 63 -12 c34 -6 68 -16 75 -22 8 -6
19 -35 25 -64 14 -70 44 -99 104 -100 25 -1 50 4 55 9 31 31 45 331 17 354
-24 20 -134 35 -163 22 -37 -17 -109 -4 -140 25 -16 15 -38 24 -59 24 -18 0
-38 2 -46 4 -7 3 -20 2 -28 -1z m115 -39 c34 -36 165 -62 165 -33 0 15 117 4
138 -13 12 -10 14 -39 10 -165 -2 -84 -7 -155 -10 -158 -4 -4 -24 -9 -46 -12
-34 -5 -45 -1 -66 20 -18 18 -26 37 -26 61 0 77 -31 101 -141 113 -53 5 -56 4
-82 -27 -15 -17 -27 -38 -27 -45 0 -21 -50 -55 -80 -55 -15 0 -39 11 -55 26
-22 20 -26 31 -21 55 8 40 96 242 110 251 6 4 33 8 59 8 39 0 52 -5 72 -26z"/>
<path d="M7123 4733 c-3 -8 -16 -19 -29 -24 -27 -10 -34 -49 -9 -49 8 0 15 -8
15 -19 0 -24 41 -36 56 -16 6 8 19 15 28 15 20 0 22 46 2 53 -9 4 -12 14 -9
25 3 15 -2 21 -22 24 -18 4 -28 1 -32 -9z m16 -40 c-13 -15 -16 -21 -6 -14 16
12 20 12 35 -2 15 -16 14 -17 -13 -15 -33 2 -82 28 -54 28 9 0 24 9 34 20 10
11 21 18 23 15 3 -3 -5 -17 -19 -32z"/>
<path d="M7460 4661 c-7 -15 -6 -23 6 -35 8 -9 19 -16 23 -16 17 0 32 30 26
50 -8 25 -41 26 -55 1z m40 -11 c0 -5 -4 -10 -10 -10 -5 0 -10 5 -10 10 0 6 5
10 10 10 6 0 10 -4 10 -10z"/>
<path d="M7394 4616 c-10 -26 4 -48 28 -44 17 2 23 10 23 28 0 18 -6 26 -23
28 -13 2 -25 -3 -28 -12z m36 -10 c0 -3 -4 -8 -10 -11 -5 -3 -10 -1 -10 4 0 6
5 11 10 11 6 0 10 -2 10 -4z"/>
<path d="M7256 4612 c-3 -6 4 -12 17 -16 33 -9 53 -7 42 3 -16 15 -53 22 -59
13z"/>
<path d="M6320 4785 c-19 -23 -6 -41 52 -67 92 -43 141 -109 158 -213 11 -68
15 -75 45 -75 30 0 34 13 25 81 -11 76 -40 138 -90 193 -61 66 -165 111 -190
81z m90 -26 c80 -36 136 -104 164 -199 9 -30 16 -68 16 -86 0 -27 -3 -31 -20
-27 -16 4 -20 14 -20 48 0 55 -53 160 -101 198 -20 16 -54 34 -75 42 -22 7
-40 20 -42 29 -5 22 23 20 78 -5z"/>
<path d="M5753 4714 c-9 -24 10 -49 38 -49 20 0 24 5 24 30 0 25 -4 30 -28 33
-18 2 -29 -2 -34 -14z"/>
<path d="M6307 4693 c-18 -17 -3 -45 38 -73 49 -34 63 -53 85 -120 13 -38 20
-46 44 -48 l29 -4 -5 56 c-4 43 -12 65 -35 94 -47 58 -138 114 -156 95z m62
-27 c42 -22 98 -90 110 -133 16 -56 14 -75 -6 -71 -11 2 -20 18 -26 44 -9 48
-63 116 -107 134 -31 13 -41 40 -15 40 9 0 28 -6 44 -14z"/>
<path d="M6096 4609 c-34 -40 -49 -102 -43 -168 13 -127 135 -210 265 -180 90
20 88 29 -19 151 -37 42 -86 108 -108 146 -22 38 -47 72 -55 75 -9 4 -25 -6
-40 -24z m54 -11 c0 -6 -6 -19 -14 -27 -7 -9 -24 -36 -38 -59 -36 -62 -44 -35
-9 31 16 31 27 58 23 61 -3 3 4 6 16 6 12 0 22 -5 22 -12z m20 -40 c0 -14 -83
-148 -92 -148 -18 0 -5 38 33 102 36 60 59 78 59 46z m45 -79 c5 -16 -70 -159
-83 -159 -4 0 -17 15 -29 32 l-22 31 25 41 c14 23 35 58 47 78 l22 38 17 -23
c10 -12 20 -29 23 -38z m44 -53 l23 -24 -32 -61 c-18 -34 -39 -61 -46 -61 -20
0 -17 14 17 81 17 34 29 63 27 65 -3 2 -20 -28 -38 -66 -34 -70 -46 -82 -56
-56 -5 14 64 146 76 146 4 0 17 -11 29 -24z m54 -54 c14 -15 15 -24 5 -56 -11
-35 -32 -56 -44 -43 -3 3 4 24 16 47 12 23 19 45 16 48 -4 3 -16 -18 -28 -46
-12 -29 -28 -52 -35 -52 -7 0 -13 2 -13 5 0 11 55 115 61 115 3 0 13 -8 22
-18z m39 -57 c-2 -11 1 -14 9 -9 8 4 10 3 5 -5 -4 -6 -11 -9 -16 -6 -4 3 -10
-1 -13 -7 -8 -24 -18 -1 -11 26 7 29 31 30 26 1z"/>
<path d="M6146 4421 c-34 -56 -51 -97 -23 -56 27 39 69 115 64 115 -3 0 -22
-26 -41 -59z"/>
<path d="M3100 4391 c0 -105 3 -191 6 -191 3 0 27 18 53 40 l48 39 28 -59 c31
-65 47 -73 85 -42 l23 19 -27 58 c-30 66 -28 69 41 80 23 3 43 10 43 15 0 5
-62 55 -137 111 -76 56 -144 106 -150 112 -10 7 -13 -30 -13 -182z m193 29
c42 -30 77 -57 77 -61 0 -3 -22 -9 -50 -13 -27 -4 -52 -10 -54 -15 -3 -5 8
-33 24 -62 36 -65 36 -73 7 -86 -23 -11 -26 -8 -56 60 l-32 72 -33 -35 c-68
-74 -64 -80 -65 110 l-1 171 53 -43 c29 -24 87 -68 130 -98z"/>
<path d="M6314 4570 c-12 -5 -24 -19 -27 -32 l-6 -23 18 24 c14 19 24 22 45
17 22 -5 27 -12 24 -33 -4 -38 -32 -52 -57 -29 -12 11 -21 14 -21 8 0 -17 38
-34 61 -27 11 4 24 16 28 28 16 41 -25 82 -65 67z"/>
<path d="M6923 4314 c-16 -7 -5 -34 13 -34 8 0 14 9 14 20 0 20 -5 23 -27 14z"/>
<path d="M7000 4299 c0 -12 48 -35 88 -42 35 -7 43 6 13 22 -29 16 -101 30
-101 20z"/>
<path d="M6759 4280 l-24 -19 30 -1 c40 0 105 19 105 30 0 19 -87 11 -111 -10z"/>
<path d="M6653 4254 c-6 -17 14 -36 32 -31 6 2 11 13 13 25 3 17 -2 22 -18 22
-11 0 -23 -7 -27 -16z"/>
<path d="M7157 4253 c-12 -12 -7 -31 10 -37 21 -8 35 6 27 27 -6 17 -25 22
-37 10z"/>
<path d="M6542 4190 c-42 -30 -50 -44 -33 -55 12 -7 111 66 105 77 -9 15 -31
8 -72 -22z"/>
<path d="M7236 4212 c-6 -9 97 -92 114 -92 20 0 -9 39 -52 70 -43 32 -54 35
-62 22z"/>
<path d="M6425 4110 c-9 -15 4 -30 26 -30 12 0 19 7 19 20 0 21 -33 29 -45 10z"/>
<path d="M7377 4094 c-10 -10 12 -44 29 -44 10 0 14 8 12 22 -3 22 -27 35 -41
22z"/>
<path d="M6377 4032 c-17 -18 -47 -84 -47 -102 0 -5 4 -10 10 -10 12 0 80 100
80 117 0 19 -24 16 -43 -5z"/>
<path d="M7450 4025 c0 -13 63 -115 71 -115 11 0 -6 44 -32 87 -18 29 -39 44
-39 28z"/>
<path d="M1157 3969 c-94 -29 -100 -29 -118 -13 -21 19 -81 14 -130 -12 -23
-12 -29 -21 -29 -48 0 -34 44 -192 81 -290 26 -70 29 -71 220 -12 258 79 259
88 2 16 -98 -27 -181 -50 -185 -50 -8 0 -1 223 7 266 4 17 30 28 172 67 93 25
180 49 196 53 l27 6 0 -108 c0 -60 -4 -126 -9 -146 -7 -28 -6 -35 4 -32 16 6
31 202 20 263 -7 41 -7 41 -42 35 -28 -5 -37 -3 -49 15 -20 28 -48 26 -167
-10z m124 -22 c-8 -8 -11 -5 -11 9 0 27 14 41 18 19 2 -9 -1 -22 -7 -28z m-21
14 c0 -11 -4 -23 -10 -26 -6 -4 -10 5 -10 19 0 14 5 26 10 26 6 0 10 -9 10
-19z m47 -3 c-3 -8 -6 -5 -6 6 -1 11 2 17 5 13 3 -3 4 -12 1 -19z m-77 -7 c0
-20 -13 -35 -23 -25 -7 8 4 44 14 44 5 0 9 -9 9 -19z m-207 -39 c-8 -56 -23
-63 -23 -11 0 25 3 49 6 52 14 14 22 -5 17 -41z m170 28 c-8 -31 -23 -34 -23
-6 0 16 6 26 14 26 9 0 12 -7 9 -20z m-203 -30 c0 -47 -20 -243 -26 -249 -13
-14 -13 21 -2 148 6 77 15 141 20 141 4 0 8 -18 8 -40z m169 33 c0 -5 -4 -17
-9 -28 -8 -18 -9 -17 -9 8 -1 15 4 27 9 27 6 0 10 -3 9 -7z m-210 -75 c-4 -40
-8 -84 -8 -97 -1 -14 -5 -21 -9 -15 -13 15 -2 184 12 184 9 0 10 -19 5 -72z
m162 29 c-8 -8 -11 -5 -11 9 0 27 14 41 18 19 2 -9 -1 -22 -7 -28z m-191 -4
c0 -21 -5 -45 -10 -53 -7 -11 -10 0 -10 38 0 28 5 52 10 52 6 0 10 -17 10 -37z
m170 18 c0 -23 -16 -36 -25 -21 -9 14 1 40 15 40 5 0 10 -9 10 -19z m-43 -23
c-3 -7 -5 -2 -5 12 0 14 2 19 5 13 2 -7 2 -19 0 -25z"/>
<path d="M6720 3985 c-9 -10 -17 -48 -20 -89 l-5 -71 -49 -7 c-27 -4 -53 -11
-59 -17 -10 -10 -6 -495 5 -506 8 -9 470 -7 516 1 l32 6 0 74 0 74 35 0 c65 0
71 16 78 201 8 194 1 314 -21 331 -11 10 -82 14 -256 16 -221 4 -243 2 -256
-13z m60 -10 c0 -3 -13 -29 -30 -58 -22 -38 -30 -46 -30 -30 0 25 37 93 51 93
5 0 9 -2 9 -5z m50 0 c0 -17 -64 -105 -77 -105 -12 0 -9 11 12 48 16 26 30 50
32 55 5 8 33 10 33 2z m40 0 c0 -3 -11 -23 -25 -45 -14 -22 -25 -44 -25 -50 0
-5 -7 -10 -15 -10 -8 0 -15 2 -15 5 0 3 7 17 15 30 8 14 22 36 30 50 14 22 35
34 35 20z m50 1 c0 -16 -65 -106 -76 -106 -16 0 -18 16 -4 25 6 4 19 24 30 46
11 21 27 39 35 39 8 0 15 -2 15 -4z m50 -1 c0 -3 -12 -27 -27 -55 -18 -31 -35
-50 -46 -50 -21 0 -22 -1 18 63 16 26 36 47 42 47 7 0 13 -2 13 -5z m40 -2 c1
-19 -46 -102 -57 -103 -19 0 -16 12 13 64 23 41 44 59 44 39z m50 2 c0 -16
-57 -105 -67 -105 -18 0 -17 3 18 60 26 42 49 63 49 45z m40 -5 c0 -17 -55
-100 -66 -100 -7 0 1 24 18 55 27 50 48 70 48 45z m30 -33 c-12 -18 -24 -40
-27 -49 -3 -10 -12 -18 -19 -18 -18 0 -18 5 1 35 8 14 22 36 30 50 9 14 20 23
26 19 6 -3 1 -18 -11 -37z m33 -21 c-15 -25 -34 -46 -42 -46 -11 0 -11 4 1 23
8 12 23 37 32 56 12 22 21 30 27 24 7 -7 0 -26 -18 -57z m-423 45 c0 -6 -4
-13 -10 -16 -5 -3 -10 1 -10 9 0 9 5 16 10 16 6 0 10 -4 10 -9z m480 0 c0 -6
-10 -27 -22 -48 -27 -48 -27 -47 -34 -41 -6 7 38 97 49 98 4 0 7 -4 7 -9z m6
-66 c-4 -14 -13 -25 -21 -25 -12 0 -11 5 3 29 19 34 27 33 18 -4z m4 -220 c0
-174 0 -175 -25 -191 -14 -9 -32 -13 -45 -9 -19 6 -20 14 -20 164 0 115 -3
161 -12 169 -7 5 -100 12 -208 15 -223 6 -200 4 -200 17 0 6 92 10 255 10
l255 0 0 -175z m-562 118 c-15 -34 -65 -113 -70 -113 -14 0 -9 19 17 70 14 28
32 50 41 50 9 0 14 -3 12 -7z m52 1 c0 -4 -14 -31 -31 -61 -30 -51 -53 -73
-65 -60 -9 9 68 127 82 127 8 0 14 -3 14 -6z m60 2 c0 -16 -75 -126 -86 -126
-20 0 -18 12 18 74 20 35 39 56 50 56 10 0 18 -2 18 -4z m50 -1 c0 -19 -64
-125 -76 -125 -8 0 -14 5 -14 11 0 22 62 119 76 119 8 0 14 -2 14 -5z m60 1
c0 -12 -74 -126 -81 -126 -14 0 -11 13 17 74 18 40 31 56 45 56 10 0 19 -2 19
-4z m50 -2 c0 -14 -72 -124 -81 -124 -15 0 -11 13 22 73 17 31 37 57 45 57 8
0 14 -3 14 -6z m50 1 c0 -18 -66 -125 -77 -125 -18 0 -11 23 23 85 14 25 32
45 40 45 8 0 14 -2 14 -5z m50 0 c0 -18 -66 -125 -77 -125 -7 0 -13 3 -13 6 0
11 55 109 65 116 11 9 25 10 25 3z m16 -65 c-17 -33 -37 -60 -43 -60 -7 0 -13
2 -13 5 0 11 54 110 64 117 24 16 21 -6 -8 -62z m-436 56 c0 -2 -7 -9 -15 -16
-13 -11 -14 -10 -9 4 5 14 24 23 24 12z m476 -65 c-23 -44 -46 -66 -46 -44 0
20 56 111 63 104 5 -5 -3 -32 -17 -60z m24 -25 c0 -17 -14 -29 -23 -20 -8 8 3
34 14 34 5 0 9 -6 9 -14z m0 -216 l0 -170 -259 0 -259 0 -1 162 c-1 88 -4 165
-7 170 -3 4 114 8 260 8 l266 0 0 -170z"/>
<path d="M6296 3881 c-9 -14 4 -41 20 -41 8 0 14 10 14 25 0 25 -23 35 -34 16z"/>
<path d="M7510 3850 c0 -23 26 -38 41 -23 14 14 0 43 -22 43 -12 0 -19 -7 -19
-20z"/>
<path d="M1999 3745 c-34 -47 -66 -85 -72 -85 -6 0 11 -14 39 -31 27 -17 51
-35 52 -40 2 -5 8 -9 13 -9 18 0 129 -84 129 -98 0 -7 -5 -23 -11 -35 -10 -21
-10 -21 5 -3 9 11 16 31 16 45 0 14 25 64 55 110 30 46 55 87 55 92 0 17 -178
139 -205 139 -7 0 -42 -38 -76 -85z m177 14 c49 -34 91 -63 93 -65 2 -2 -9
-22 -25 -45 -16 -23 -34 -49 -39 -58 -35 -55 -49 -72 -59 -68 -6 3 -46 29 -87
58 -42 30 -85 59 -95 65 -18 10 -17 14 16 55 20 24 47 61 60 81 14 21 30 38
36 38 6 0 51 -28 100 -61z"/>
<path d="M2027 3721 c-22 -37 -22 -36 14 -59 l32 -20 22 26 c27 31 24 42 -14
65 -37 21 -34 22 -54 -12z m57 -14 c16 -12 16 -14 2 -26 -17 -15 -46 -8 -46
10 0 7 9 9 23 6 21 -6 21 -6 3 8 -11 8 -15 15 -10 15 6 0 18 -6 28 -13z"/>
<path d="M2126 3651 c-14 -27 -14 -29 16 -51 32 -24 32 -23 59 23 8 14 5 22
-13 37 -32 27 -45 25 -62 -9z m34 -2 c0 -5 5 -7 10 -4 13 8 13 -16 -1 -35 -9
-13 -10 -13 -6 1 4 13 1 15 -14 12 -21 -6 -22 -3 -13 21 7 18 24 22 24 5z"/>
<path d="M6272 3802 c-16 -11 -34 -120 -23 -140 14 -24 38 23 46 91 6 56 2 65
-23 49z"/>
<path d="M7555 3780 c-6 -10 -4 -38 11 -112 3 -16 10 -28 16 -28 7 0 9 23 5
66 -5 66 -18 97 -32 74z"/>
<path d="M6155 3760 c-9 -15 4 -30 26 -30 12 0 19 7 19 20 0 21 -33 29 -45 10z"/>
<path d="M2975 3692 c-15 -7 -9 -10 29 -15 73 -10 112 -9 100 3 -14 14 -104
22 -129 12z"/>
<path d="M2744 3656 c-31 -14 -54 -36 -36 -36 18 0 117 32 127 41 14 14 -56
10 -91 -5z"/>
<path d="M3234 3650 c55 -31 116 -51 116 -39 0 13 -77 47 -122 55 l-33 5 39
-21z"/>
<path d="M1873 3603 c-27 -38 -35 -53 -30 -53 9 0 59 71 54 76 -3 3 -14 -7
-24 -23z"/>
<path d="M6256 3623 c-3 -4 -6 -15 -6 -25 0 -24 33 -21 38 3 3 17 -21 33 -32
22z"/>
<path d="M7541 3592 c-7 -13 -6 -23 1 -30 21 -21 38 -13 38 18 0 34 -23 41
-39 12z"/>
<path d="M2532 3533 c-46 -34 -83 -76 -49 -57 35 21 127 85 127 89 0 15 -34 0
-78 -32z"/>
<path d="M3440 3562 c0 -10 113 -92 126 -92 4 0 -5 14 -22 31 -31 33 -104 75
-104 61z"/>
<path d="M6260 3511 c-12 -24 18 -132 39 -139 11 -4 13 7 7 62 -10 97 -23 119
-46 77z"/>
<path d="M7555 3509 c-17 -48 -42 -135 -39 -138 10 -11 36 27 51 75 13 41 14
57 5 66 -9 9 -13 8 -17 -3z"/>
<path d="M1870 3506 c0 -2 8 -10 18 -17 15 -13 16 -12 3 4 -13 16 -21 21 -21
13z"/>
<path d="M1910 3476 c0 -2 14 -14 30 -26 17 -12 30 -19 30 -16 0 2 -13 14 -30
26 -16 12 -30 19 -30 16z"/>
<path d="M1980 3425 c0 -2 23 -20 52 -39 50 -34 53 -35 71 -18 10 9 23 26 29
37 5 11 -2 7 -15 -10 -23 -27 -28 -29 -48 -17 -49 31 -89 51 -89 47z"/>
<path d="M2388 3393 c-22 -24 -61 -113 -54 -120 7 -8 6 -9 45 60 34 59 38 93
9 60z"/>
<path d="M3620 3378 c0 -8 12 -25 26 -39 14 -13 32 -36 40 -51 15 -29 34 -37
34 -15 0 16 -71 109 -87 115 -7 2 -13 -3 -13 -10z"/>
<path d="M6332 3348 c-19 -19 -14 -28 13 -28 18 0 25 5 25 20 0 22 -20 26 -38
8z"/>
<path d="M7460 3315 c0 -26 18 -33 37 -14 16 16 5 39 -18 39 -14 0 -19 -7 -19
-25z"/>
<path d="M6375 3270 c-10 -16 88 -113 110 -109 15 3 9 14 -34 62 -54 58 -65
65 -76 47z"/>
<path d="M7404 3230 c-20 -22 -43 -49 -51 -60 -13 -18 -12 -20 5 -20 22 0 63
42 86 88 22 44 5 40 -40 -8z"/>
<path d="M2271 3157 c-14 -18 -36 -115 -28 -124 13 -12 25 11 40 75 14 61 11
75 -12 49z"/>
<path d="M3757 3153 c-5 -9 19 -107 33 -131 7 -14 9 -11 9 13 1 62 -28 142
-42 118z"/>
<path d="M6514 3135 c-4 -9 -2 -21 4 -27 15 -15 44 -1 40 19 -4 23 -36 29 -44
8z"/>
<path d="M6200 3133 c-48 -18 -90 -91 -90 -159 0 -89 75 -132 268 -154 109
-12 150 -27 180 -65 69 -88 -30 -173 -171 -147 -34 7 -63 15 -65 19 -12 33
-92 150 -114 166 -35 26 -125 26 -171 0 -63 -37 -83 -125 -41 -188 23 -35 103
-70 239 -105 127 -33 155 -51 155 -97 0 -50 -105 -125 -192 -137 -69 -10 -101
12 -140 94 -17 36 -40 75 -52 88 -20 22 -25 23 -118 16 l-98 -7 -10 27 c-5 15
-10 62 -10 105 0 103 -19 131 -89 131 -50 0 -74 -12 -131 -66 -33 -31 -37 -32
-66 -19 -25 10 -35 24 -48 63 -44 132 -140 127 -211 -13 -27 -55 -67 -105 -83
-105 -5 0 -34 20 -66 45 -75 58 -118 70 -166 47 -50 -24 -60 -53 -50 -137 6
-50 5 -77 -3 -95 -12 -24 -15 -25 -101 -21 l-88 3 -34 -33 c-50 -48 -47 -82
16 -160 28 -34 50 -70 50 -80 0 -18 -41 -53 -92 -78 -47 -24 -80 -66 -81 -104
-1 -53 24 -81 100 -112 76 -32 113 -60 113 -86 0 -10 -18 -47 -40 -81 -47 -74
-51 -114 -16 -155 23 -27 25 -27 129 -25 123 3 121 5 132 -98 13 -125 36 -160
105 -160 28 0 50 12 105 55 38 31 76 54 85 53 8 -2 26 -24 40 -50 45 -83 91
-122 143 -120 47 1 75 36 83 101 3 31 11 64 16 74 15 30 67 20 148 -28 87 -53
128 -58 165 -20 29 28 32 64 10 125 -21 59 -20 136 1 144 9 4 62 4 118 0 94
-6 103 -5 129 16 15 12 27 30 27 41 0 29 -33 87 -84 149 -64 77 -62 97 19 155
114 80 131 125 75 189 -23 25 -41 35 -74 40 -25 4 -50 14 -56 22 -17 20 -14
112 5 141 l16 24 32 -42 c71 -93 129 -105 241 -50 114 56 157 134 105 190 -29
31 -73 48 -182 70 -120 25 -138 32 -181 77 -42 43 -45 72 -15 120 26 42 47 54
96 54 51 0 95 -31 147 -104 60 -87 84 -101 164 -101 111 1 177 47 175 122 -3
96 -48 125 -244 159 -76 13 -154 30 -172 38 -64 26 -73 110 -19 175 22 26 37
34 74 38 65 7 83 1 163 -58 85 -62 124 -79 180 -79 32 0 52 7 73 25 17 14 39
25 51 25 12 0 21 4 21 9 0 11 -113 71 -134 71 -29 0 -17 -26 20 -44 l37 -17
-23 -16 c-12 -9 -41 -18 -64 -20 -38 -5 -49 0 -126 53 -47 32 -101 64 -120 71
-36 13 -94 16 -120 6z m-800 -447 c36 -76 73 -110 109 -101 14 4 47 24 73 45
101 80 147 59 148 -68 0 -71 1 -75 35 -109 l34 -34 88 3 88 3 3 -28 c2 -16 -4
-40 -13 -54 -61 -93 -20 -203 76 -203 56 0 69 -8 69 -43 0 -24 -14 -43 -67
-96 -115 -112 -116 -129 -23 -241 99 -119 79 -164 -63 -141 -148 24 -200 -35
-147 -169 24 -61 25 -93 4 -114 -25 -26 -59 -19 -120 24 -125 88 -203 69 -219
-52 -5 -34 -15 -59 -31 -75 -22 -22 -25 -23 -53 -8 -20 10 -43 39 -68 87 -58
111 -102 116 -203 23 -97 -89 -140 -70 -140 62 0 132 -17 147 -170 147 l-105
1 0 54 c1 45 5 57 27 75 45 36 57 128 22 167 -8 9 -42 24 -74 33 -33 9 -73 28
-90 42 -54 46 -35 87 67 138 61 30 88 64 78 98 -4 13 -27 55 -51 94 -24 40
-44 76 -44 82 0 6 14 22 32 37 26 22 38 26 70 21 123 -19 115 -19 142 8 31 30
35 93 10 156 -20 50 -14 67 31 85 48 21 58 19 96 -16 49 -44 91 -69 116 -69
32 0 85 50 117 112 39 73 55 88 87 88 25 0 32 -8 59 -64z"/>
<path d="M5050 2287 c0 -9 190 -569 198 -583 8 -15 13 -11 35 27 14 24 36 65
48 92 13 26 26 47 30 47 9 0 120 -115 132 -136 4 -8 14 -14 20 -14 15 0 97 81
97 95 0 5 -34 44 -76 86 l-76 77 86 47 c47 25 86 50 86 55 0 5 -73 32 -162 60
-181 57 -299 98 -370 129 -27 11 -48 19 -48 18z m102 -68 c64 -25 91 -34 281
-94 81 -25 147 -48 147 -50 0 -2 -36 -23 -80 -46 -45 -24 -79 -48 -78 -54 2
-7 27 -33 57 -59 30 -27 64 -60 77 -76 l23 -27 -32 -31 -32 -30 -74 84 c-41
46 -80 84 -87 84 -7 0 -16 -10 -19 -22 -12 -39 -67 -148 -75 -148 -4 0 -11 12
-14 28 -7 26 -66 195 -132 375 -17 48 -28 87 -23 87 4 0 32 -9 61 -21z"/>
<path d="M7280 3125 c-11 -13 -11 -19 2 -32 17 -16 38 -10 38 11 0 8 -6 19
-14 25 -10 9 -16 8 -26 -4z"/>
<path d="M7158 3058 c-47 -20 -57 -31 -40 -42 14 -9 78 15 109 40 l28 23 -25
0 c-14 0 -46 -9 -72 -21z"/>
<path d="M6762 3013 c2 -10 10 -18 18 -18 22 0 18 29 -3 33 -14 3 -18 -1 -15
-15z"/>
<path d="M7023 3014 c-8 -20 10 -36 30 -28 24 9 21 31 -4 37 -13 3 -22 0 -26
-9z"/>
<path d="M6850 3000 c-12 -7 -11 -10 5 -17 41 -16 164 -7 144 11 -11 9 -136
15 -149 6z"/>
<path d="M2227 2898 c-8 -32 2 -118 14 -118 11 0 11 97 0 125 -7 18 -8 17 -14
-7z"/>
<path d="M3797 2889 c-10 -36 -8 -131 2 -125 14 9 23 98 13 125 l-9 25 -6 -25z"/>
<path d="M6762 2713 c-53 -69 -242 -387 -242 -408 0 -16 27 -39 108 -92 59
-39 130 -83 158 -99 46 -25 54 -27 69 -14 28 23 275 399 275 418 0 10 -12 30
-27 44 -44 41 -273 188 -293 188 -10 0 -31 -17 -48 -37z m45 11 c-3 -3 -12 -4
-19 -1 -8 3 -5 6 6 6 11 1 17 -2 13 -5z m34 -7 c-1 -12 -15 -9 -19 4 -3 6 1
10 8 8 6 -3 11 -8 11 -12z m-41 -20 c0 -7 -13 -21 -30 -30 -37 -22 -40 -6 -4
22 31 25 34 25 34 8z m14 -48 c-41 -21 -83 -44 -91 -51 -13 -10 -15 -9 -12 6
2 11 31 34 71 55 36 20 70 39 74 43 4 4 13 3 21 -4 11 -9 -2 -19 -63 -49z
m106 23 c0 -11 -66 -42 -88 -42 -10 0 -1 10 23 25 41 25 65 32 65 17z m30 -22
c0 -14 -39 -32 -52 -24 -7 4 -2 12 13 20 29 16 39 17 39 4z m35 -19 c7 -13
-32 -34 -47 -25 -7 5 -5 11 7 21 22 15 32 16 40 4z m-55 -43 c57 -39 75 -72
75 -137 0 -48 -5 -64 -29 -95 -35 -47 -87 -70 -139 -63 -59 8 -65 21 -23 49
20 14 34 27 31 30 -3 3 -26 1 -53 -3 -72 -12 -78 -11 -90 16 -37 80 7 187 88
218 38 14 108 6 140 -15z m90 13 c0 -9 -41 -23 -48 -16 -2 2 -1 8 3 14 8 13
45 15 45 2z m30 -19 c0 -13 -49 -36 -57 -28 -5 4 1 14 11 22 22 15 46 19 46 6z
m-355 -32 c-10 -11 -20 -18 -23 -15 -3 3 3 14 13 25 10 11 20 18 23 15 3 -3
-3 -14 -13 -25z m398 6 c9 -7 17 -19 17 -27 -1 -10 -5 -9 -14 4 -13 17 -16 17
-45 3 -35 -19 -41 -19 -41 -6 0 8 47 39 60 39 3 0 13 -6 23 -13z m-38 -62
c-18 -13 -35 -10 -35 5 0 4 10 13 23 18 28 13 37 -5 12 -23z m-375 17 c0 -13
-29 -35 -37 -28 -7 8 15 37 28 37 5 0 9 -4 9 -9z m424 -25 c-4 -9 -19 -23 -35
-31 -34 -18 -39 -18 -39 -2 0 11 71 59 78 52 1 -1 0 -10 -4 -19z m-434 -26 c0
-13 -50 -33 -59 -24 -7 7 28 34 46 34 7 0 13 -5 13 -10z m0 -38 c0 -10 -12
-21 -32 -28 -18 -6 -41 -15 -52 -19 -14 -6 -18 -5 -14 6 3 10 73 53 96 58 1 1
2 -7 2 -17z m390 -1 c0 -13 -29 -35 -37 -28 -7 8 15 37 28 37 5 0 9 -4 9 -9z
m-380 -45 c0 -8 -12 -17 -26 -20 -14 -4 -48 -17 -75 -31 -27 -13 -49 -20 -49
-17 1 18 21 36 66 57 57 27 84 31 84 11z m330 -31 c-7 -9 -15 -13 -18 -10 -3
2 1 11 8 20 7 9 15 13 18 10 3 -2 -1 -11 -8 -20z m-240 -2 c0 -13 -68 -53 -90
-53 -13 0 -20 7 -20 20 0 20 13 26 75 33 17 2 31 5 33 6 1 0 2 -2 2 -6z m-139
-37 c-20 -24 -71 -40 -84 -27 -8 8 -8 11 1 11 6 0 28 12 49 26 37 25 58 19 34
-10z m359 6 c0 -18 -50 -52 -147 -101 -57 -28 -107 -51 -113 -51 -29 0 0 22
93 70 56 29 113 61 127 71 27 20 40 23 40 11z m-200 -22 c18 -11 18 -11 -63
-48 -60 -28 -97 -33 -97 -13 0 7 119 70 135 70 6 0 17 -3 25 -9z m-130 -19 c0
-11 -50 -32 -61 -26 -15 10 -10 21 14 32 22 10 47 7 47 -6z m210 2 c-1 -9
-159 -84 -177 -83 -28 0 -10 17 55 51 62 34 123 49 122 32z m57 -51 c-23 -25
-155 -87 -164 -77 -5 4 -3 10 2 12 6 2 46 23 90 46 44 24 82 42 84 40 2 -2 -3
-11 -12 -21z m-39 -61 c-15 -25 -38 -35 -50 -23 -6 6 4 17 24 29 39 23 44 22
26 -6z m-68 -29 c0 -13 -12 -22 -22 -16 -10 6 -1 24 13 24 5 0 9 -4 9 -8z m35
-22 c-3 -5 -14 -10 -23 -10 -15 0 -15 2 -2 10 20 13 33 13 25 0z"/>
<path d="M6833 2522 c-27 -4 -53 -38 -53 -67 0 -50 80 -84 114 -49 52 52 12
128 -61 116z m50 -44 c-2 -5 2 -8 9 -8 8 0 6 -5 -5 -11 -9 -5 -22 -7 -27 -4
-16 10 -51 -5 -44 -18 4 -7 2 -7 -7 1 -11 11 -12 14 -1 21 8 5 12 11 10 15 -1
4 8 13 21 21 18 9 28 10 37 1 6 -6 10 -14 7 -18z m17 -33 c0 -9 -62 -36 -73
-32 -7 3 4 12 23 20 37 17 50 20 50 12z"/>
<path d="M6830 2480 c-13 -9 -13 -10 0 -10 8 0 22 5 30 10 13 9 13 10 0 10 -8
0 -22 -5 -30 -10z"/>
<path d="M3999 2694 c-6 -8 -12 -37 -13 -65 -1 -62 -20 -53 224 -103 125 -26
168 -31 177 -23 6 7 16 36 21 65 9 50 8 54 -12 63 -17 7 -238 51 -358 72 -16
2 -33 -1 -39 -9z m31 -54 c-18 -23 -30 -43 -27 -46 3 -3 20 15 39 40 18 25 41
45 51 46 24 0 22 -5 -20 -56 -39 -47 -75 -56 -81 -21 -4 20 37 76 56 76 8 1 0
-16 -18 -39z m123 24 c10 -11 -66 -94 -86 -94 -15 0 -12 8 20 50 36 47 52 58
66 44z m57 -11 c-1 -17 -79 -93 -94 -93 -12 0 -7 12 21 50 20 28 45 50 55 50
10 0 18 -3 18 -7z m48 -12 c-8 -23 -81 -92 -93 -89 -20 4 54 98 78 98 10 0 17
-4 15 -9z m52 -7 c0 -18 -74 -94 -91 -94 -26 0 -25 5 19 55 32 38 72 59 72 39z
m50 -11 c-1 -18 -80 -94 -94 -91 -21 4 52 98 76 98 10 0 18 -3 18 -7z m40 -12
c0 -6 -4 -12 -9 -16 -5 -3 -7 -21 -4 -40 4 -27 2 -36 -11 -41 -26 -10 -31 4
-11 26 10 11 16 23 13 26 -3 3 -15 -7 -26 -21 -12 -15 -28 -25 -36 -23 -11 2
-6 15 22 51 33 43 62 61 62 38z"/>
<path d="M2261 2633 c26 -71 79 -139 79 -103 0 24 -61 130 -75 130 -12 0 -12
-5 -4 -27z"/>
<path d="M3748 2628 c-18 -28 -58 -105 -58 -113 0 -30 70 63 85 113 3 12 2 22
-3 22 -5 0 -16 -10 -24 -22z"/>
<path d="M3980 2520 c-15 -9 -30 -75 -23 -99 6 -22 4 -22 223 -67 187 -38 188
-38 200 41 9 57 11 56 -150 90 -155 32 -236 44 -250 35z m16 -27 c-6 -15 -5
-15 13 1 34 31 30 3 -5 -38 -29 -34 -34 -36 -34 -18 0 12 5 22 11 22 6 0 8 7
5 16 -6 15 0 34 11 34 3 0 2 -8 -1 -17z m84 1 c0 -14 -73 -93 -81 -88 -12 7
51 94 68 94 7 0 13 -3 13 -6z m50 -11 c-1 -19 -68 -85 -83 -82 -13 3 -11 12
16 46 28 37 68 58 67 36z m50 -11 c0 -18 -63 -82 -81 -82 -18 0 -17 4 12 45
18 25 40 45 51 45 10 0 18 -3 18 -8z m53 -9 c10 -16 -61 -85 -82 -81 -19 3
-17 6 15 46 34 39 57 52 67 35z m47 -9 c0 -10 -63 -94 -70 -94 -20 0 -16 17
12 56 27 38 58 58 58 38z m40 -16 c0 -19 -66 -93 -73 -82 -8 13 44 94 61 94 6
0 12 -6 12 -12z m43 -4 c8 -9 -64 -94 -75 -88 -9 6 48 94 61 94 4 0 10 -3 14
-6z m-2 -68 c-6 -14 -18 -26 -26 -26 -14 0 -13 5 5 31 26 35 35 33 21 -5z"/>
<path d="M2390 2407 c24 -40 77 -93 86 -85 9 9 -76 118 -92 118 -10 0 -8 -8 6
-33z"/>
<path d="M1740 2413 c-66 -24 -144 -106 -164 -173 -20 -68 -20 -112 0 -180 21
-72 98 -150 173 -175 76 -25 170 -23 214 4 47 29 125 114 143 156 19 46 18
150 -2 208 -19 56 -95 144 -141 163 -43 18 -167 16 -223 -3z m215 -12 c93 -43
149 -142 150 -262 0 -72 -2 -80 -37 -130 -72 -105 -153 -145 -254 -129 -67 11
-129 46 -174 96 -47 54 -63 99 -63 175 0 110 67 207 174 250 59 24 152 24 204
0z"/>
<path d="M1790 2252 c-97 -48 -72 -194 36 -209 130 -17 187 155 70 211 -43 20
-63 20 -106 -2z m4 -67 c-21 -32 -40 -52 -42 -46 -2 6 4 21 12 33 21 29 21 48
0 22 -14 -18 -15 -18 -4 4 6 12 14 20 19 18 4 -3 15 4 25 15 34 40 27 10 -10
-46z m57 32 c-16 -16 -26 0 -10 19 9 11 15 12 17 4 2 -6 -1 -17 -7 -23z m42
17 c9 -10 -4 -34 -19 -34 -16 0 -16 2 -8 24 6 17 16 20 27 10z m27 -26 c0 -19
-18 -43 -25 -36 -9 9 4 48 16 48 5 0 9 -6 9 -12z m-47 -39 c16 -26 1 -49 -32
-49 -35 0 -45 12 -37 46 5 20 12 25 33 22 14 -2 31 -10 36 -19z m67 11 c0 -6
-14 -35 -31 -64 -26 -47 -34 -55 -59 -54 -26 1 -28 3 -18 22 11 20 11 20 18 1
6 -17 12 -11 38 35 18 30 32 58 32 63 0 4 5 7 10 7 6 0 10 -5 10 -10z m-150
-59 c0 -20 -13 -35 -23 -25 -7 8 4 44 14 44 5 0 9 -9 9 -19z m132 -23 c-7 -7
-12 -8 -12 -2 0 6 3 14 7 17 3 4 9 5 12 2 2 -3 -1 -11 -7 -17z m-102 -7 c0
-12 -20 -25 -27 -18 -7 7 6 27 18 27 5 0 9 -4 9 -9z"/>
<path d="M3586 2365 c-26 -30 -42 -55 -36 -55 16 0 100 81 100 96 0 25 -15 15
-64 -41z"/>
<path d="M3945 2336 c-17 -13 -37 -98 -26 -109 10 -10 340 -77 376 -77 31 0
47 22 52 74 5 45 5 45 -33 55 -60 16 -181 40 -271 55 -61 10 -87 10 -98 2z
m29 -17 c4 6 12 9 17 5 6 -3 -1 -21 -17 -41 -14 -19 -24 -36 -22 -39 2 -2 18
14 34 36 25 34 64 54 64 33 0 -12 -65 -92 -75 -92 -5 0 -19 6 -30 14 -18 14
-18 17 -3 43 8 15 13 34 11 42 -4 12 -3 12 5 1 7 -9 12 -10 16 -2z m116 -20
c0 -21 -61 -88 -75 -83 -11 5 -7 16 18 50 31 41 57 57 57 33z m50 -5 c0 -17
-58 -84 -73 -84 -15 0 -13 7 13 45 17 25 37 45 45 45 8 0 15 -3 15 -6z m19
-49 c-28 -38 -59 -59 -59 -39 0 17 58 84 73 84 15 0 13 -7 -14 -45z m71 28 c0
-19 -55 -83 -72 -83 -17 0 -16 5 12 45 27 39 60 60 60 38z m95 -19 c12 -9 15
-18 9 -31 -4 -10 -8 -25 -8 -33 -1 -8 -6 -15 -11 -15 -6 0 -16 -4 -22 -8 -19
-12 -16 3 8 42 11 18 18 35 15 38 -2 3 -15 -14 -28 -36 -13 -22 -29 -41 -35
-41 -19 0 -16 18 8 52 12 16 19 32 16 34 -3 3 -18 -13 -33 -35 -14 -23 -33
-41 -41 -41 -17 0 -16 3 17 52 20 30 31 37 56 36 17 -1 39 -7 49 -14z"/>
<path d="M2565 2250 c10 -16 75 -55 113 -68 58 -20 34 3 -44 41 -41 21 -73 33
-69 27z"/>
<path d="M3373 2220 c-29 -17 -53 -35 -53 -40 0 -6 2 -10 5 -10 14 0 103 50
114 64 22 26 -7 20 -66 -14z"/>
<path d="M2800 2142 c0 -15 28 -23 105 -29 66 -5 69 -5 53 12 -19 20 -158 35
-158 17z"/>
<path d="M3110 2138 c-55 -15 -59 -28 -9 -28 55 0 121 18 114 31 -8 11 -59 10
-105 -3z"/>
<path d="M3374 2118 c6 -31 45 -83 54 -73 8 8 -40 105 -51 105 -5 0 -7 -14 -3
-32z"/>
<path d="M2814 2014 c-27 -14 -65 -41 -84 -60 -20 -19 -41 -34 -48 -34 -6 0
-16 -9 -22 -20 -15 -27 -25 -26 -140 20 -55 22 -109 40 -118 40 -10 0 -28 -10
-40 -23 -27 -28 -112 -216 -141 -310 -33 -108 -30 -112 189 -202 213 -88 421
-165 445 -165 16 0 30 11 44 33 34 56 134 320 139 369 l4 47 -93 44 c-52 24
-102 47 -111 50 -11 4 -19 18 -19 37 -1 16 -2 35 -3 42 -1 6 19 24 44 38 50
29 58 47 40 91 -15 36 -24 36 -86 3z m71 -35 c-4 -5 -14 -9 -23 -9 -9 -1 -41
-9 -69 -19 -78 -26 -65 -8 15 21 65 25 89 27 77 7z m-79 -54 c-27 -14 -53 -22
-59 -18 -6 3 10 14 34 24 65 26 82 22 25 -6z m-367 6 c12 -8 9 -12 -14 -23
-17 -7 -38 -21 -47 -30 -19 -19 -38 -24 -38 -9 0 9 70 71 80 71 3 0 12 -4 19
-9z m50 -20 c11 -7 10 -11 -7 -20 -11 -6 -28 -8 -38 -4 -16 6 -16 7 2 20 21
15 24 16 43 4z m45 -20 c3 -5 -5 -16 -18 -25 -21 -13 -25 -13 -30 -1 -8 21 36
45 48 26z m216 -17 c27 -11 40 -22 40 -35 0 -18 -2 -19 -37 -3 -21 9 -48 19
-60 21 -23 5 -29 14 -16 26 10 11 29 8 73 -9z m-170 -4 c13 -9 13 -11 0 -20
-8 -6 -23 -8 -33 -6 -11 3 -24 -5 -33 -20 -16 -24 -44 -33 -44 -15 0 9 78 70
90 70 3 1 12 -4 20 -9z m-128 -19 c4 -3 5 -17 1 -29 -4 -17 -10 -21 -27 -16
-31 9 -36 17 -29 42 4 17 10 21 27 16 11 -3 24 -9 28 -13z m-103 -32 c-33 -24
-38 -14 -8 17 15 16 25 21 28 13 2 -6 -7 -20 -20 -30z m290 15 c-13 -16 -45
-19 -54 -5 -8 14 24 29 47 23 14 -3 16 -7 7 -18z m46 -4 c3 -5 -9 -19 -27 -30
-39 -23 -51 -9 -16 20 26 22 34 24 43 10z m-102 -30 c5 -4 6 -18 2 -30 -6 -18
-12 -20 -33 -15 -35 9 -34 8 -26 39 5 21 10 25 28 20 11 -3 25 -10 29 -14z
m152 14 c14 -6 14 -8 -4 -20 -25 -18 -57 -8 -40 12 13 16 20 17 44 8z m-357
-13 c9 -5 26 -12 37 -16 18 -6 18 -7 3 -16 -19 -10 -51 -1 -42 12 8 13 -7 10
-36 -6 -30 -17 -40 -18 -40 -5 0 5 12 16 28 24 33 18 29 18 50 7z m420 -10
c11 -6 7 -13 -16 -30 -37 -26 -38 -26 -45 -1 -8 30 32 50 61 31z m-312 -36
c-6 -17 -42 -20 -51 -5 -3 5 7 16 22 24 29 15 40 7 29 -19z m349 -2 c-11 -7
-22 -13 -27 -13 -14 0 -8 19 9 29 25 13 40 1 18 -16z m-136 5 c27 -17 7 -61
-23 -52 -31 9 -36 17 -30 42 7 24 25 28 53 10z m-78 -20 c-10 -28 -58 -45 -83
-29 -10 6 -27 11 -38 11 -12 0 -18 5 -15 10 3 6 15 10 26 10 10 0 19 -4 19
-10 0 -19 59 -11 70 10 15 27 31 26 21 -2z m277 13 c21 -13 -29 -42 -52 -29
-17 9 -17 10 1 24 21 16 33 17 51 5z m-568 -10 c0 -6 -10 -17 -22 -26 -28 -19
-40 1 -12 22 21 15 34 17 34 4z m64 -2 c21 -10 23 -15 14 -40 -5 -16 -12 -29
-15 -29 -4 0 -44 20 -51 25 -3 3 20 55 24 55 2 0 14 -5 28 -11z m561 -19 c-2
-4 -18 -13 -35 -20 -16 -7 -30 -16 -30 -21 0 -5 -7 -9 -15 -9 -23 0 -1 36 32
54 27 14 57 11 48 -4z m-209 -25 c-21 -32 -41 -34 -25 -2 13 23 31 39 38 32 2
-3 -4 -16 -13 -30z m-282 11 c-5 -13 -34 -31 -34 -22 0 16 14 36 26 36 7 0 11
-6 8 -14z m351 2 c19 -9 24 -16 19 -32 -10 -33 -17 -36 -41 -18 -16 12 -21 23
-17 40 7 26 6 25 39 10z m195 -7 c0 -12 -39 -31 -55 -25 -21 9 -19 19 8 31 22
10 47 7 47 -6z m-701 -25 c-13 -11 -49 -16 -49 -6 0 14 44 31 49 18 1 -5 1
-11 0 -12z m331 16 c0 -4 -16 -15 -35 -24 -33 -15 -35 -14 -35 2 0 10 6 21 13
23 20 9 57 8 57 -1z m-111 -16 c9 -11 10 -20 1 -35 -13 -25 -20 -26 -44 -8
-13 10 -16 20 -12 35 8 25 38 29 55 8z m159 -5 c11 -7 11 -9 -2 -14 -20 -8
-48 2 -40 14 7 11 25 11 42 0z m342 5 c0 -16 -14 -36 -26 -36 -14 0 -19 22 -7
33 7 8 33 10 33 3z m-682 -18 c17 -17 60 -19 66 -2 3 8 12 14 20 14 25 0 8
-25 -25 -37 -31 -12 -59 -8 -59 8 0 5 -12 9 -26 9 -14 0 -23 4 -19 10 8 13 28
13 43 -2z m402 -7 c0 -7 -43 -31 -55 -31 -15 0 -1 29 18 37 22 11 37 8 37 -6z
m210 -26 c0 -12 -3 -24 -6 -28 -5 -4 -41 6 -62 19 -1 1 2 13 9 27 10 22 14 24
35 15 15 -7 24 -20 24 -33z m-89 3 c-10 -26 -42 -41 -67 -31 -18 7 -8 23 15
23 10 0 26 9 36 20 23 25 28 20 16 -12z m-595 7 c-23 -17 -36 -19 -36 -6 0 5
8 12 18 14 32 9 37 6 18 -8z m294 -16 c0 -22 -62 -54 -87 -45 -23 9 -5 26 27
26 19 0 33 7 40 20 14 26 20 25 20 -1z m78 12 c8 -5 11 -17 7 -34 -6 -23 -9
-25 -36 -15 -20 7 -28 15 -25 25 3 8 6 19 6 24 0 11 30 12 48 0z m137 -1 c3
-5 -3 -10 -15 -10 -12 0 -18 5 -15 10 3 6 10 10 15 10 5 0 12 -4 15 -10z
m-326 -31 c-8 -5 -22 -9 -31 -9 -10 0 -22 -9 -28 -21 -15 -27 -23 -19 -14 16
8 31 41 47 68 33 15 -8 16 -12 5 -19z m-110 7 c12 -15 5 -66 -9 -66 -5 0 -20
4 -34 10 -23 8 -24 12 -15 40 12 32 38 40 58 16z m661 6 c0 -11 -22 -32 -32
-32 -5 0 -4 9 2 20 11 20 30 28 30 12z m-740 -12 c0 -9 -31 -30 -45 -30 -3 0
-1 9 5 20 11 20 40 28 40 10z m432 -22 c-6 -6 -16 -8 -22 -6 -9 3 -7 9 6 22
13 13 19 15 22 6 2 -6 0 -16 -6 -22z m88 -17 c0 -30 -17 -44 -44 -37 -27 7
-33 25 -16 56 9 17 14 18 35 8 14 -6 25 -18 25 -27z m98 21 c2 -7 -6 -12 -18
-12 -12 0 -31 -10 -41 -22 l-20 -23 7 25 c3 14 7 25 8 25 0 0 10 5 21 12 23
14 37 12 43 -5z m-303 -12 c7 -11 -42 -26 -53 -16 -7 8 17 26 35 26 6 0 15 -4
18 -10z m10 -64 c145 -54 148 -56 140 -89 l-7 -26 -51 21 c-29 11 -99 38 -156
59 -58 22 -106 41 -108 43 -2 2 1 15 6 29 10 24 13 26 38 16 15 -6 78 -30 138
-53z m350 54 c-3 -5 -12 -10 -20 -10 -8 0 -17 5 -20 10 -4 6 5 10 20 10 15 0
24 -4 20 -10z m-685 -15 c0 -8 -6 -15 -14 -15 -17 0 -28 14 -19 24 12 12 33 6
33 -9z m365 -6 c-10 -15 18 -10 43 7 20 14 22 14 22 -4 0 -27 -24 -34 -71 -19
-42 13 -50 23 -21 30 22 5 34 -2 27 -14z m351 -7 c-4 -11 -13 -23 -21 -26 -22
-8 -19 31 2 43 22 12 27 8 19 -17z m-70 -3 c10 -16 -7 -49 -24 -49 -33 0 -44
15 -31 42 11 25 41 29 55 7z m-516 -4 c0 -19 -52 -46 -69 -36 -9 6 -1 15 26
29 21 11 39 21 41 21 1 1 2 -6 2 -14z m-80 -5 c0 -5 -12 -10 -26 -10 -14 0
-23 4 -19 10 3 6 15 10 26 10 10 0 19 -4 19 -10z m420 -21 c0 -11 -27 -12 -34
0 -3 4 -3 11 0 14 8 8 34 -3 34 -14z m90 6 c0 -20 -43 -40 -67 -31 -15 6 -11
11 22 26 22 10 41 19 43 19 1 1 2 -6 2 -14z m-401 -24 c11 -7 10 -10 -6 -15
-24 -8 -55 2 -47 15 7 11 35 11 53 0z m528 -15 c-9 -22 -65 -48 -89 -40 -16 5
-18 8 -7 15 8 5 25 9 39 9 15 0 31 9 38 21 15 23 28 19 19 -5z m-486 -11 c0
-13 -41 -19 -41 -7 0 11 20 22 33 18 5 -1 8 -6 8 -11z m384 5 c3 -5 -7 -12
-22 -16 -15 -4 -34 -11 -40 -17 -9 -7 -13 -5 -13 6 0 28 61 50 75 27z m-326
-19 c12 -8 9 -11 -12 -17 -32 -7 -49 3 -27 16 19 12 21 12 39 1z m56 -21 c7
-11 -42 -26 -53 -16 -7 8 17 26 35 26 6 0 15 -4 18 -10z m336 -33 l-21 -21 0
21 c0 12 8 26 18 32 26 15 28 -7 3 -32z m-288 8 c1 -5 -10 -11 -25 -13 -16 -2
-28 1 -28 7 0 20 49 26 53 6z m232 5 c3 -5 3 -20 -1 -34 -5 -22 -8 -23 -35
-14 -20 7 -28 15 -25 25 3 8 6 19 6 24 0 12 47 12 55 -1z m-88 -23 c-8 -20
-65 -47 -84 -40 -12 5 -11 8 8 19 13 7 31 13 40 14 9 0 20 7 23 16 4 9 9 14
12 11 4 -3 4 -13 1 -20z m-88 4 c11 -7 10 -11 -7 -20 -11 -6 -28 -8 -38 -4
-16 6 -16 7 2 20 21 15 24 16 43 4z m218 -38 c-9 -9 -20 -13 -24 -9 -4 4 -1
11 7 16 25 16 35 11 17 -7z m-107 -12 c0 -13 -34 -23 -54 -15 -9 3 -13 10 -10
15 7 12 64 12 64 0z m38 -27 c-10 -10 -23 -14 -34 -10 -16 6 -16 8 -4 16 8 6
24 10 35 10 18 0 18 -1 3 -16z m56 -8 c-5 -14 -54 -24 -54 -11 0 5 54 34 58
31 1 -2 0 -11 -4 -20z"/>
<path d="M3440 1988 c1 -19 36 -95 49 -102 16 -10 14 6 -8 57 -20 45 -41 69
-41 45z"/>
<path d="M3536 1835 c-21 -7 -46 -21 -55 -31 -15 -15 -14 -16 14 -10 17 4 56
12 88 19 33 7 57 17 57 24 0 17 -54 16 -104 -2z"/>
<path d="M3717 1843 c-14 -13 -6 -23 16 -23 22 0 89 -18 130 -35 9 -4 17 -3
17 3 0 27 -143 76 -163 55z"/>
<path d="M3929 1753 c5 -10 35 -43 65 -73 74 -72 76 -41 3 35 -52 54 -88 74
-68 38z"/>
<path d="M3352 1717 c-60 -62 -52 -79 11 -21 58 54 65 64 45 64 -8 0 -33 -19
-56 -43z"/>
<path d="M4370 1711 c8 -6 22 -11 31 -11 23 0 79 -66 80 -93 0 -12 5 -31 10
-42 7 -15 8 -9 3 20 -11 76 -45 116 -109 130 -23 5 -26 4 -15 -4z"/>
<path d="M4298 1679 l-31 -30 7 -92 c16 -227 24 -262 67 -312 26 -29 38 -35
71 -35 32 0 47 7 74 34 19 19 34 40 34 47 -1 10 -4 8 -11 -3 -17 -29 -38 -10
-36 33 1 42 8 47 27 24 7 -9 15 -13 18 -10 3 2 -7 16 -21 29 -28 26 -36 51
-14 44 6 -3 18 -15 24 -29 12 -22 13 -20 12 26 0 28 -4 70 -8 95 l-7 45 -9
-48 c-10 -63 -38 -95 -92 -103 -41 -6 -43 -6 -43 20 0 23 4 26 35 26 42 0 55
20 55 87 0 99 -26 143 -84 143 -35 0 -49 -30 -41 -93 4 -38 1 -57 -10 -71 -20
-26 -24 -20 -31 51 -9 80 0 110 39 133 17 11 26 20 19 20 -8 0 -27 -14 -44
-31z m121 -57 c5 -9 12 -32 16 -49 l7 -33 -45 0 c-48 0 -57 11 -57 72 0 49 55
56 79 10z m18 -109 c4 -10 -20 -23 -56 -29 -7 -2 -19 -8 -24 -13 -11 -11 -12
-89 -1 -123 9 -30 -13 -20 -35 15 -12 20 -19 44 -16 62 2 17 4 35 4 41 1 6 12
23 25 37 19 20 33 26 62 24 20 -1 39 -7 41 -14z m-22 -53 c-3 -5 -15 -10 -26
-10 -10 0 -19 5 -19 10 0 6 12 10 26 10 14 0 23 -4 19 -10z m95 -40 c0 -5 -4
-10 -10 -10 -5 0 -10 5 -10 10 0 6 5 10 10 10 6 0 10 -4 10 -10z m-50 -75 c0
-35 -21 -65 -45 -65 -19 0 -45 28 -45 50 0 10 -3 25 -6 34 -4 11 4 15 38 18
56 4 58 3 58 -37z m-62 -120 c-6 -6 -35 20 -47 43 -7 12 -16 20 -21 17 -6 -3
-7 0 -4 8 3 8 1 18 -5 22 -6 3 -11 16 -11 28 0 16 13 2 46 -46 25 -38 44 -70
42 -72z m82 29 c0 -18 -14 -18 -30 1 -16 19 -3 40 16 24 8 -6 14 -18 14 -25z
m-43 -4 c17 -26 -3 -38 -22 -14 -18 24 -19 34 -2 34 7 0 18 -9 24 -20z"/>
<path d="M3256 1572 c-20 -39 -31 -108 -18 -116 10 -6 48 131 39 141 -3 3 -12
-9 -21 -25z"/>
<path d="M4065 1583 c3 -10 13 -42 21 -72 18 -72 24 -75 24 -13 0 62 -14 102
-36 102 -11 0 -14 -5 -9 -17z"/>
<path d="M3625 1539 c-28 -3 21 -6 110 -7 88 0 156 1 150 3 -20 7 -211 10
-260 4z"/>
<path d="M3483 1532 c-6 -4 -14 -19 -18 -32 -3 -14 -16 -30 -28 -35 -23 -11
-38 -75 -17 -75 6 0 8 10 4 25 -4 18 -1 27 10 31 23 9 27 3 30 -45 3 -38 1
-41 -21 -41 -14 0 -21 -4 -18 -10 3 -5 15 -10 26 -10 13 0 19 -7 19 -22 0 -13
4 -28 8 -35 15 -24 452 -29 452 -5 0 4 -99 6 -220 4 l-219 -3 -6 23 c-3 13 -5
68 -3 123 l3 100 40 6 40 6 -35 1 c-19 1 -40 -2 -47 -6z"/>
<path d="M3900 1536 c0 -2 7 -7 16 -10 8 -3 12 -2 9 4 -6 10 -25 14 -25 6z"/>
<path d="M3508 1480 c-2 -14 -2 -59 0 -101 l3 -77 143 -7 c79 -4 166 -4 195 0
l51 7 0 102 0 103 -195 -1 -194 -1 -3 -25z m206 -2 c-3 -4 -16 -8 -30 -8 -22
0 -24 -4 -24 -45 0 -25 5 -45 10 -45 6 0 10 -16 10 -35 l0 -35 -74 0 c-59 0
-75 3 -80 16 -4 9 -3 22 2 28 5 6 8 39 6 74 l-2 63 94 -2 c51 -1 91 -6 88 -11z
m36 2 c0 -5 -4 -10 -10 -10 -5 0 -10 5 -10 10 0 6 5 10 10 10 6 0 10 -4 10
-10z m128 -50 c-2 -33 -1 -60 3 -60 4 0 7 -14 7 -30 -1 -30 -1 -30 -55 -28
-55 2 -61 6 -41 26 6 6 9 15 5 18 -3 4 -12 -5 -18 -20 -7 -14 -19 -26 -27 -26
-10 0 -7 12 13 45 14 25 25 50 23 56 -2 5 -16 -15 -31 -46 -29 -55 -53 -72
-53 -35 0 10 2 17 5 15 2 -3 14 12 27 32 19 32 20 39 7 48 -12 9 -12 14 6 36
17 22 29 26 77 28 l56 2 -4 -61z m-168 24 c0 -3 -5 -14 -10 -25 -8 -15 -7 -19
5 -19 17 0 19 -9 5 -30 -6 -10 -10 -11 -10 -2 0 6 -7 12 -15 12 -15 0 -22 50
-8 63 8 8 33 9 33 1z"/>
<path d="M3550 1455 c-7 -9 -10 -18 -7 -21 3 -3 10 4 17 15 13 25 8 27 -10 6z"/>
<path d="M3574 1438 c-4 -7 -15 -24 -23 -38 -10 -15 -11 -21 -3 -16 13 7 46
66 38 66 -3 0 -8 -6 -12 -12z"/>
<path d="M3586 1399 c-14 -23 -25 -43 -23 -46 2 -2 16 15 31 38 15 22 26 43
23 45 -2 2 -16 -15 -31 -37z"/>
<path d="M3610 1380 c-12 -16 -19 -30 -16 -30 2 0 14 14 26 30 12 17 19 30 16
30 -2 0 -14 -13 -26 -30z"/>
<path d="M3770 1450 c-6 -11 -8 -20 -6 -20 3 0 10 9 16 20 6 11 8 20 6 20 -3
0 -10 -9 -16 -20z"/>
<path d="M3929 1458 c-2 -86 0 -140 5 -146 4 -3 6 38 6 91 0 53 -2 97 -5 97
-3 0 -5 -19 -6 -42z"/>
<path d="M3233 1359 c4 -24 12 -62 19 -84 17 -59 23 -16 8 57 -15 71 -36 92
-27 27z"/>
<path d="M4093 1337 c-6 -34 -14 -74 -18 -89 -11 -41 13 -36 31 7 15 37 19
131 6 139 -4 3 -13 -23 -19 -57z"/>
<path d="M3294 1173 c22 -43 73 -99 82 -91 10 11 -65 118 -82 118 -12 0 -12
-4 0 -27z"/>
<path d="M4011 1135 c-55 -73 -64 -99 -19 -57 37 35 85 112 70 112 -5 0 -28
-25 -51 -55z"/>
<path d="M3420 1031 c0 -12 98 -61 122 -61 34 0 18 16 -44 43 -69 29 -78 32
-78 18z"/>
<path d="M3848 1006 c-32 -17 -58 -34 -58 -39 0 -12 51 3 97 29 89 51 52 60
-39 10z"/>
<path d="M3600 971 c0 -13 74 -24 110 -16 53 12 32 25 -40 25 -38 0 -70 -4
-70 -9z"/>
</g>
</svg>
