<svg xmlns="http://www.w3.org/2000/svg" width="1073.333" height="1053.333" version="1.0" viewBox="0 0 805 790"><path d="M248 144.1c-21.6 1.3-32.3 4.9-39.9 13.5-7 8-8.3 13.9-8.8 40.4-.5 22.8 1.2 92.2 2.3 97.2.6 2.6.4 2.8-2.3 2.8-4.4 0-14.1 2.7-21 6-12.3 5.7-19.5 15-21.3 27.8-1.8 13.1 1.5 24.5 9.6 33.2l4.7 5-4.6 4.9c-8.2 8.7-9.2 11.7-9.2 26.6 0 12.4.1 13.2 2.9 18.2 1.5 2.8 4.6 7 6.8 9.2l4.1 4-5.1 5.6c-7.5 8.2-9.5 14.2-9 28 .3 9.9.6 11.5 3.3 16.3 1.6 3 4.7 7.2 6.8 9.4l3.8 3.9-4.6 5c-5.7 6.1-8.2 11.5-9.5 20.6-3.7 26.1 13.9 45.2 41.6 45.3h5.2l-.5 12.3c-.4 9.3-.2 13.7 1 18.4 4.8 18.6 17 29.9 37.9 35.2 10.8 2.8 28.9 3.9 76.1 4.7l40.8.7 8.4 6.3c12.8 9.7 22.4 15.7 36.6 22.9 14.9 7.6 31.4 14.4 42.1 17.4 12.8 3.6 30.8 2.3 30.8-2.3 0-.8-1.5-2.6-3.2-3.9-4.7-3.5-23.6-12.7-35.3-17.2-11-4.3-39.6-18.3-43.5-21.5l-2.5-2H419c33.6-.1 65-1.5 71.7-3.4 14.2-3.9 24.1-11.3 28.9-21.9 2.6-5.6 2.9-7.5 3.2-19.1.2-7-.1-17.9-.8-24.1-1-10.1-3.3-141.5-2.4-142.4.8-.8 12.4 11.9 12.4 13.6 0 1-1.4 6.3-3 11.8-6 19.8-7.2 32.3-4.5 49.5 2.4 16.2 5.4 22.9 14.4 32.2 4.8 5.1 7 5.8 9.2 3.2 1.1-1.3.8-2.5-2-7.4-4.5-8.3-6.2-17.8-6.2-34.5 0-16.4.6-19.8 6.1-36.4 5.1-15.3 7-24.8 7-35.8 0-14.9-3.7-28.9-21.9-81.5-2.7-8.1-5.8-18.6-6.7-23.5-2.1-11.4-1.5-24.9 1.4-31.5 2.5-5.7 10.1-14.1 15.7-17.3 3.9-2.2 17.1-6.2 17.9-5.4.8.9 10.6 23 14.1 31.9 2 5.2 15.3 32.7 29.4 61 32.8 65.5 59.6 125.9 69.1 155.5 9.1 28.4 13.1 49.5 16 84.5 2.7 33.1 3.8 38 8.5 38 5.8 0 9.4-11.5 10.2-33 1.4-34.2-8.3-78-27.9-127-15.9-39.5-36-83-59.1-128-18.9-36.8-20.5-40.1-28.4-58.5C578.9 259.4 568 243 561 243c-3.8 0-20.4 4.7-25.5 7.3-2.2 1-6.2 3.5-8.8 5.4-2.7 1.9-5.1 3.2-5.3 3-.3-.2.3-9.4 1.2-20.3 2.2-25.8 2.2-49.5.1-59.2-4.7-21.2-17-32.9-36.9-35.2-9.8-1.2-219.2-1.1-237.8.1zm243 19.5c10.8 5 14.3 13.5 14.4 34.9.1 25.8-2.3 89.9-3.6 97-1 5.4-1.2 35.2-1.2 132.5 0 107.4.2 128.2 1.6 144 2.2 24.5 1 31.2-6.2 37.4-4.9 4.1-12 5.7-30 6.6-20.5 1.1-136.6 1.1-183 .1-30.9-.8-35.2-1.1-41-2.9-9.1-3-14.3-7.1-17.7-14-2.5-5.2-2.8-6.8-3.1-19.3l-.4-13.5 4.3-1.3c10.6-3.1 21.1-12.8 24.9-22.9 1.8-4.8 2.1-7.4 1.8-16.7-.3-9.5-.7-11.7-3-16.5-1.5-3.1-4.4-7.5-6.4-9.8l-3.6-4.3 4.1-4.5c12.9-13.8 12.6-39.8-.4-54.3l-3.7-4.1 4.2-4.6c7.2-7.8 8.5-11.9 8.5-26.9 0-12.3-.2-13.3-2.8-18.3-1.5-2.9-4.4-7.1-6.4-9.2l-3.5-4 3.7-4.1c13.5-14.9 13.1-41.4-.8-55.7-6.1-6.3-11.5-8.9-24.7-11.6-2.5-.5-2.6-.6-1.8-6.8.4-3.5 1-29.7 1.4-58.3.3-28.6 1-53.7 1.5-55.8 1.4-5.5 6.2-10.4 12.2-12.4 4.8-1.6 13.5-1.8 102.2-2.3 150.9-.9 153.1-.9 158.5 1.6zM216.2 318.4c8.3 1.8 11.3 3.8 14.1 9 5.2 10 1.4 23.1-8 27.8-4.3 2.1-6.1 2.3-18.3 2.3-11.7 0-14.1-.3-18.2-2.2-6.9-3.1-10-8.3-10.6-17.8-.6-9.1 1.4-15.1 6.1-19.1 3.2-2.7 3.2-2.7 15.7-2 6.9.3 15.5 1.2 19.2 2zm312.4 78.9c1.9 6.5 3.4 12.3 3.4 12.9 0 .5-2.7-1.3-6-4.2l-6-5.2.1-14.6v-14.7l2.5 7c1.4 3.8 4.1 12.3 6 18.8zm-313.4-15.9c3.6.8 8 2.2 9.7 3.1 4.5 2.3 7.5 8.7 7.5 16 0 8.1-2.9 13.5-9.1 17.2-4.2 2.4-5.8 2.7-16.3 3.1-23.2.8-31.9-5.2-32-22.1 0-8 1.7-12.7 6.2-16.9l3.3-3.1 12 .7c6.6.3 15 1.2 18.7 2zm-.8 63.1c4.4.8 9.1 2.3 10.5 3.3 12.3 9.1 9.5 29.8-4.6 34.6-6.1 2.1-25 2.2-31.9.1-8.9-2.6-13.4-9.7-13.4-21.2 0-8 2.7-14.5 7.4-17.5 2.8-1.7 4.2-1.9 13.6-1.3 5.8.3 14.1 1.2 18.4 2zm-7.3 62c15.7 2 20.6 4.5 24 12 5 10.9-.5 23.7-11.8 27.6-5.1 1.8-25.6 1.8-30.8 0-9.5-3.2-13.8-10-13.9-21.5 0-8.2 1.5-11.7 6.9-16.5 3.1-2.7 4.3-3.1 9.3-3.1 3.1 0 10.5.7 16.3 1.5z"/><path d="M329 176.1c-8.1 1.6-11.9 6.5-9 11.9 2.6 4.8 11.7 6.2 50.3 8.1l24.8 1.2 2.9-2.8c2.4-2.3 3-3.7 3-7.3 0-5.8-3.6-9.5-10.8-11.1-6.3-1.3-54.4-1.3-61.2 0zM375 251.1c-5.2 1-9.5 5.2-10.4 10.3-.3 1.7-.6 20.9-.7 42.7-.1 50-1.4 47 20.2 47.7 7.1.2 14.8-.1 17.7-.7 21-4.5 32.5-21.5 32.5-48.1-.1-24.6-10.9-43.7-27.8-48.9-5.7-1.8-8.9-2.3-23-3.5-2.2-.2-6 0-8.5.5zm25 22.2c8.6 4.2 11.5 11.6 11.5 29.7 0 11.5-.2 13-2.5 17.5-3.4 6.7-8.8 9.5-18.1 9.5h-6.6l-.6-10.7c-.4-5.8-.7-14.5-.7-19.2 0-8.5-1.3-22.7-2.5-28.7l-.7-3.2 7.8 1.5c4.4.8 9.9 2.4 12.4 3.6zM310.5 253c-6.5 1-12.3 3.5-15.7 6.7-3 2.8-3.6 6.4-1.5 8.1.6.5 7.1 1.2 14.2 1.4 11.4.3 13.7.7 18 2.8 9.1 4.5 6.7 9.9-6 13.5-2.7.7-8.3 1.9-12.3 2.5-9.7 1.6-13.2 4.4-13.2 10.5 0 3.6.5 4.8 3 6.9 3 2.4 3.6 2.5 15.3 2.4 12.3-.1 18.8 1.3 20.9 4.5 2.7 4.2-2.6 11.6-9.7 13.6-2.2.6-7.8 1.1-12.5 1.1-10.4 0-15.3 1.3-18 4.7-3.9 5-1.4 13 4.9 15.5 3.8 1.4 19.8 1.1 28.1-.6 12.2-2.6 21-9.3 25.8-19.6 4.7-10.1 3-20-5-28.6-3.8-4.1-4-4.6-2.5-6.2 2.9-3.2 5.7-10.6 5.7-15.2 0-15.1-19.6-27.1-39.5-24zM356 375.1c-1.4.6-3.4 1.8-4.5 2.8-1.1 1-9.6 6.2-19 11.6-29.2 16.9-33.9 20.5-37.3 28.5-2.1 4.9-3.2 26.8-2.2 42.2.7 10.9 1.3 13.8 3.5 18.3 3.3 6.8 9.9 12.8 20.4 18.5 4.5 2.5 12.1 6.9 16.9 9.9 17 10.6 18.9 11.4 27.3 11.9 7.1.4 8.4.2 14.2-2.6 3.6-1.6 13-7 20.9-11.9 7.8-4.9 16.9-10.5 20.2-12.4 6.4-3.7 13.4-10.9 16-16.3 2.4-5.2 2.8-13 1.8-35.8-.8-19.4-1-21-3.6-26.2-1.8-3.6-5.2-7.9-10.1-12.4-6.3-5.9-10.1-8.3-24.2-15.4-9.3-4.6-19.2-9.2-22.2-10.1-5.9-1.9-14.2-2.1-18.1-.6zm19.8 22.4C390.6 405 406 414 406 415.1c0 .5-5.5 4.1-12.2 8-6.8 4-15.6 9.2-19.5 11.6-4 2.3-8.2 4.3-9.4 4.3-3.4 0-41.8-21.3-42.6-23.5-.1-.6 1.2-2 3-3.2 1.7-1.2 9.5-6.4 17.2-11.7 10.6-7.2 14.8-9.5 17.3-9.6 2.2 0 7.7 2.2 16 6.5zm-56.5 38.3c8.9 6.3 22.1 14.4 30.5 18.6l5.2 2.6v19.5c0 10.7-.2 19.5-.5 19.5-.2 0-4.2-2.4-8.7-5.4-4.6-2.9-12.8-7.6-18.3-10.4-14.9-7.4-14.5-6.8-15.5-19.2-1-12-1.8-31-1.2-31 .2 0 4.1 2.6 8.5 5.8zm94.2 4.4c.3 2.9.5 10.9.3 17.8l-.3 12.4-4 2.9c-4.6 3.3-33.7 19.8-34.2 19.4-.1-.2-.6-8.2-.9-17.8l-.7-17.4 18.9-11.2c10.4-6.2 19.2-11.3 19.6-11.3.4 0 .9 2.4 1.3 5.2zM339.6 576.1c-12.1.9-17.4 2.9-19.4 7.1-3.3 7 1.8 11.5 14.5 12.8 12.1 1.3 54.9 1.2 59.6-.1 8-2.2 10.1-12.5 3.7-18.2l-3-2.7-22.3.1c-12.2.1-27.1.6-33.1 1z"/></svg>