<?xml version="1.0" encoding="utf-8"?>
<svg width="300px" height="300px" viewBox="0 0 300 300" version="1.1" xmlns:xlink="http://www.w3.org/1999/xlink" xmlns="http://www.w3.org/2000/svg">
  <defs>
    <path d="M63.999 43.8632L212.888 43.8632Q213.231 43.8632 213.575 43.8801Q213.918 43.8969 214.26 43.9306Q214.602 43.9643 214.942 44.0147Q215.282 44.0652 215.619 44.1322Q215.956 44.1992 216.289 44.2828Q216.623 44.3663 216.951 44.466Q217.28 44.5658 217.604 44.6815Q217.927 44.7973 218.245 44.9288Q218.562 45.0603 218.873 45.2073Q219.184 45.3542 219.487 45.5162Q219.79 45.6782 220.085 45.8549Q220.379 46.0315 220.665 46.2225Q220.951 46.4134 221.227 46.6181Q221.503 46.8228 221.769 47.0408Q222.034 47.2589 222.289 47.4896Q222.544 47.7204 222.787 47.9634Q223.03 48.2064 223.26 48.4611Q223.491 48.7157 223.709 48.9813Q223.927 49.247 224.132 49.523Q224.337 49.799 224.528 50.0848Q224.718 50.3705 224.895 50.6653Q225.072 50.9601 225.234 51.2631Q225.396 51.5662 225.543 51.8769Q225.69 52.1875 225.821 52.505Q225.953 52.8225 226.068 53.1461Q226.184 53.4697 226.284 53.7985Q226.384 54.1274 226.467 54.4607Q226.551 54.7941 226.618 55.1311Q226.685 55.4682 226.735 55.8081Q226.786 56.1481 226.819 56.4901Q226.853 56.8321 226.87 57.1753Q226.887 57.5186 226.887 57.8622L226.887 261.94Q226.887 262.283 226.87 262.627Q226.853 262.97 226.819 263.312Q226.786 263.654 226.735 263.994Q226.685 264.334 226.618 264.671Q226.551 265.008 226.467 265.341Q226.384 265.675 226.284 266.003Q226.184 266.332 226.068 266.656Q225.953 266.979 225.821 267.297Q225.69 267.614 225.543 267.925Q225.396 268.236 225.234 268.539Q225.072 268.842 224.895 269.137Q224.718 269.431 224.528 269.717Q224.337 270.003 224.132 270.279Q223.927 270.555 223.709 270.821Q223.491 271.086 223.26 271.341Q223.03 271.595 222.787 271.839Q222.544 272.081 222.289 272.312Q222.034 272.543 221.769 272.761Q221.503 272.979 221.227 273.184Q220.951 273.388 220.665 273.579Q220.379 273.77 220.085 273.947Q219.79 274.124 219.487 274.286Q219.184 274.448 218.873 274.595Q218.562 274.742 218.245 274.873Q217.927 275.005 217.604 275.12Q217.28 275.236 216.951 275.336Q216.623 275.436 216.289 275.519Q215.956 275.603 215.619 275.67Q215.282 275.737 214.942 275.787Q214.602 275.838 214.26 275.871Q213.918 275.905 213.575 275.922Q213.231 275.939 212.888 275.939L63.999 275.939Q63.6553 275.939 63.3121 275.922Q62.9689 275.905 62.6269 275.871Q62.2849 275.838 61.9449 275.787Q61.605 275.737 61.2679 275.67Q60.9309 275.603 60.5975 275.519Q60.2642 275.436 59.9353 275.336Q59.6064 275.236 59.2829 275.12Q58.9593 275.005 58.6418 274.873Q58.3243 274.742 58.0137 274.595Q57.703 274.448 57.3999 274.286Q57.0968 274.124 56.8021 273.947Q56.5073 273.77 56.2216 273.579Q55.9358 273.388 55.6598 273.184Q55.3838 272.979 55.1181 272.761Q54.8525 272.543 54.5978 272.312Q54.3432 272.081 54.1002 271.839Q53.8572 271.595 53.6264 271.341Q53.3956 271.086 53.1776 270.821Q52.9596 270.555 52.7549 270.279Q52.5502 270.003 52.3593 269.717Q52.1683 269.431 51.9917 269.137Q51.815 268.842 51.653 268.539Q51.491 268.236 51.3441 267.925Q51.1971 267.614 51.0656 267.297Q50.9341 266.979 50.8183 266.656Q50.7025 266.332 50.6028 266.003Q50.503 265.675 50.4195 265.341Q50.336 265.008 50.269 264.671Q50.2019 264.334 50.1515 263.994Q50.1011 263.654 50.0674 263.312Q50.0337 262.97 50.0169 262.627Q50 262.283 50 261.94L50 57.8622Q50 57.5186 50.0169 57.1753Q50.0337 56.8321 50.0674 56.4901Q50.1011 56.1481 50.1515 55.8081Q50.2019 55.4682 50.269 55.1311Q50.336 54.7941 50.4195 54.4607Q50.503 54.1274 50.6028 53.7985Q50.7025 53.4697 50.8183 53.1461Q50.9341 52.8225 51.0656 52.505Q51.1971 52.1875 51.3441 51.8769Q51.491 51.5662 51.653 51.2631Q51.815 50.9601 51.9917 50.6653Q52.1683 50.3705 52.3593 50.0848Q52.5502 49.799 52.7549 49.523Q52.9596 49.247 53.1776 48.9813Q53.3956 48.7157 53.6264 48.4611Q53.8572 48.2064 54.1002 47.9634Q54.3432 47.7204 54.5978 47.4896Q54.8525 47.2589 55.1181 47.0408Q55.3838 46.8228 55.6598 46.6181Q55.9358 46.4134 56.2216 46.2225Q56.5073 46.0316 56.8021 45.8549Q57.0968 45.6782 57.3999 45.5162Q57.703 45.3542 58.0136 45.2073Q58.3243 45.0603 58.6418 44.9288Q58.9593 44.7973 59.2829 44.6815Q59.6064 44.5658 59.9353 44.466Q60.2642 44.3663 60.5975 44.2827Q60.9309 44.1992 61.2679 44.1322Q61.605 44.0652 61.9449 44.0147Q62.2849 43.9643 62.6269 43.9306Q62.9689 43.8969 63.3121 43.8801Q63.6553 43.8632 63.999 43.8632Z" id="path_1" />
    <rect width="300" height="300" id="artboard_1" />
    <clipPath id="clip_1">
      <use xlink:href="#artboard_1" clip-rule="evenodd" />
    </clipPath>
    <clipPath id="clip_2">
      <use xlink:href="#path_1" />
    </clipPath>
  </defs>
  <g id="Artboard" clip-path="url(#clip_1)">
    <g id="Rectangle" artboard="f24e7384-fea8-4ae1-b897-eff6050fac83">
      <use stroke="none" fill="#D2AEAE" fill-opacity="0.29803923" xlink:href="#path_1" fill-rule="evenodd" />
      <g clip-path="url(#clip_2)">
        <use xlink:href="#path_1" fill="none" stroke="#D2AEAE" stroke-width="2" />
      </g>
    </g>
    <path d="M145.058 25.467L130.414 25.467Q130.218 25.467 130.022 25.4862Q129.827 25.5055 129.634 25.5438Q129.441 25.5821 129.253 25.6392Q129.065 25.6962 128.884 25.7714Q128.702 25.8465 128.529 25.9392Q128.356 26.0318 128.192 26.1409Q128.029 26.2501 127.877 26.3747Q127.725 26.4993 127.586 26.6382Q127.447 26.7772 127.323 26.929Q127.198 27.0809 127.089 27.2442Q126.98 27.4076 126.887 27.5808Q126.795 27.7541 126.719 27.9356Q126.644 28.1171 126.587 28.3051Q126.53 28.4931 126.492 28.6858Q126.454 28.8785 126.434 29.074Q126.415 29.2695 126.415 29.466L126.415 32.5424L110.357 32.5424Q110.161 32.5424 109.965 32.5521Q109.769 32.5617 109.573 32.5809Q109.378 32.6002 109.184 32.629Q108.99 32.6578 108.797 32.6961Q108.604 32.7344 108.414 32.7821Q108.223 32.8299 108.035 32.8869Q107.848 32.9439 107.663 33.01Q107.478 33.0762 107.296 33.1513Q107.115 33.2265 106.937 33.3104Q106.76 33.3944 106.587 33.4869Q106.414 33.5795 106.245 33.6805Q106.077 33.7814 105.913 33.8905Q105.75 33.9996 105.592 34.1166Q105.435 34.2335 105.283 34.3581Q105.131 34.4827 104.986 34.6146Q104.84 34.7464 104.701 34.8853Q104.562 35.0241 104.431 35.1696Q104.299 35.3151 104.174 35.4669Q104.05 35.6187 103.933 35.7764Q103.816 35.9341 103.707 36.0974Q103.597 36.2607 103.496 36.4291Q103.396 36.5975 103.303 36.7707Q103.21 36.9439 103.126 37.1214Q103.042 37.2989 102.967 37.4803Q102.892 37.6618 102.826 37.8466Q102.76 38.0315 102.703 38.2194Q102.646 38.4074 102.598 38.5978Q102.55 38.7883 102.512 38.9809Q102.474 39.1735 102.445 39.3677Q102.416 39.562 102.397 39.7574Q102.378 39.9528 102.368 40.1489Q102.358 40.3451 102.358 40.5414L102.358 55.6755Q102.358 55.8719 102.368 56.068Q102.378 56.2641 102.397 56.4595Q102.416 56.655 102.445 56.8492Q102.474 57.0434 102.512 57.236Q102.55 57.4286 102.598 57.6191Q102.646 57.8096 102.703 57.9975Q102.76 58.1854 102.826 58.3703Q102.892 58.5552 102.967 58.7366Q103.042 58.918 103.126 59.0955Q103.21 59.273 103.303 59.4462Q103.396 59.6194 103.496 59.7878Q103.597 59.9562 103.707 60.1195Q103.816 60.2828 103.933 60.4405Q104.05 60.5982 104.174 60.75Q104.299 60.9018 104.431 61.0473Q104.562 61.1928 104.701 61.3316Q104.84 61.4705 104.986 61.6024Q105.131 61.7342 105.283 61.8588Q105.435 61.9834 105.592 62.1004Q105.75 62.2173 105.913 62.3264Q106.077 62.4355 106.245 62.5365Q106.414 62.6374 106.587 62.73Q106.76 62.8225 106.937 62.9065Q107.115 62.9905 107.296 63.0656Q107.478 63.1408 107.663 63.2069Q107.848 63.2731 108.035 63.3301Q108.223 63.3871 108.414 63.4348Q108.604 63.4825 108.797 63.5208Q108.99 63.5591 109.184 63.5879Q109.378 63.6167 109.573 63.636Q109.769 63.6552 109.965 63.6649Q110.161 63.6745 110.357 63.6745L165.114 63.6745Q165.311 63.6745 165.507 63.6649Q165.703 63.6552 165.898 63.636Q166.094 63.6167 166.288 63.5879Q166.482 63.5591 166.675 63.5208Q166.867 63.4825 167.058 63.4348Q167.248 63.3871 167.436 63.3301Q167.624 63.2731 167.809 63.2069Q167.994 63.1408 168.175 63.0656Q168.357 62.9905 168.534 62.9065Q168.712 62.8226 168.885 62.73Q169.058 62.6374 169.226 62.5365Q169.395 62.4355 169.558 62.3264Q169.721 62.2173 169.879 62.1004Q170.037 61.9834 170.189 61.8588Q170.34 61.7342 170.486 61.6024Q170.631 61.4705 170.77 61.3316Q170.909 61.1928 171.041 61.0473Q171.173 60.9018 171.297 60.75Q171.422 60.5982 171.539 60.4405Q171.656 60.2828 171.765 60.1195Q171.874 59.9562 171.975 59.7878Q172.076 59.6194 172.169 59.4462Q172.261 59.273 172.345 59.0955Q172.429 58.918 172.504 58.7366Q172.579 58.5552 172.646 58.3703Q172.712 58.1854 172.769 57.9975Q172.826 57.8096 172.873 57.6191Q172.921 57.4286 172.96 57.236Q172.998 57.0434 173.027 56.8492Q173.055 56.655 173.075 56.4595Q173.094 56.2641 173.104 56.068Q173.113 55.8719 173.113 55.6755L173.113 40.5414Q173.113 40.3451 173.104 40.1489Q173.094 39.9528 173.075 39.7574Q173.055 39.562 173.027 39.3677Q172.998 39.1735 172.959 38.9809Q172.921 38.7883 172.873 38.5978Q172.826 38.4074 172.769 38.2194Q172.712 38.0315 172.646 37.8466Q172.579 37.6618 172.504 37.4803Q172.429 37.2989 172.345 37.1214Q172.261 36.9439 172.169 36.7707Q172.076 36.5975 171.975 36.4291Q171.874 36.2607 171.765 36.0974Q171.656 35.9341 171.539 35.7764Q171.422 35.6187 171.297 35.4669Q171.173 35.3151 171.041 35.1696Q170.909 35.0241 170.77 34.8853Q170.631 34.7464 170.486 34.6146Q170.34 34.4827 170.189 34.3581Q170.037 34.2335 169.879 34.1166Q169.721 33.9996 169.558 33.8905Q169.395 33.7814 169.226 33.6805Q169.058 33.5795 168.885 33.4869Q168.712 33.3944 168.534 33.3104Q168.357 33.2265 168.175 33.1513Q167.994 33.0762 167.809 33.01Q167.624 32.9439 167.436 32.8869Q167.248 32.8299 167.058 32.7821Q166.867 32.7344 166.675 32.6961Q166.482 32.6578 166.288 32.629Q166.094 32.6002 165.898 32.5809Q165.703 32.5617 165.507 32.5521Q165.311 32.5424 165.114 32.5424L149.057 32.5424L149.057 29.466Q149.057 29.2695 149.037 29.074Q149.018 28.8785 148.98 28.6858Q148.941 28.4931 148.884 28.3051Q148.827 28.1171 148.752 27.9356Q148.677 27.7541 148.584 27.5809Q148.492 27.4076 148.383 27.2442Q148.274 27.0809 148.149 26.929Q148.024 26.7772 147.885 26.6382Q147.746 26.4993 147.595 26.3747Q147.443 26.2501 147.279 26.1409Q147.116 26.0318 146.943 25.9392Q146.769 25.8465 146.588 25.7714Q146.406 25.6962 146.218 25.6392Q146.03 25.5821 145.838 25.5438Q145.645 25.5055 145.45 25.4862Q145.254 25.467 145.058 25.467Z" id="Rectangle-2-Union" fill="#D2AEAE" fill-rule="evenodd" stroke="none" artboard="303f3dc6-72fc-416e-896e-e6917e344e8d" />
    <g id="Group-5" transform="translate(212.67355 215.1)" artboard="3598960c-cbef-4a33-ae82-0f3c95fcc1f3">
      <g id="Group">
        <path d="M0 15.1132C0 6.76642 6.76642 0 15.1132 0C23.46 0 30.2264 6.76642 30.2264 15.1132C30.2264 23.46 23.46 30.2264 15.1132 30.2264C6.76642 30.2264 0 23.46 0 15.1132Z" id="Oval" fill="#B4053E" fill-rule="evenodd" stroke="none" />
      </g>
      <g id="Group-4" transform="translate(8.605493 9.039309)">
        <path d="M0 0L13.0155 12.1478" id="Line" fill="none" fill-rule="evenodd" stroke="#FFFFFF" stroke-width="3" stroke-linecap="round" stroke-linejoin="round" />
        <path d="M13.0155 0L3.33786e-05 12.1478" id="Line-Copy" fill="none" fill-rule="evenodd" stroke="#FFFFFF" stroke-width="3" stroke-linecap="round" stroke-linejoin="round" />
      </g>
    </g>
    <g id="Group-2" transform="translate(79.716965 97.636826)" artboard="ee1fe5d6-31b9-491a-b12b-883c77a8b17a">
      <path d="M1.999 0L20.6425 0Q20.7407 0 20.8384 0.00962573Q20.9362 0.0192515 21.0325 0.0384102Q21.1288 0.057569 21.2228 0.0860763Q21.3168 0.114584 21.4075 0.152165Q21.4982 0.189746 21.5848 0.236039Q21.6714 0.282333 21.7531 0.336892Q21.8348 0.391452 21.9107 0.453752Q21.9866 0.516052 22.056 0.585494Q22.1255 0.654935 22.1878 0.730848Q22.2501 0.806761 22.3046 0.888415Q22.3592 0.970069 22.4055 1.05668Q22.4518 1.14329 22.4893 1.23402Q22.5269 1.32474 22.5554 1.41872Q22.5839 1.5127 22.6031 1.60901Q22.6223 1.70533 22.6319 1.80306Q22.6415 1.9008 22.6415 1.999L22.6415 17.8123Q22.6415 17.9105 22.6319 18.0083Q22.6223 18.106 22.6031 18.2023Q22.5839 18.2986 22.5554 18.3926Q22.5269 18.4866 22.4893 18.5773Q22.4518 18.668 22.4055 18.7546Q22.3592 18.8413 22.3046 18.9229Q22.2501 19.0046 22.1878 19.0805Q22.1255 19.1564 22.056 19.2258Q21.9866 19.2953 21.9107 19.3576Q21.8348 19.4199 21.7531 19.4744Q21.6714 19.529 21.5848 19.5753Q21.4982 19.6216 21.4075 19.6592Q21.3168 19.6967 21.2228 19.7252Q21.1288 19.7538 21.0325 19.7729Q20.9362 19.7921 20.8384 19.8017Q20.7407 19.8113 20.6425 19.8113L1.999 19.8113Q1.9008 19.8113 1.80306 19.8017Q1.70533 19.7921 1.60901 19.7729Q1.5127 19.7538 1.41872 19.7252Q1.32474 19.6967 1.23402 19.6592Q1.14329 19.6216 1.05668 19.5753Q0.970069 19.529 0.888415 19.4744Q0.806761 19.4199 0.730848 19.3576Q0.654935 19.2953 0.585494 19.2258Q0.516052 19.1564 0.453752 19.0805Q0.391452 19.0046 0.336892 18.9229Q0.282333 18.8413 0.236039 18.7546Q0.189746 18.668 0.152165 18.5773Q0.114584 18.4866 0.0860763 18.3926Q0.057569 18.2986 0.0384102 18.2023Q0.0192515 18.106 0.00962573 18.0083Q0 17.9105 0 17.8123L0 1.999Q0 1.9008 0.00962573 1.80306Q0.0192515 1.70533 0.0384102 1.60901Q0.057569 1.5127 0.0860763 1.41872Q0.114584 1.32474 0.152165 1.23402Q0.189746 1.14329 0.236039 1.05668Q0.282333 0.970069 0.336892 0.888415Q0.391452 0.806761 0.453752 0.730848Q0.516052 0.654935 0.585494 0.585494Q0.654935 0.516052 0.730848 0.453752Q0.806761 0.391452 0.888415 0.336892Q0.970069 0.282333 1.05668 0.236039Q1.14329 0.189746 1.23402 0.152165Q1.32474 0.114584 1.41872 0.0860763Q1.5127 0.057569 1.60901 0.0384102Q1.70533 0.0192515 1.80306 0.00962573Q1.9008 0 1.999 0Z" id="Rectangle-2" fill="#917676" fill-rule="evenodd" stroke="none" />
      <path d="M32.5462 0L107.548 0Q107.687 0 107.825 0.0136233Q107.964 0.0272466 108.1 0.0543621Q108.236 0.0814775 108.369 0.121824Q108.502 0.16217 108.631 0.215359Q108.759 0.268548 108.882 0.334067Q109.004 0.399586 109.12 0.476804Q109.236 0.554023 109.343 0.642196Q109.45 0.73037 109.549 0.82865Q109.647 0.92693 109.735 1.03437Q109.823 1.14181 109.901 1.25738Q109.978 1.37294 110.043 1.49552Q110.109 1.6181 110.162 1.74651Q110.215 1.87491 110.256 2.00792Q110.296 2.14092 110.323 2.27724Q110.35 2.41356 110.364 2.55188Q110.377 2.6902 110.377 2.82919L110.377 2.83119Q110.377 2.97018 110.364 3.1085Q110.35 3.24682 110.323 3.38314Q110.296 3.51945 110.256 3.65246Q110.215 3.78546 110.162 3.91387Q110.109 4.04228 110.043 4.16486Q109.978 4.28744 109.901 4.403Q109.823 4.51857 109.735 4.62601Q109.647 4.73345 109.549 4.83173Q109.45 4.93001 109.343 5.01818Q109.236 5.10636 109.12 5.18357Q109.004 5.26079 108.882 5.32631Q108.759 5.39183 108.631 5.44502Q108.502 5.49821 108.369 5.53855Q108.236 5.5789 108.1 5.60602Q107.964 5.63313 107.825 5.64676Q107.687 5.66038 107.548 5.66038L32.5462 5.66038Q32.4072 5.66038 32.2688 5.64676Q32.1305 5.63313 31.9942 5.60602Q31.8579 5.5789 31.7249 5.53855Q31.5919 5.49821 31.4635 5.44502Q31.3351 5.39183 31.2125 5.32631Q31.0899 5.26079 30.9743 5.18357Q30.8588 5.10636 30.7513 5.01818Q30.6439 4.93001 30.5456 4.83173Q30.4473 4.73345 30.3592 4.62601Q30.271 4.51857 30.1938 4.403Q30.1166 4.28744 30.051 4.16486Q29.9855 4.04228 29.9323 3.91387Q29.8791 3.78546 29.8388 3.65246Q29.7984 3.51945 29.7713 3.38314Q29.7442 3.24682 29.7306 3.1085Q29.717 2.97018 29.717 2.83119L29.717 2.82919Q29.717 2.6902 29.7306 2.55188Q29.7442 2.41356 29.7713 2.27724Q29.7984 2.14092 29.8388 2.00792Q29.8791 1.87491 29.9323 1.74651Q29.9855 1.6181 30.051 1.49552Q30.1166 1.37294 30.1938 1.25738Q30.271 1.14181 30.3592 1.03437Q30.4473 0.92693 30.5456 0.82865Q30.6439 0.73037 30.7513 0.642196Q30.8588 0.554023 30.9743 0.476804Q31.0899 0.399586 31.2125 0.334067Q31.3351 0.268548 31.4635 0.215359Q31.5919 0.16217 31.7249 0.121824Q31.8579 0.0814775 31.9942 0.0543621Q32.1305 0.0272466 32.2688 0.0136233Q32.4072 0 32.5462 0Z" id="Rectangle-3" fill="#917676" fill-rule="evenodd" stroke="none" />
      <path d="M32.5462 9.90567L107.548 9.90567Q107.687 9.90567 107.825 9.9193Q107.964 9.93292 108.1 9.96004Q108.236 9.98715 108.369 10.0275Q108.502 10.0678 108.631 10.121Q108.759 10.1742 108.882 10.2397Q109.004 10.3053 109.12 10.3825Q109.236 10.4597 109.343 10.5479Q109.45 10.636 109.549 10.7343Q109.647 10.8326 109.735 10.94Q109.823 11.0475 109.901 11.163Q109.978 11.2786 110.043 11.4012Q110.109 11.5238 110.162 11.6522Q110.215 11.7806 110.256 11.9136Q110.296 12.0466 110.323 12.1829Q110.35 12.3192 110.364 12.4576Q110.377 12.5959 110.377 12.7349L110.377 12.7369Q110.377 12.8759 110.364 13.0142Q110.35 13.1525 110.323 13.2888Q110.296 13.4251 110.256 13.5581Q110.215 13.6911 110.162 13.8195Q110.109 13.948 110.043 14.0705Q109.978 14.1931 109.901 14.3087Q109.823 14.4242 109.735 14.5317Q109.647 14.6391 109.549 14.7374Q109.45 14.8357 109.343 14.9239Q109.236 15.012 109.12 15.0892Q109.004 15.1665 108.882 15.232Q108.759 15.2975 108.631 15.3507Q108.502 15.4039 108.369 15.4442Q108.236 15.4846 108.1 15.5117Q107.964 15.5388 107.825 15.5524Q107.687 15.5661 107.548 15.5661L32.5462 15.5661Q32.4072 15.5661 32.2688 15.5524Q32.1305 15.5388 31.9942 15.5117Q31.8579 15.4846 31.7249 15.4442Q31.5919 15.4039 31.4635 15.3507Q31.3351 15.2975 31.2125 15.232Q31.0899 15.1665 30.9743 15.0892Q30.8588 15.012 30.7513 14.9239Q30.6439 14.8357 30.5456 14.7374Q30.4473 14.6391 30.3592 14.5317Q30.271 14.4242 30.1938 14.3087Q30.1166 14.1931 30.051 14.0705Q29.9855 13.948 29.9323 13.8195Q29.8791 13.6911 29.8388 13.5581Q29.7984 13.4251 29.7713 13.2888Q29.7442 13.1525 29.7306 13.0142Q29.717 12.8759 29.717 12.7369L29.717 12.7349Q29.717 12.5959 29.7306 12.4576Q29.7442 12.3192 29.7713 12.1829Q29.7984 12.0466 29.8388 11.9136Q29.8791 11.7806 29.9323 11.6522Q29.9855 11.5238 30.051 11.4012Q30.1166 11.2786 30.1938 11.163Q30.271 11.0475 30.3592 10.94Q30.4473 10.8326 30.5456 10.7343Q30.6439 10.636 30.7513 10.5479Q30.8588 10.4597 30.9743 10.3825Q31.0899 10.3053 31.2125 10.2397Q31.3351 10.1742 31.4635 10.121Q31.5919 10.0678 31.7249 10.0275Q31.8579 9.98715 31.9942 9.96004Q32.1305 9.93292 32.2688 9.9193Q32.4072 9.90567 32.5462 9.90567Z" id="Rectangle-3-Copy" fill="#917676" fill-rule="evenodd" stroke="none" />
    </g>
    <g id="Group-2-Copy" transform="translate(79.716965 130.18402)" artboard="d24c5e87-06a3-48e0-be44-c9bbb4b6d566">
      <path d="M1.999 0L20.6425 0Q20.7407 0 20.8384 0.00962573Q20.9362 0.0192515 21.0325 0.0384102Q21.1288 0.057569 21.2228 0.0860763Q21.3168 0.114584 21.4075 0.152165Q21.4982 0.189746 21.5848 0.236039Q21.6714 0.282333 21.7531 0.336892Q21.8348 0.391452 21.9107 0.453752Q21.9866 0.516052 22.056 0.585494Q22.1255 0.654935 22.1878 0.730848Q22.2501 0.806761 22.3046 0.888415Q22.3592 0.970069 22.4055 1.05668Q22.4518 1.14329 22.4893 1.23402Q22.5269 1.32474 22.5554 1.41872Q22.5839 1.5127 22.6031 1.60901Q22.6223 1.70533 22.6319 1.80306Q22.6415 1.9008 22.6415 1.999L22.6415 17.8123Q22.6415 17.9105 22.6319 18.0083Q22.6223 18.106 22.6031 18.2023Q22.5839 18.2986 22.5554 18.3926Q22.5269 18.4866 22.4893 18.5773Q22.4518 18.668 22.4055 18.7546Q22.3592 18.8413 22.3046 18.9229Q22.2501 19.0046 22.1878 19.0805Q22.1255 19.1564 22.056 19.2258Q21.9866 19.2953 21.9107 19.3576Q21.8348 19.4199 21.7531 19.4744Q21.6714 19.529 21.5848 19.5753Q21.4982 19.6216 21.4075 19.6592Q21.3168 19.6967 21.2228 19.7252Q21.1288 19.7538 21.0325 19.7729Q20.9362 19.7921 20.8384 19.8017Q20.7407 19.8113 20.6425 19.8113L1.999 19.8113Q1.9008 19.8113 1.80306 19.8017Q1.70533 19.7921 1.60901 19.7729Q1.5127 19.7538 1.41872 19.7252Q1.32474 19.6967 1.23402 19.6592Q1.14329 19.6216 1.05668 19.5753Q0.970069 19.529 0.888415 19.4744Q0.806761 19.4199 0.730848 19.3576Q0.654935 19.2953 0.585494 19.2258Q0.516052 19.1564 0.453752 19.0805Q0.391452 19.0046 0.336892 18.9229Q0.282333 18.8413 0.236039 18.7546Q0.189746 18.668 0.152165 18.5773Q0.114584 18.4866 0.0860763 18.3926Q0.057569 18.2986 0.0384102 18.2023Q0.0192515 18.106 0.00962573 18.0083Q0 17.9105 0 17.8123L0 1.999Q0 1.9008 0.00962573 1.80306Q0.0192515 1.70533 0.0384102 1.60901Q0.057569 1.5127 0.0860763 1.41872Q0.114584 1.32474 0.152165 1.23402Q0.189746 1.14329 0.236039 1.05668Q0.282333 0.970069 0.336892 0.888415Q0.391452 0.806761 0.453752 0.730848Q0.516052 0.654935 0.585494 0.585494Q0.654935 0.516052 0.730848 0.453752Q0.806761 0.391452 0.888415 0.336892Q0.970069 0.282333 1.05668 0.236039Q1.14329 0.189746 1.23402 0.152165Q1.32474 0.114584 1.41872 0.0860763Q1.5127 0.057569 1.60901 0.0384102Q1.70533 0.0192515 1.80306 0.00962573Q1.9008 0 1.999 0Z" id="Rectangle-2" fill="#917676" fill-rule="evenodd" stroke="none" />
      <path d="M32.5462 0L107.548 0Q107.687 0 107.825 0.0136233Q107.964 0.0272466 108.1 0.0543621Q108.236 0.0814775 108.369 0.121824Q108.502 0.16217 108.631 0.215359Q108.759 0.268548 108.882 0.334067Q109.004 0.399586 109.12 0.476804Q109.236 0.554023 109.343 0.642196Q109.45 0.73037 109.549 0.82865Q109.647 0.92693 109.735 1.03437Q109.823 1.14181 109.901 1.25738Q109.978 1.37294 110.043 1.49552Q110.109 1.6181 110.162 1.74651Q110.215 1.87491 110.256 2.00792Q110.296 2.14092 110.323 2.27724Q110.35 2.41356 110.364 2.55188Q110.377 2.6902 110.377 2.82919L110.377 2.83119Q110.377 2.97018 110.364 3.1085Q110.35 3.24682 110.323 3.38314Q110.296 3.51945 110.256 3.65246Q110.215 3.78546 110.162 3.91387Q110.109 4.04228 110.043 4.16486Q109.978 4.28744 109.901 4.403Q109.823 4.51857 109.735 4.62601Q109.647 4.73345 109.549 4.83173Q109.45 4.93001 109.343 5.01818Q109.236 5.10636 109.12 5.18357Q109.004 5.26079 108.882 5.32631Q108.759 5.39183 108.631 5.44502Q108.502 5.49821 108.369 5.53855Q108.236 5.5789 108.1 5.60602Q107.964 5.63313 107.825 5.64676Q107.687 5.66038 107.548 5.66038L32.5462 5.66038Q32.4072 5.66038 32.2688 5.64676Q32.1305 5.63313 31.9942 5.60602Q31.8579 5.5789 31.7249 5.53855Q31.5919 5.49821 31.4635 5.44502Q31.3351 5.39183 31.2125 5.32631Q31.0899 5.26079 30.9743 5.18357Q30.8588 5.10636 30.7513 5.01818Q30.6439 4.93001 30.5456 4.83173Q30.4473 4.73345 30.3592 4.62601Q30.271 4.51857 30.1938 4.403Q30.1166 4.28744 30.051 4.16486Q29.9855 4.04228 29.9323 3.91387Q29.8791 3.78546 29.8388 3.65246Q29.7984 3.51945 29.7713 3.38314Q29.7442 3.24682 29.7306 3.1085Q29.717 2.97018 29.717 2.83119L29.717 2.82919Q29.717 2.6902 29.7306 2.55188Q29.7442 2.41356 29.7713 2.27724Q29.7984 2.14092 29.8388 2.00792Q29.8791 1.87491 29.9323 1.74651Q29.9855 1.6181 30.051 1.49552Q30.1166 1.37294 30.1938 1.25738Q30.271 1.14181 30.3592 1.03437Q30.4473 0.92693 30.5456 0.82865Q30.6439 0.73037 30.7513 0.642196Q30.8588 0.554023 30.9743 0.476804Q31.0899 0.399586 31.2125 0.334067Q31.3351 0.268548 31.4635 0.215359Q31.5919 0.16217 31.7249 0.121824Q31.8579 0.0814775 31.9942 0.0543621Q32.1305 0.0272466 32.2688 0.0136233Q32.4072 0 32.5462 0Z" id="Rectangle-3" fill="#917676" fill-rule="evenodd" stroke="none" />
      <path d="M32.5462 9.90563L107.548 9.90563Q107.687 9.90563 107.825 9.91926Q107.964 9.93288 108.1 9.96Q108.236 9.98711 108.369 10.0275Q108.502 10.0678 108.631 10.121Q108.759 10.1742 108.882 10.2397Q109.004 10.3052 109.12 10.3824Q109.236 10.4597 109.343 10.5478Q109.45 10.636 109.549 10.7343Q109.647 10.8326 109.735 10.94Q109.823 11.0474 109.901 11.163Q109.978 11.2786 110.043 11.4012Q110.109 11.5237 110.162 11.6521Q110.215 11.7805 110.256 11.9136Q110.296 12.0466 110.323 12.1829Q110.35 12.3192 110.364 12.4575Q110.377 12.5958 110.377 12.7348L110.377 12.7368Q110.377 12.8758 110.364 13.0141Q110.35 13.1524 110.323 13.2888Q110.296 13.4251 110.256 13.5581Q110.215 13.6911 110.162 13.8195Q110.109 13.9479 110.043 14.0705Q109.978 14.1931 109.901 14.3086Q109.823 14.4242 109.735 14.5316Q109.647 14.6391 109.549 14.7374Q109.45 14.8356 109.343 14.9238Q109.236 15.012 109.12 15.0892Q109.004 15.1664 108.882 15.2319Q108.759 15.2975 108.631 15.3506Q108.502 15.4038 108.369 15.4442Q108.236 15.4845 108.1 15.5116Q107.964 15.5388 107.825 15.5524Q107.687 15.566 107.548 15.566L32.5462 15.566Q32.4072 15.566 32.2688 15.5524Q32.1305 15.5388 31.9942 15.5116Q31.8579 15.4845 31.7249 15.4442Q31.5919 15.4038 31.4635 15.3506Q31.3351 15.2975 31.2125 15.2319Q31.0899 15.1664 30.9743 15.0892Q30.8588 15.012 30.7513 14.9238Q30.6439 14.8356 30.5456 14.7374Q30.4473 14.6391 30.3592 14.5316Q30.271 14.4242 30.1938 14.3086Q30.1166 14.1931 30.051 14.0705Q29.9855 13.9479 29.9323 13.8195Q29.8791 13.6911 29.8388 13.5581Q29.7984 13.4251 29.7713 13.2888Q29.7442 13.1524 29.7306 13.0141Q29.717 12.8758 29.717 12.7368L29.717 12.7348Q29.717 12.5958 29.7306 12.4575Q29.7442 12.3192 29.7713 12.1829Q29.7984 12.0466 29.8388 11.9136Q29.8791 11.7805 29.9323 11.6521Q29.9855 11.5237 30.051 11.4012Q30.1166 11.2786 30.1938 11.163Q30.271 11.0474 30.3592 10.94Q30.4473 10.8326 30.5456 10.7343Q30.6439 10.636 30.7513 10.5478Q30.8588 10.4597 30.9743 10.3824Q31.0899 10.3052 31.2125 10.2397Q31.3351 10.1742 31.4635 10.121Q31.5919 10.0678 31.7249 10.0275Q31.8579 9.98711 31.9942 9.96Q32.1305 9.93288 32.2688 9.91926Q32.4072 9.90563 32.5462 9.90563Z" id="Rectangle-3-Copy" fill="#917676" fill-rule="evenodd" stroke="none" />
    </g>
    <g id="Group-2-Copy-2" transform="translate(79.716965 162.73114)" artboard="1ef396b4-aac6-4a60-939f-f4d396697577">
      <path d="M1.999 0L20.6425 0Q20.7407 0 20.8384 0.00962573Q20.9362 0.0192515 21.0325 0.0384102Q21.1288 0.057569 21.2228 0.0860763Q21.3168 0.114584 21.4075 0.152165Q21.4982 0.189746 21.5848 0.236039Q21.6714 0.282333 21.7531 0.336892Q21.8348 0.391452 21.9107 0.453752Q21.9866 0.516052 22.056 0.585494Q22.1255 0.654935 22.1878 0.730848Q22.2501 0.806761 22.3046 0.888415Q22.3592 0.970069 22.4055 1.05668Q22.4518 1.14329 22.4893 1.23402Q22.5269 1.32474 22.5554 1.41872Q22.5839 1.5127 22.6031 1.60901Q22.6223 1.70533 22.6319 1.80306Q22.6415 1.9008 22.6415 1.999L22.6415 17.8123Q22.6415 17.9105 22.6319 18.0083Q22.6223 18.106 22.6031 18.2023Q22.5839 18.2986 22.5554 18.3926Q22.5269 18.4866 22.4893 18.5773Q22.4518 18.668 22.4055 18.7546Q22.3592 18.8413 22.3046 18.9229Q22.2501 19.0046 22.1878 19.0805Q22.1255 19.1564 22.056 19.2258Q21.9866 19.2953 21.9107 19.3576Q21.8348 19.4199 21.7531 19.4744Q21.6714 19.529 21.5848 19.5753Q21.4982 19.6216 21.4075 19.6592Q21.3168 19.6967 21.2228 19.7252Q21.1288 19.7538 21.0325 19.7729Q20.9362 19.7921 20.8384 19.8017Q20.7407 19.8113 20.6425 19.8113L1.999 19.8113Q1.9008 19.8113 1.80306 19.8017Q1.70533 19.7921 1.60901 19.7729Q1.5127 19.7538 1.41872 19.7252Q1.32474 19.6967 1.23402 19.6592Q1.14329 19.6216 1.05668 19.5753Q0.970069 19.529 0.888415 19.4744Q0.806761 19.4199 0.730848 19.3576Q0.654935 19.2953 0.585494 19.2258Q0.516052 19.1564 0.453752 19.0805Q0.391452 19.0046 0.336892 18.9229Q0.282333 18.8413 0.236039 18.7546Q0.189746 18.668 0.152165 18.5773Q0.114584 18.4866 0.0860763 18.3926Q0.057569 18.2986 0.0384102 18.2023Q0.0192515 18.106 0.00962573 18.0083Q0 17.9105 0 17.8123L0 1.999Q0 1.9008 0.00962573 1.80306Q0.0192515 1.70533 0.0384102 1.60901Q0.057569 1.5127 0.0860763 1.41872Q0.114584 1.32474 0.152165 1.23402Q0.189746 1.14329 0.236039 1.05668Q0.282333 0.970069 0.336892 0.888415Q0.391452 0.806761 0.453752 0.730848Q0.516052 0.654935 0.585494 0.585494Q0.654935 0.516052 0.730848 0.453752Q0.806761 0.391452 0.888415 0.336892Q0.970069 0.282333 1.05668 0.236039Q1.14329 0.189746 1.23402 0.152165Q1.32474 0.114584 1.41872 0.0860763Q1.5127 0.057569 1.60901 0.0384102Q1.70533 0.0192515 1.80306 0.00962573Q1.9008 0 1.999 0Z" id="Rectangle-2" fill="#917676" fill-rule="evenodd" stroke="none" />
      <path d="M32.5462 0L107.548 0Q107.687 0 107.825 0.0136233Q107.964 0.0272466 108.1 0.0543621Q108.236 0.0814775 108.369 0.121824Q108.502 0.16217 108.631 0.215359Q108.759 0.268548 108.882 0.334067Q109.004 0.399586 109.12 0.476804Q109.236 0.554023 109.343 0.642196Q109.45 0.73037 109.549 0.82865Q109.647 0.92693 109.735 1.03437Q109.823 1.14181 109.901 1.25738Q109.978 1.37294 110.043 1.49552Q110.109 1.6181 110.162 1.74651Q110.215 1.87491 110.256 2.00792Q110.296 2.14092 110.323 2.27724Q110.35 2.41356 110.364 2.55188Q110.377 2.6902 110.377 2.82919L110.377 2.83119Q110.377 2.97018 110.364 3.1085Q110.35 3.24682 110.323 3.38314Q110.296 3.51945 110.256 3.65246Q110.215 3.78546 110.162 3.91387Q110.109 4.04228 110.043 4.16486Q109.978 4.28744 109.901 4.403Q109.823 4.51857 109.735 4.62601Q109.647 4.73345 109.549 4.83173Q109.45 4.93001 109.343 5.01818Q109.236 5.10636 109.12 5.18357Q109.004 5.26079 108.882 5.32631Q108.759 5.39183 108.631 5.44502Q108.502 5.49821 108.369 5.53855Q108.236 5.5789 108.1 5.60602Q107.964 5.63313 107.825 5.64676Q107.687 5.66038 107.548 5.66038L32.5462 5.66038Q32.4072 5.66038 32.2688 5.64676Q32.1305 5.63313 31.9942 5.60602Q31.8579 5.5789 31.7249 5.53855Q31.5919 5.49821 31.4635 5.44502Q31.3351 5.39183 31.2125 5.32631Q31.0899 5.26079 30.9743 5.18357Q30.8588 5.10636 30.7513 5.01818Q30.6439 4.93001 30.5456 4.83173Q30.4473 4.73345 30.3592 4.62601Q30.271 4.51857 30.1938 4.403Q30.1166 4.28744 30.051 4.16486Q29.9855 4.04228 29.9323 3.91387Q29.8791 3.78546 29.8388 3.65246Q29.7984 3.51945 29.7713 3.38314Q29.7442 3.24682 29.7306 3.1085Q29.717 2.97018 29.717 2.83119L29.717 2.82919Q29.717 2.6902 29.7306 2.55188Q29.7442 2.41356 29.7713 2.27724Q29.7984 2.14092 29.8388 2.00792Q29.8791 1.87491 29.9323 1.74651Q29.9855 1.6181 30.051 1.49552Q30.1166 1.37294 30.1938 1.25738Q30.271 1.14181 30.3592 1.03437Q30.4473 0.92693 30.5456 0.82865Q30.6439 0.73037 30.7513 0.642196Q30.8588 0.554023 30.9743 0.476804Q31.0899 0.399586 31.2125 0.334067Q31.3351 0.268548 31.4635 0.215359Q31.5919 0.16217 31.7249 0.121824Q31.8579 0.0814775 31.9942 0.0543621Q32.1305 0.0272466 32.2688 0.0136233Q32.4072 0 32.5462 0Z" id="Rectangle-3" fill="#917676" fill-rule="evenodd" stroke="none" />
      <path d="M32.5462 9.90563L107.548 9.90563Q107.687 9.90563 107.825 9.91926Q107.964 9.93288 108.1 9.96Q108.236 9.98711 108.369 10.0275Q108.502 10.0678 108.631 10.121Q108.759 10.1742 108.882 10.2397Q109.004 10.3052 109.12 10.3824Q109.236 10.4597 109.343 10.5478Q109.45 10.636 109.549 10.7343Q109.647 10.8326 109.735 10.94Q109.823 11.0474 109.901 11.163Q109.978 11.2786 110.043 11.4012Q110.109 11.5237 110.162 11.6521Q110.215 11.7805 110.256 11.9136Q110.296 12.0466 110.323 12.1829Q110.35 12.3192 110.364 12.4575Q110.377 12.5958 110.377 12.7348L110.377 12.7368Q110.377 12.8758 110.364 13.0141Q110.35 13.1524 110.323 13.2888Q110.296 13.4251 110.256 13.5581Q110.215 13.6911 110.162 13.8195Q110.109 13.9479 110.043 14.0705Q109.978 14.1931 109.901 14.3086Q109.823 14.4242 109.735 14.5316Q109.647 14.6391 109.549 14.7374Q109.45 14.8356 109.343 14.9238Q109.236 15.012 109.12 15.0892Q109.004 15.1664 108.882 15.2319Q108.759 15.2975 108.631 15.3506Q108.502 15.4038 108.369 15.4442Q108.236 15.4845 108.1 15.5116Q107.964 15.5388 107.825 15.5524Q107.687 15.566 107.548 15.566L32.5462 15.566Q32.4072 15.566 32.2688 15.5524Q32.1305 15.5388 31.9942 15.5116Q31.8579 15.4845 31.7249 15.4442Q31.5919 15.4038 31.4635 15.3506Q31.3351 15.2975 31.2125 15.2319Q31.0899 15.1664 30.9743 15.0892Q30.8588 15.012 30.7513 14.9238Q30.6439 14.8356 30.5456 14.7374Q30.4473 14.6391 30.3592 14.5316Q30.271 14.4242 30.1938 14.3086Q30.1166 14.1931 30.051 14.0705Q29.9855 13.9479 29.9323 13.8195Q29.8791 13.6911 29.8388 13.5581Q29.7984 13.4251 29.7713 13.2888Q29.7442 13.1524 29.7306 13.0141Q29.717 12.8758 29.717 12.7368L29.717 12.7348Q29.717 12.5958 29.7306 12.4575Q29.7442 12.3192 29.7713 12.1829Q29.7984 12.0466 29.8388 11.9136Q29.8791 11.7805 29.9323 11.6521Q29.9855 11.5237 30.051 11.4012Q30.1166 11.2786 30.1938 11.163Q30.271 11.0474 30.3592 10.94Q30.4473 10.8326 30.5456 10.7343Q30.6439 10.636 30.7513 10.5478Q30.8588 10.4597 30.9743 10.3824Q31.0899 10.3052 31.2125 10.2397Q31.3351 10.1742 31.4635 10.121Q31.5919 10.0678 31.7249 10.0275Q31.8579 9.98711 31.9942 9.96Q32.1305 9.93288 32.2688 9.91926Q32.4072 9.90563 32.5462 9.90563Z" id="Rectangle-3-Copy" fill="#917676" fill-rule="evenodd" stroke="none" />
    </g>
    <g id="Group-2-Copy-3" transform="translate(79.716965 195.27832)" artboard="89992991-ae02-4dd4-9850-2918fcafaab3">
      <path d="M1.999 0L20.6425 0Q20.7407 0 20.8384 0.00962573Q20.9362 0.0192515 21.0325 0.0384102Q21.1288 0.057569 21.2228 0.0860763Q21.3168 0.114584 21.4075 0.152165Q21.4982 0.189746 21.5848 0.236039Q21.6714 0.282333 21.7531 0.336892Q21.8348 0.391452 21.9107 0.453752Q21.9866 0.516052 22.056 0.585494Q22.1255 0.654935 22.1878 0.730848Q22.2501 0.806761 22.3046 0.888415Q22.3592 0.970069 22.4055 1.05668Q22.4518 1.14329 22.4893 1.23402Q22.5269 1.32474 22.5554 1.41872Q22.5839 1.5127 22.6031 1.60901Q22.6223 1.70533 22.6319 1.80306Q22.6415 1.9008 22.6415 1.999L22.6415 17.8123Q22.6415 17.9105 22.6319 18.0083Q22.6223 18.106 22.6031 18.2023Q22.5839 18.2986 22.5554 18.3926Q22.5269 18.4866 22.4893 18.5773Q22.4518 18.668 22.4055 18.7546Q22.3592 18.8413 22.3046 18.9229Q22.2501 19.0046 22.1878 19.0805Q22.1255 19.1564 22.056 19.2258Q21.9866 19.2953 21.9107 19.3576Q21.8348 19.4199 21.7531 19.4744Q21.6714 19.529 21.5848 19.5753Q21.4982 19.6216 21.4075 19.6592Q21.3168 19.6967 21.2228 19.7252Q21.1288 19.7538 21.0325 19.7729Q20.9362 19.7921 20.8384 19.8017Q20.7407 19.8113 20.6425 19.8113L1.999 19.8113Q1.9008 19.8113 1.80306 19.8017Q1.70533 19.7921 1.60901 19.7729Q1.5127 19.7538 1.41872 19.7252Q1.32474 19.6967 1.23402 19.6592Q1.14329 19.6216 1.05668 19.5753Q0.970069 19.529 0.888415 19.4744Q0.806761 19.4199 0.730848 19.3576Q0.654935 19.2953 0.585494 19.2258Q0.516052 19.1564 0.453752 19.0805Q0.391452 19.0046 0.336892 18.9229Q0.282333 18.8413 0.236039 18.7546Q0.189746 18.668 0.152165 18.5773Q0.114584 18.4866 0.0860763 18.3926Q0.057569 18.2986 0.0384102 18.2023Q0.0192515 18.106 0.00962573 18.0083Q0 17.9105 0 17.8123L0 1.999Q0 1.9008 0.00962573 1.80306Q0.0192515 1.70533 0.0384102 1.60901Q0.057569 1.5127 0.0860763 1.41872Q0.114584 1.32474 0.152165 1.23402Q0.189746 1.14329 0.236039 1.05668Q0.282333 0.970069 0.336892 0.888415Q0.391452 0.806761 0.453752 0.730848Q0.516052 0.654935 0.585494 0.585494Q0.654935 0.516052 0.730848 0.453752Q0.806761 0.391452 0.888415 0.336892Q0.970069 0.282333 1.05668 0.236039Q1.14329 0.189746 1.23402 0.152165Q1.32474 0.114584 1.41872 0.0860763Q1.5127 0.057569 1.60901 0.0384102Q1.70533 0.0192515 1.80306 0.00962573Q1.9008 0 1.999 0Z" id="Rectangle-2" fill="#917676" fill-rule="evenodd" stroke="none" />
      <path d="M32.5462 0L107.548 0Q107.687 0 107.825 0.0136233Q107.964 0.0272466 108.1 0.0543621Q108.236 0.0814775 108.369 0.121824Q108.502 0.16217 108.631 0.215359Q108.759 0.268548 108.882 0.334067Q109.004 0.399586 109.12 0.476804Q109.236 0.554023 109.343 0.642196Q109.45 0.73037 109.549 0.82865Q109.647 0.92693 109.735 1.03437Q109.823 1.14181 109.901 1.25738Q109.978 1.37294 110.043 1.49552Q110.109 1.6181 110.162 1.74651Q110.215 1.87491 110.256 2.00792Q110.296 2.14092 110.323 2.27724Q110.35 2.41356 110.364 2.55188Q110.377 2.6902 110.377 2.82919L110.377 2.83119Q110.377 2.97018 110.364 3.1085Q110.35 3.24682 110.323 3.38314Q110.296 3.51945 110.256 3.65246Q110.215 3.78546 110.162 3.91387Q110.109 4.04228 110.043 4.16486Q109.978 4.28744 109.901 4.403Q109.823 4.51857 109.735 4.62601Q109.647 4.73345 109.549 4.83173Q109.45 4.93001 109.343 5.01818Q109.236 5.10636 109.12 5.18357Q109.004 5.26079 108.882 5.32631Q108.759 5.39183 108.631 5.44502Q108.502 5.49821 108.369 5.53855Q108.236 5.5789 108.1 5.60602Q107.964 5.63313 107.825 5.64676Q107.687 5.66038 107.548 5.66038L32.5462 5.66038Q32.4072 5.66038 32.2688 5.64676Q32.1305 5.63313 31.9942 5.60602Q31.8579 5.5789 31.7249 5.53855Q31.5919 5.49821 31.4635 5.44502Q31.3351 5.39183 31.2125 5.32631Q31.0899 5.26079 30.9743 5.18357Q30.8588 5.10636 30.7513 5.01818Q30.6439 4.93001 30.5456 4.83173Q30.4473 4.73345 30.3592 4.62601Q30.271 4.51857 30.1938 4.403Q30.1166 4.28744 30.051 4.16486Q29.9855 4.04228 29.9323 3.91387Q29.8791 3.78546 29.8388 3.65246Q29.7984 3.51945 29.7713 3.38314Q29.7442 3.24682 29.7306 3.1085Q29.717 2.97018 29.717 2.83119L29.717 2.82919Q29.717 2.6902 29.7306 2.55188Q29.7442 2.41356 29.7713 2.27724Q29.7984 2.14092 29.8388 2.00792Q29.8791 1.87491 29.9323 1.74651Q29.9855 1.6181 30.051 1.49552Q30.1166 1.37294 30.1938 1.25738Q30.271 1.14181 30.3592 1.03437Q30.4473 0.92693 30.5456 0.82865Q30.6439 0.73037 30.7513 0.642196Q30.8588 0.554023 30.9743 0.476804Q31.0899 0.399586 31.2125 0.334067Q31.3351 0.268548 31.4635 0.215359Q31.5919 0.16217 31.7249 0.121824Q31.8579 0.0814775 31.9942 0.0543621Q32.1305 0.0272466 32.2688 0.0136233Q32.4072 0 32.5462 0Z" id="Rectangle-3" fill="#917676" fill-rule="evenodd" stroke="none" />
      <path d="M32.5462 9.90563L107.548 9.90563Q107.687 9.90563 107.825 9.91926Q107.964 9.93288 108.1 9.96Q108.236 9.98711 108.369 10.0275Q108.502 10.0678 108.631 10.121Q108.759 10.1742 108.882 10.2397Q109.004 10.3052 109.12 10.3824Q109.236 10.4597 109.343 10.5478Q109.45 10.636 109.549 10.7343Q109.647 10.8326 109.735 10.94Q109.823 11.0474 109.901 11.163Q109.978 11.2786 110.043 11.4012Q110.109 11.5237 110.162 11.6521Q110.215 11.7805 110.256 11.9136Q110.296 12.0466 110.323 12.1829Q110.35 12.3192 110.364 12.4575Q110.377 12.5958 110.377 12.7348L110.377 12.7368Q110.377 12.8758 110.364 13.0141Q110.35 13.1524 110.323 13.2888Q110.296 13.4251 110.256 13.5581Q110.215 13.6911 110.162 13.8195Q110.109 13.9479 110.043 14.0705Q109.978 14.1931 109.901 14.3086Q109.823 14.4242 109.735 14.5316Q109.647 14.6391 109.549 14.7374Q109.45 14.8356 109.343 14.9238Q109.236 15.012 109.12 15.0892Q109.004 15.1664 108.882 15.2319Q108.759 15.2975 108.631 15.3506Q108.502 15.4038 108.369 15.4442Q108.236 15.4845 108.1 15.5116Q107.964 15.5388 107.825 15.5524Q107.687 15.566 107.548 15.566L32.5462 15.566Q32.4072 15.566 32.2688 15.5524Q32.1305 15.5388 31.9942 15.5116Q31.8579 15.4845 31.7249 15.4442Q31.5919 15.4038 31.4635 15.3506Q31.3351 15.2975 31.2125 15.2319Q31.0899 15.1664 30.9743 15.0892Q30.8588 15.012 30.7513 14.9238Q30.6439 14.8356 30.5456 14.7374Q30.4473 14.6391 30.3592 14.5316Q30.271 14.4242 30.1938 14.3086Q30.1166 14.1931 30.051 14.0705Q29.9855 13.9479 29.9323 13.8195Q29.8791 13.6911 29.8388 13.5581Q29.7984 13.4251 29.7713 13.2888Q29.7442 13.1524 29.7306 13.0141Q29.717 12.8758 29.717 12.7368L29.717 12.7348Q29.717 12.5958 29.7306 12.4575Q29.7442 12.3192 29.7713 12.1829Q29.7984 12.0466 29.8388 11.9136Q29.8791 11.7805 29.9323 11.6521Q29.9855 11.5237 30.051 11.4012Q30.1166 11.2786 30.1938 11.163Q30.271 11.0474 30.3592 10.94Q30.4473 10.8326 30.5456 10.7343Q30.6439 10.636 30.7513 10.5478Q30.8588 10.4597 30.9743 10.3824Q31.0899 10.3052 31.2125 10.2397Q31.3351 10.1742 31.4635 10.121Q31.5919 10.0678 31.7249 10.0275Q31.8579 9.98711 31.9942 9.96Q32.1305 9.93288 32.2688 9.91926Q32.4072 9.90563 32.5462 9.90563Z" id="Rectangle-3-Copy" fill="#917676" fill-rule="evenodd" stroke="none" />
    </g>
  </g>
</svg>